G04 #@! TF.GenerationSoftware,KiCad,Pcbnew,5.1.6-c6e7f7d~87~ubuntu20.04.1*
G04 #@! TF.CreationDate,2020-10-20T13:41:21+02:00*
G04 #@! TF.ProjectId,cnc-shield,636e632d-7368-4696-956c-642e6b696361,rev?*
G04 #@! TF.SameCoordinates,PX3d09000PY5c8b680*
G04 #@! TF.FileFunction,Copper,L1,Top*
G04 #@! TF.FilePolarity,Positive*
%FSLAX46Y46*%
G04 Gerber Fmt 4.6, Leading zero omitted, Abs format (unit mm)*
G04 Created by KiCad (PCBNEW 5.1.6-c6e7f7d~87~ubuntu20.04.1) date 2020-10-20 13:41:21*
%MOMM*%
%LPD*%
G01*
G04 APERTURE LIST*
G04 #@! TA.AperFunction,NonConductor*
%ADD10C,0.300000*%
G04 #@! TD*
G04 #@! TA.AperFunction,ComponentPad*
%ADD11C,2.600000*%
G04 #@! TD*
G04 #@! TA.AperFunction,ComponentPad*
%ADD12R,2.600000X2.600000*%
G04 #@! TD*
G04 #@! TA.AperFunction,ComponentPad*
%ADD13C,2.000000*%
G04 #@! TD*
G04 #@! TA.AperFunction,SMDPad,CuDef*
%ADD14R,1.500000X2.000000*%
G04 #@! TD*
G04 #@! TA.AperFunction,SMDPad,CuDef*
%ADD15R,3.800000X2.000000*%
G04 #@! TD*
G04 #@! TA.AperFunction,ComponentPad*
%ADD16O,2.000000X2.000000*%
G04 #@! TD*
G04 #@! TA.AperFunction,ComponentPad*
%ADD17R,2.000000X2.000000*%
G04 #@! TD*
G04 #@! TA.AperFunction,Conductor*
%ADD18C,0.600000*%
G04 #@! TD*
G04 #@! TA.AperFunction,Conductor*
%ADD19C,1.200000*%
G04 #@! TD*
G04 #@! TA.AperFunction,Conductor*
%ADD20C,1.500000*%
G04 #@! TD*
G04 #@! TA.AperFunction,Conductor*
%ADD21C,0.254000*%
G04 #@! TD*
G04 APERTURE END LIST*
D10*
X28924285Y38921429D02*
X28210000Y38921429D01*
X28138571Y38207143D01*
X28210000Y38278572D01*
X28352857Y38350000D01*
X28710000Y38350000D01*
X28852857Y38278572D01*
X28924285Y38207143D01*
X28995714Y38064286D01*
X28995714Y37707143D01*
X28924285Y37564286D01*
X28852857Y37492858D01*
X28710000Y37421429D01*
X28352857Y37421429D01*
X28210000Y37492858D01*
X28138571Y37564286D01*
X29424285Y38921429D02*
X29924285Y37421429D01*
X30424285Y38921429D01*
X9866428Y33611429D02*
X9009285Y33611429D01*
X9437857Y33611429D02*
X9437857Y35111429D01*
X9295000Y34897143D01*
X9152142Y34754286D01*
X9009285Y34682858D01*
X10437857Y34968572D02*
X10509285Y35040000D01*
X10652142Y35111429D01*
X11009285Y35111429D01*
X11152142Y35040000D01*
X11223571Y34968572D01*
X11295000Y34825715D01*
X11295000Y34682858D01*
X11223571Y34468572D01*
X10366428Y33611429D01*
X11295000Y33611429D01*
X11723571Y35111429D02*
X12223571Y33611429D01*
X12723571Y35111429D01*
D11*
X26670000Y27940000D03*
D12*
X31750000Y27940000D03*
D13*
X42545000Y38100000D03*
X3810000Y19050000D03*
X34305000Y22352000D03*
X45735000Y26162000D03*
X55625000Y17780000D03*
X55625000Y22987000D03*
X42545000Y9525000D03*
X14605000Y3175000D03*
D14*
X6590000Y10185000D03*
X11190000Y10185000D03*
X8890000Y10185000D03*
D15*
X8890000Y16485000D03*
D16*
X19050000Y42545000D03*
D17*
X21590000Y42545000D03*
D13*
X41417000Y27305000D03*
X38623000Y27305000D03*
X41417000Y24765000D03*
X38623000Y24765000D03*
X41417000Y22225000D03*
X38623000Y22225000D03*
X41417000Y19685000D03*
X38623000Y19685000D03*
X41417000Y17145000D03*
X38623000Y17145000D03*
D16*
X65405000Y31115000D03*
X65405000Y33655000D03*
X65405000Y36195000D03*
D17*
X65405000Y38735000D03*
D16*
X65405000Y9525000D03*
X65405000Y12065000D03*
X65405000Y14605000D03*
D17*
X65405000Y17145000D03*
D16*
X14605000Y17145000D03*
X14605000Y14605000D03*
X14605000Y12065000D03*
D17*
X14605000Y9525000D03*
D16*
X39370000Y35560000D03*
X39370000Y38100000D03*
D17*
X39370000Y40640000D03*
D12*
X13335000Y24130000D03*
D11*
X8255000Y24130000D03*
D16*
X19050000Y26035000D03*
D17*
X19050000Y36195000D03*
D13*
X53730000Y26162000D03*
D17*
X57530000Y26162000D03*
D13*
X9525000Y2550000D03*
D17*
X9525000Y6350000D03*
D13*
X54620000Y4572000D03*
D17*
X58420000Y4572000D03*
D13*
X26405000Y22352000D03*
D17*
X22605000Y22352000D03*
D16*
X48640000Y43942000D03*
X61340000Y26162000D03*
X48640000Y41402000D03*
X61340000Y28702000D03*
X48640000Y38862000D03*
X61340000Y31242000D03*
X48640000Y36322000D03*
X61340000Y33782000D03*
X48640000Y33782000D03*
X61340000Y36322000D03*
X48640000Y31242000D03*
X61340000Y38862000D03*
X48640000Y28702000D03*
X61340000Y41402000D03*
X48640000Y26162000D03*
D17*
X61340000Y43942000D03*
D16*
X48640000Y22352000D03*
X61340000Y4572000D03*
X48640000Y19812000D03*
X61340000Y7112000D03*
X48640000Y17272000D03*
X61340000Y9652000D03*
X48640000Y14732000D03*
X61340000Y12192000D03*
X48640000Y12192000D03*
X61340000Y14732000D03*
X48640000Y9652000D03*
X61340000Y17272000D03*
X48640000Y7112000D03*
X61340000Y19812000D03*
X48640000Y4572000D03*
D17*
X61340000Y22352000D03*
D16*
X31495000Y4572000D03*
X18795000Y22352000D03*
X31495000Y7112000D03*
X18795000Y19812000D03*
X31495000Y9652000D03*
X18795000Y17272000D03*
X31495000Y12192000D03*
X18795000Y14732000D03*
X31495000Y14732000D03*
X18795000Y12192000D03*
X31495000Y17272000D03*
X18795000Y9652000D03*
X31495000Y19812000D03*
X18795000Y7112000D03*
X31495000Y22352000D03*
D17*
X18795000Y4572000D03*
D18*
X53730000Y24882000D02*
X55625000Y22987000D01*
X53730000Y26162000D02*
X53730000Y24882000D01*
D19*
X55625000Y17780000D02*
X55625000Y14860000D01*
X55625000Y14860000D02*
X56640000Y15875000D01*
X53730000Y26162000D02*
X53730000Y28330000D01*
X53730000Y28330000D02*
X54610000Y29210000D01*
D18*
X31495000Y12192000D02*
X31495000Y9652000D01*
X31495000Y22352000D02*
X38623000Y22352000D01*
X45735000Y26162000D02*
X48640000Y26162000D01*
X51435000Y5715000D02*
X51435000Y23367000D01*
X51435000Y23367000D02*
X48640000Y26162000D01*
X50292000Y4572000D02*
X51435000Y5715000D01*
X48640000Y4572000D02*
X50292000Y4572000D01*
X31750000Y27940000D02*
X33020000Y27940000D01*
X36195000Y24765000D02*
X38623000Y24765000D01*
X33020000Y27940000D02*
X36195000Y24765000D01*
X39370000Y38100000D02*
X42545000Y38100000D01*
X3810000Y19050000D02*
X11430000Y19050000D01*
X11430000Y19050000D02*
X12065000Y18415000D01*
X12065000Y11060000D02*
X11190000Y10185000D01*
X12065000Y18415000D02*
X12065000Y11060000D01*
X31750000Y27940000D02*
X32385000Y27940000D01*
X32385000Y27940000D02*
X36195000Y31750000D01*
X36195000Y31750000D02*
X36195000Y36830000D01*
X36195000Y36830000D02*
X37465000Y38100000D01*
X37465000Y38100000D02*
X39370000Y38100000D01*
X18755000Y12152000D02*
X18795000Y12192000D01*
X18668000Y12065000D02*
X18795000Y12192000D01*
X14605000Y12065000D02*
X18668000Y12065000D01*
X14732000Y9652000D02*
X14605000Y9525000D01*
X18795000Y9652000D02*
X14732000Y9652000D01*
X48640000Y17272000D02*
X48640000Y14732000D01*
X61460000Y9772000D02*
X61340000Y9652000D01*
X65278000Y9652000D02*
X65405000Y9525000D01*
X61340000Y9652000D02*
X65278000Y9652000D01*
X61467000Y12065000D02*
X61340000Y12192000D01*
X65405000Y12065000D02*
X61467000Y12065000D01*
X61380000Y14772000D02*
X61340000Y14732000D01*
X65278000Y14732000D02*
X65405000Y14605000D01*
X61340000Y14732000D02*
X65278000Y14732000D01*
X61467000Y17145000D02*
X61340000Y17272000D01*
X65405000Y17145000D02*
X61467000Y17145000D01*
X48640000Y38862000D02*
X48640000Y36322000D01*
X61460000Y31362000D02*
X61340000Y31242000D01*
X65278000Y31242000D02*
X65405000Y31115000D01*
X61340000Y31242000D02*
X65278000Y31242000D01*
X61467000Y33655000D02*
X61340000Y33782000D01*
X65405000Y33655000D02*
X61467000Y33655000D01*
X61380000Y36362000D02*
X61340000Y36322000D01*
X65278000Y36322000D02*
X65405000Y36195000D01*
X61340000Y36322000D02*
X65278000Y36322000D01*
X61467000Y38735000D02*
X61340000Y38862000D01*
X65405000Y38735000D02*
X61467000Y38735000D01*
X38623000Y17272000D02*
X38623000Y8890000D01*
X34305000Y4572000D02*
X31495000Y4572000D01*
X38623000Y8890000D02*
X34305000Y4572000D01*
D19*
X57530000Y26162000D02*
X61340000Y26162000D01*
D20*
X18795000Y22352000D02*
X22605000Y22352000D01*
X61340000Y4572000D02*
X65785000Y4572000D01*
D19*
X63500000Y47625000D02*
X40005000Y47625000D01*
X40005000Y47625000D02*
X34925000Y42545000D01*
X65785000Y4572000D02*
X66167000Y4572000D01*
X66167000Y4572000D02*
X68580000Y6985000D01*
X68580000Y42545000D02*
X63500000Y47625000D01*
X68453000Y26162000D02*
X68580000Y26035000D01*
X61340000Y26162000D02*
X68453000Y26162000D01*
X68580000Y26035000D02*
X68580000Y42545000D01*
X68580000Y6985000D02*
X68580000Y26035000D01*
X22605000Y42165000D02*
X22225000Y42545000D01*
X22605000Y22352000D02*
X22605000Y42165000D01*
X22225000Y42545000D02*
X34925000Y42545000D01*
X21590000Y42545000D02*
X22225000Y42545000D01*
X58420000Y4572000D02*
X61340000Y4572000D01*
D18*
X31495000Y7112000D02*
X33670000Y7112000D01*
X33670000Y7112000D02*
X36210000Y9652000D01*
X36210000Y9652000D02*
X36210000Y19177000D01*
X36845000Y19812000D02*
X38623000Y19812000D01*
X36210000Y19177000D02*
X36845000Y19812000D01*
X18668000Y17145000D02*
X18795000Y17272000D01*
X14605000Y17145000D02*
X18668000Y17145000D01*
X13795000Y14732000D02*
X13715000Y14652000D01*
X14732000Y14732000D02*
X14605000Y14605000D01*
X18795000Y14732000D02*
X14732000Y14732000D01*
X41417000Y22352000D02*
X48640000Y22352000D01*
X41417000Y19812000D02*
X48640000Y19812000D01*
X41417000Y27305000D02*
X41417000Y28082000D01*
X47117000Y43942000D02*
X48640000Y43942000D01*
X44450000Y41275000D02*
X47117000Y43942000D01*
X41417000Y28717000D02*
X44450000Y31750000D01*
X41417000Y27305000D02*
X41417000Y28717000D01*
X44450000Y31750000D02*
X44450000Y41275000D01*
X41417000Y24765000D02*
X42545000Y24765000D01*
X42545000Y24765000D02*
X43815000Y26035000D01*
X43815000Y26035000D02*
X43815000Y28575000D01*
X43815000Y28575000D02*
X46355000Y31115000D01*
X46355000Y31115000D02*
X46355000Y40640000D01*
X47117000Y41402000D02*
X48640000Y41402000D01*
X46355000Y40640000D02*
X47117000Y41402000D01*
D19*
X13335000Y24130000D02*
X15240000Y26035000D01*
X15240000Y26035000D02*
X19050000Y26035000D01*
D18*
X39370000Y35560000D02*
X39370000Y29210000D01*
X38623000Y28463000D02*
X38623000Y27305000D01*
X39370000Y29210000D02*
X38623000Y28463000D01*
X31495000Y17272000D02*
X31495000Y14732000D01*
X48640000Y12192000D02*
X48640000Y9652000D01*
X48640000Y9652000D02*
X48640000Y7112000D01*
X31495000Y19812000D02*
X31495000Y17272000D01*
X48640000Y33782000D02*
X48640000Y31242000D01*
X48640000Y31242000D02*
X48640000Y28702000D01*
X48640000Y7112000D02*
X46735000Y7112000D01*
X46735000Y7112000D02*
X46735000Y2667000D01*
X51815000Y31877000D02*
X51815000Y25527000D01*
X61340000Y41402000D02*
X62992000Y41402000D01*
X62992000Y41402000D02*
X63500000Y41910000D01*
X63500000Y41910000D02*
X63500000Y45720000D01*
X63500000Y45720000D02*
X62865000Y46355000D01*
X62865000Y46355000D02*
X59690000Y46355000D01*
X59690000Y46355000D02*
X51815000Y38480000D01*
X8890000Y16485000D02*
X8890000Y10185000D01*
X48640000Y36322000D02*
X48640000Y33782000D01*
X48640000Y14732000D02*
X48640000Y12192000D01*
X31495000Y14732000D02*
X31495000Y12192000D01*
X51815000Y25020000D02*
X51815000Y25527000D01*
X51562000Y36322000D02*
X51815000Y36575000D01*
X48640000Y36322000D02*
X51562000Y36322000D01*
X51815000Y36575000D02*
X51815000Y31877000D01*
X51815000Y38480000D02*
X51815000Y36575000D01*
X8890000Y6985000D02*
X9525000Y6350000D01*
X8890000Y10185000D02*
X8890000Y6985000D01*
X9525000Y6350000D02*
X15240000Y6350000D01*
X16002000Y7112000D02*
X18795000Y7112000D01*
X15240000Y6350000D02*
X16002000Y7112000D01*
X27178000Y7112000D02*
X27432000Y6858000D01*
X18795000Y7112000D02*
X27178000Y7112000D01*
X28448000Y2667000D02*
X46735000Y2667000D01*
X27432000Y3683000D02*
X28448000Y2667000D01*
X27432000Y6858000D02*
X27432000Y3683000D01*
X27432000Y8382000D02*
X28702000Y9652000D01*
X31495000Y9652000D02*
X28702000Y9652000D01*
X27432000Y8382000D02*
X27432000Y6858000D01*
X46735000Y2667000D02*
X50292000Y2667000D01*
X52705000Y5080000D02*
X52705000Y12700000D01*
X52705000Y24130000D02*
X51815000Y25020000D01*
X50292000Y2667000D02*
X52705000Y5080000D01*
X52705000Y12700000D02*
X52705000Y19685000D01*
X52705000Y19685000D02*
X52705000Y24130000D01*
X52832000Y19812000D02*
X52705000Y19685000D01*
X61340000Y19812000D02*
X52832000Y19812000D01*
D19*
X19050000Y38100000D02*
X19050000Y42545000D01*
X19050000Y36195000D02*
X19050000Y38100000D01*
D21*
G36*
X38723836Y48786183D02*
G01*
X34209654Y44272000D01*
X23451302Y44272000D01*
X23390765Y44345765D01*
X23219157Y44486600D01*
X23023371Y44591250D01*
X22810931Y44655693D01*
X22590000Y44677453D01*
X20590000Y44677453D01*
X20369069Y44655693D01*
X20156629Y44591250D01*
X19960843Y44486600D01*
X19947372Y44475545D01*
X19670423Y44590261D01*
X19259491Y44672000D01*
X18840509Y44672000D01*
X18429577Y44590261D01*
X18042488Y44429923D01*
X17694116Y44197149D01*
X17397851Y43900884D01*
X17165077Y43552512D01*
X17004739Y43165423D01*
X16923000Y42754491D01*
X16923000Y42335509D01*
X17004739Y41924577D01*
X17165077Y41537488D01*
X17323001Y41301138D01*
X17323000Y38056302D01*
X17249235Y37995765D01*
X17108400Y37824157D01*
X17003750Y37628371D01*
X16939307Y37415931D01*
X16917547Y37195000D01*
X16917547Y35195000D01*
X16939307Y34974069D01*
X17003750Y34761629D01*
X17108400Y34565843D01*
X17249235Y34394235D01*
X17420843Y34253400D01*
X17616629Y34148750D01*
X17829069Y34084307D01*
X18050000Y34062547D01*
X20050000Y34062547D01*
X20270931Y34084307D01*
X20483371Y34148750D01*
X20679157Y34253400D01*
X20850765Y34394235D01*
X20878001Y34427422D01*
X20878000Y27127703D01*
X20702149Y27390884D01*
X20405884Y27687149D01*
X20057512Y27919923D01*
X19670423Y28080261D01*
X19259491Y28162000D01*
X18840509Y28162000D01*
X18429577Y28080261D01*
X18042488Y27919923D01*
X17806139Y27762000D01*
X15324838Y27762000D01*
X15240000Y27770356D01*
X15155161Y27762000D01*
X15155159Y27762000D01*
X14901449Y27737012D01*
X14575908Y27638260D01*
X14275887Y27477896D01*
X14078818Y27316165D01*
X14012918Y27262082D01*
X13958836Y27196183D01*
X13325106Y26562453D01*
X12035000Y26562453D01*
X11814069Y26540693D01*
X11601629Y26476250D01*
X11405843Y26371600D01*
X11234235Y26230765D01*
X11093400Y26059157D01*
X10988750Y25863371D01*
X10924307Y25650931D01*
X10902547Y25430000D01*
X10902547Y22830000D01*
X10924307Y22609069D01*
X10988750Y22396629D01*
X11093400Y22200843D01*
X11234235Y22029235D01*
X11405843Y21888400D01*
X11601629Y21783750D01*
X11814069Y21719307D01*
X12035000Y21697547D01*
X14635000Y21697547D01*
X14855931Y21719307D01*
X15068371Y21783750D01*
X15264157Y21888400D01*
X15435765Y22029235D01*
X15576600Y22200843D01*
X15681250Y22396629D01*
X15745693Y22609069D01*
X15767453Y22830000D01*
X15767453Y24120106D01*
X15955347Y24308000D01*
X17806139Y24308000D01*
X17864668Y24268892D01*
X17787488Y24236923D01*
X17439116Y24004149D01*
X17142851Y23707884D01*
X16910077Y23359512D01*
X16749739Y22972423D01*
X16668000Y22561491D01*
X16668000Y22142509D01*
X16749739Y21731577D01*
X16910077Y21344488D01*
X17142851Y20996116D01*
X17431781Y20707186D01*
X17401601Y20667382D01*
X17261498Y20379107D01*
X17204876Y20192434D01*
X17324223Y19939000D01*
X18668000Y19939000D01*
X18668000Y19959000D01*
X18922000Y19959000D01*
X18922000Y19939000D01*
X20265777Y19939000D01*
X20385124Y20192434D01*
X20328502Y20379107D01*
X20281898Y20475000D01*
X20897128Y20475000D01*
X20975843Y20410400D01*
X21171629Y20305750D01*
X21384069Y20241307D01*
X21605000Y20219547D01*
X23605000Y20219547D01*
X23825931Y20241307D01*
X24038371Y20305750D01*
X24234157Y20410400D01*
X24405765Y20551235D01*
X24546600Y20722843D01*
X24651250Y20918629D01*
X24715693Y21131069D01*
X24724115Y21216587D01*
X25449192Y21216587D01*
X25544956Y20952186D01*
X25834571Y20811296D01*
X26146108Y20729616D01*
X26467595Y20710282D01*
X26786675Y20754039D01*
X27091088Y20859205D01*
X27265044Y20952186D01*
X27360808Y21216587D01*
X26405000Y22172395D01*
X25449192Y21216587D01*
X24724115Y21216587D01*
X24737453Y21352000D01*
X24737453Y22289405D01*
X24763282Y22289405D01*
X24807039Y21970325D01*
X24912205Y21665912D01*
X25005186Y21491956D01*
X25269587Y21396192D01*
X26225395Y22352000D01*
X26584605Y22352000D01*
X27540413Y21396192D01*
X27804814Y21491956D01*
X27945704Y21781571D01*
X28027384Y22093108D01*
X28046718Y22414595D01*
X28002961Y22733675D01*
X27897795Y23038088D01*
X27804814Y23212044D01*
X27540413Y23307808D01*
X26584605Y22352000D01*
X26225395Y22352000D01*
X25269587Y23307808D01*
X25005186Y23212044D01*
X24864296Y22922429D01*
X24782616Y22610892D01*
X24763282Y22289405D01*
X24737453Y22289405D01*
X24737453Y23352000D01*
X24724116Y23487413D01*
X25449192Y23487413D01*
X26405000Y22531605D01*
X27360808Y23487413D01*
X27265044Y23751814D01*
X26975429Y23892704D01*
X26663892Y23974384D01*
X26342405Y23993718D01*
X26023325Y23949961D01*
X25718912Y23844795D01*
X25544956Y23751814D01*
X25449192Y23487413D01*
X24724116Y23487413D01*
X24715693Y23572931D01*
X24651250Y23785371D01*
X24546600Y23981157D01*
X24405765Y24152765D01*
X24332000Y24213302D01*
X24332000Y26590776D01*
X25500381Y26590776D01*
X25632317Y26295688D01*
X25973045Y26124841D01*
X26340557Y26023750D01*
X26720729Y25996299D01*
X27098951Y26043543D01*
X27460690Y26163667D01*
X27707683Y26295688D01*
X27839619Y26590776D01*
X26670000Y27760395D01*
X25500381Y26590776D01*
X24332000Y26590776D01*
X24332000Y27889271D01*
X24726299Y27889271D01*
X24773543Y27511049D01*
X24893667Y27149310D01*
X25025688Y26902317D01*
X25320776Y26770381D01*
X26490395Y27940000D01*
X26849605Y27940000D01*
X28019224Y26770381D01*
X28314312Y26902317D01*
X28485159Y27243045D01*
X28586250Y27610557D01*
X28613701Y27990729D01*
X28566457Y28368951D01*
X28446333Y28730690D01*
X28314312Y28977683D01*
X28019224Y29109619D01*
X26849605Y27940000D01*
X26490395Y27940000D01*
X25320776Y29109619D01*
X25025688Y28977683D01*
X24854841Y28636955D01*
X24753750Y28269443D01*
X24726299Y27889271D01*
X24332000Y27889271D01*
X24332000Y29289224D01*
X25500381Y29289224D01*
X26670000Y28119605D01*
X27839619Y29289224D01*
X27707683Y29584312D01*
X27366955Y29755159D01*
X26999443Y29856250D01*
X26619271Y29883701D01*
X26241049Y29836457D01*
X25879310Y29716333D01*
X25632317Y29584312D01*
X25500381Y29289224D01*
X24332000Y29289224D01*
X24332000Y40382000D01*
X26575857Y40382000D01*
X26575857Y35578000D01*
X31844143Y35578000D01*
X31844143Y40382000D01*
X26575857Y40382000D01*
X24332000Y40382000D01*
X24332000Y40818000D01*
X34840162Y40818000D01*
X34925000Y40809644D01*
X35009838Y40818000D01*
X35009841Y40818000D01*
X35263551Y40842988D01*
X35589092Y40941740D01*
X35889112Y41102104D01*
X36152082Y41317918D01*
X36206168Y41383822D01*
X36462346Y41640000D01*
X37731928Y41640000D01*
X37735000Y40925750D01*
X37893750Y40767000D01*
X39243000Y40767000D01*
X39243000Y42116250D01*
X39497000Y42116250D01*
X39497000Y40767000D01*
X40846250Y40767000D01*
X41005000Y40925750D01*
X41008072Y41640000D01*
X40995812Y41764482D01*
X40959502Y41884180D01*
X40900537Y41994494D01*
X40821185Y42091185D01*
X40724494Y42170537D01*
X40614180Y42229502D01*
X40494482Y42265812D01*
X40370000Y42278072D01*
X39655750Y42275000D01*
X39497000Y42116250D01*
X39243000Y42116250D01*
X39084250Y42275000D01*
X38370000Y42278072D01*
X38245518Y42265812D01*
X38125820Y42229502D01*
X38015506Y42170537D01*
X37918815Y42091185D01*
X37839463Y41994494D01*
X37780498Y41884180D01*
X37744188Y41764482D01*
X37731928Y41640000D01*
X36462346Y41640000D01*
X40720347Y45898000D01*
X47804083Y45898000D01*
X47632488Y45826923D01*
X47284116Y45594149D01*
X47060284Y45370317D01*
X47046910Y45369000D01*
X47046902Y45369000D01*
X46861474Y45350737D01*
X46837258Y45348352D01*
X46813276Y45341077D01*
X46568269Y45266755D01*
X46447297Y45202094D01*
X46320366Y45134248D01*
X46157525Y45000608D01*
X46157522Y45000605D01*
X46103077Y44955923D01*
X46058395Y44901478D01*
X43490523Y42333605D01*
X43436078Y42288923D01*
X43391396Y42234478D01*
X43391392Y42234474D01*
X43273798Y42091185D01*
X43257753Y42071634D01*
X43125246Y41823731D01*
X43043649Y41554741D01*
X43032017Y41436634D01*
X43016097Y41275000D01*
X43023001Y41204902D01*
X43023001Y40173590D01*
X42754491Y40227000D01*
X42335509Y40227000D01*
X41924577Y40145261D01*
X41537488Y39984923D01*
X41189116Y39752149D01*
X41000545Y39563578D01*
X41008072Y39640000D01*
X41005000Y40354250D01*
X40846250Y40513000D01*
X39497000Y40513000D01*
X39497000Y40493000D01*
X39243000Y40493000D01*
X39243000Y40513000D01*
X37893750Y40513000D01*
X37735000Y40354250D01*
X37731928Y39640000D01*
X37743057Y39527000D01*
X37535087Y39527000D01*
X37464999Y39533903D01*
X37394911Y39527000D01*
X37394902Y39527000D01*
X37185259Y39506352D01*
X36916269Y39424755D01*
X36668366Y39292248D01*
X36451077Y39113923D01*
X36406390Y39059472D01*
X35235523Y37888605D01*
X35181078Y37843923D01*
X35136396Y37789478D01*
X35136392Y37789474D01*
X35032779Y37663221D01*
X35002753Y37626634D01*
X34870246Y37378731D01*
X34788649Y37109741D01*
X34769549Y36915810D01*
X34761097Y36830000D01*
X34768001Y36759903D01*
X34768000Y32341083D01*
X32799371Y30372453D01*
X30450000Y30372453D01*
X30229069Y30350693D01*
X30016629Y30286250D01*
X29820843Y30181600D01*
X29649235Y30040765D01*
X29508400Y29869157D01*
X29403750Y29673371D01*
X29339307Y29460931D01*
X29317547Y29240000D01*
X29317547Y26640000D01*
X29339307Y26419069D01*
X29403750Y26206629D01*
X29508400Y26010843D01*
X29649235Y25839235D01*
X29820843Y25698400D01*
X30016629Y25593750D01*
X30229069Y25529307D01*
X30450000Y25507547D01*
X33050000Y25507547D01*
X33270931Y25529307D01*
X33379635Y25562282D01*
X34462917Y24479000D01*
X34095509Y24479000D01*
X33684577Y24397261D01*
X33297488Y24236923D01*
X32949116Y24004149D01*
X32900000Y23955033D01*
X32850884Y24004149D01*
X32502512Y24236923D01*
X32115423Y24397261D01*
X31704491Y24479000D01*
X31285509Y24479000D01*
X30874577Y24397261D01*
X30487488Y24236923D01*
X30139116Y24004149D01*
X29842851Y23707884D01*
X29610077Y23359512D01*
X29449739Y22972423D01*
X29368000Y22561491D01*
X29368000Y22142509D01*
X29449739Y21731577D01*
X29610077Y21344488D01*
X29785465Y21082000D01*
X29610077Y20819512D01*
X29449739Y20432423D01*
X29368000Y20021491D01*
X29368000Y19602509D01*
X29449739Y19191577D01*
X29610077Y18804488D01*
X29785465Y18542000D01*
X29610077Y18279512D01*
X29449739Y17892423D01*
X29368000Y17481491D01*
X29368000Y17062509D01*
X29449739Y16651577D01*
X29610077Y16264488D01*
X29785465Y16002000D01*
X29610077Y15739512D01*
X29449739Y15352423D01*
X29368000Y14941491D01*
X29368000Y14522509D01*
X29449739Y14111577D01*
X29610077Y13724488D01*
X29785465Y13462000D01*
X29610077Y13199512D01*
X29449739Y12812423D01*
X29368000Y12401491D01*
X29368000Y11982509D01*
X29449739Y11571577D01*
X29610077Y11184488D01*
X29680562Y11079000D01*
X28772087Y11079000D01*
X28701999Y11085903D01*
X28631911Y11079000D01*
X28631902Y11079000D01*
X28422259Y11058352D01*
X28153269Y10976755D01*
X27905366Y10844248D01*
X27688077Y10665923D01*
X27643392Y10611474D01*
X26472523Y9440605D01*
X26418077Y9395922D01*
X26373395Y9341477D01*
X26373392Y9341474D01*
X26311541Y9266108D01*
X26239752Y9178633D01*
X26107245Y8930730D01*
X26025648Y8661740D01*
X26013559Y8539000D01*
X20609438Y8539000D01*
X20679923Y8644488D01*
X20840261Y9031577D01*
X20922000Y9442509D01*
X20922000Y9861491D01*
X20840261Y10272423D01*
X20679923Y10659512D01*
X20504535Y10922000D01*
X20679923Y11184488D01*
X20840261Y11571577D01*
X20922000Y11982509D01*
X20922000Y12401491D01*
X20840261Y12812423D01*
X20679923Y13199512D01*
X20504535Y13462000D01*
X20679923Y13724488D01*
X20840261Y14111577D01*
X20922000Y14522509D01*
X20922000Y14941491D01*
X20840261Y15352423D01*
X20679923Y15739512D01*
X20504535Y16002000D01*
X20679923Y16264488D01*
X20840261Y16651577D01*
X20922000Y17062509D01*
X20922000Y17481491D01*
X20840261Y17892423D01*
X20679923Y18279512D01*
X20447149Y18627884D01*
X20158219Y18916814D01*
X20188399Y18956618D01*
X20328502Y19244893D01*
X20385124Y19431566D01*
X20265777Y19685000D01*
X18922000Y19685000D01*
X18922000Y19665000D01*
X18668000Y19665000D01*
X18668000Y19685000D01*
X17324223Y19685000D01*
X17204876Y19431566D01*
X17261498Y19244893D01*
X17401601Y18956618D01*
X17431781Y18916814D01*
X17142851Y18627884D01*
X17105511Y18572000D01*
X16186033Y18572000D01*
X15960884Y18797149D01*
X15612512Y19029923D01*
X15225423Y19190261D01*
X14814491Y19272000D01*
X14395509Y19272000D01*
X13984577Y19190261D01*
X13597488Y19029923D01*
X13408069Y18903358D01*
X13389755Y18963731D01*
X13257248Y19211634D01*
X13228143Y19247098D01*
X13123608Y19374474D01*
X13123605Y19374477D01*
X13078922Y19428923D01*
X13024477Y19473605D01*
X12488610Y20009472D01*
X12443923Y20063923D01*
X12226634Y20242248D01*
X11978731Y20374755D01*
X11709741Y20456352D01*
X11500098Y20477000D01*
X11500088Y20477000D01*
X11430000Y20483903D01*
X11359912Y20477000D01*
X5391033Y20477000D01*
X5165884Y20702149D01*
X4817512Y20934923D01*
X4430423Y21095261D01*
X4019491Y21177000D01*
X3600509Y21177000D01*
X3189577Y21095261D01*
X2802488Y20934923D01*
X2454116Y20702149D01*
X2157851Y20405884D01*
X1925077Y20057512D01*
X1764739Y19670423D01*
X1683000Y19259491D01*
X1683000Y18840509D01*
X1764739Y18429577D01*
X1925077Y18042488D01*
X2157851Y17694116D01*
X2454116Y17397851D01*
X2802488Y17165077D01*
X3189577Y17004739D01*
X3600509Y16923000D01*
X4019491Y16923000D01*
X4430423Y17004739D01*
X4817512Y17165077D01*
X5165884Y17397851D01*
X5391033Y17623000D01*
X5871139Y17623000D01*
X5857547Y17485000D01*
X5857547Y15485000D01*
X5879307Y15264069D01*
X5943750Y15051629D01*
X6048400Y14855843D01*
X6189235Y14684235D01*
X6360843Y14543400D01*
X6556629Y14438750D01*
X6769069Y14374307D01*
X6990000Y14352547D01*
X7463000Y14352547D01*
X7463001Y12087337D01*
X7339235Y11985765D01*
X7204983Y11822179D01*
X6875750Y11820000D01*
X6717000Y11661250D01*
X6717000Y10312000D01*
X6737000Y10312000D01*
X6737000Y10058000D01*
X6717000Y10058000D01*
X6717000Y8708750D01*
X6875750Y8550000D01*
X7204983Y8547821D01*
X7339235Y8384235D01*
X7463001Y8282663D01*
X7463001Y7731453D01*
X7414307Y7570931D01*
X7392547Y7350000D01*
X7392547Y5350000D01*
X7414307Y5129069D01*
X7478750Y4916629D01*
X7583400Y4720843D01*
X7724235Y4549235D01*
X7895843Y4408400D01*
X8091629Y4303750D01*
X8304069Y4239307D01*
X8525000Y4217547D01*
X10525000Y4217547D01*
X10745931Y4239307D01*
X10958371Y4303750D01*
X10970836Y4310413D01*
X13649192Y4310413D01*
X14605000Y3354605D01*
X15560808Y4310413D01*
X15465044Y4574814D01*
X15175429Y4715704D01*
X14863892Y4797384D01*
X14542405Y4816718D01*
X14223325Y4772961D01*
X13918912Y4667795D01*
X13744956Y4574814D01*
X13649192Y4310413D01*
X10970836Y4310413D01*
X11154157Y4408400D01*
X11325765Y4549235D01*
X11466600Y4720843D01*
X11571250Y4916629D01*
X11573183Y4923000D01*
X15169912Y4923000D01*
X15240000Y4916097D01*
X15310088Y4923000D01*
X15310098Y4923000D01*
X15519741Y4943648D01*
X15788731Y5025245D01*
X16036634Y5157752D01*
X16253923Y5336077D01*
X16298610Y5390528D01*
X16593082Y5685000D01*
X17168057Y5685000D01*
X17156928Y5572000D01*
X17160000Y4857750D01*
X17318750Y4699000D01*
X18668000Y4699000D01*
X18668000Y4719000D01*
X18922000Y4719000D01*
X18922000Y4699000D01*
X20271250Y4699000D01*
X20430000Y4857750D01*
X20433072Y5572000D01*
X20421943Y5685000D01*
X26005000Y5685000D01*
X26005001Y3753097D01*
X25998097Y3683000D01*
X26005001Y3612902D01*
X26019703Y3463634D01*
X26025649Y3403259D01*
X26107246Y3134269D01*
X26239753Y2886366D01*
X26373392Y2723526D01*
X26373396Y2723522D01*
X26418078Y2669077D01*
X26472522Y2624395D01*
X27389395Y1707522D01*
X27434077Y1653077D01*
X27488522Y1608395D01*
X27488525Y1608392D01*
X27580047Y1533282D01*
X27651366Y1474752D01*
X27899269Y1342245D01*
X28168259Y1260648D01*
X28377902Y1240000D01*
X28377912Y1240000D01*
X28448000Y1233097D01*
X28518088Y1240000D01*
X46664903Y1240000D01*
X46735000Y1233096D01*
X46805098Y1240000D01*
X50221912Y1240000D01*
X50292000Y1233097D01*
X50362088Y1240000D01*
X50362098Y1240000D01*
X50571741Y1260648D01*
X50840731Y1342245D01*
X51088634Y1474752D01*
X51305923Y1653077D01*
X51350610Y1707528D01*
X53079669Y3436587D01*
X53664192Y3436587D01*
X53759956Y3172186D01*
X54049571Y3031296D01*
X54361108Y2949616D01*
X54682595Y2930282D01*
X55001675Y2974039D01*
X55306088Y3079205D01*
X55480044Y3172186D01*
X55575808Y3436587D01*
X54620000Y4392395D01*
X53664192Y3436587D01*
X53079669Y3436587D01*
X53319182Y3676100D01*
X53484587Y3616192D01*
X54440395Y4572000D01*
X54799605Y4572000D01*
X55755413Y3616192D01*
X56019814Y3711956D01*
X56160704Y4001571D01*
X56242384Y4313108D01*
X56261718Y4634595D01*
X56217961Y4953675D01*
X56112795Y5258088D01*
X56019814Y5432044D01*
X55755413Y5527808D01*
X54799605Y4572000D01*
X54440395Y4572000D01*
X54426253Y4586142D01*
X54605858Y4765747D01*
X54620000Y4751605D01*
X55575808Y5707413D01*
X55480044Y5971814D01*
X55190429Y6112704D01*
X54878892Y6194384D01*
X54557405Y6213718D01*
X54238325Y6169961D01*
X54132000Y6133229D01*
X54132000Y16644587D01*
X54669192Y16644587D01*
X54764956Y16380186D01*
X55054571Y16239296D01*
X55366108Y16157616D01*
X55687595Y16138282D01*
X56006675Y16182039D01*
X56311088Y16287205D01*
X56485044Y16380186D01*
X56580808Y16644587D01*
X55625000Y17600395D01*
X54669192Y16644587D01*
X54132000Y16644587D01*
X54132000Y17094505D01*
X54132205Y17093912D01*
X54225186Y16919956D01*
X54489587Y16824192D01*
X55445395Y17780000D01*
X55431253Y17794142D01*
X55610858Y17973747D01*
X55625000Y17959605D01*
X55639143Y17973747D01*
X55818748Y17794142D01*
X55804605Y17780000D01*
X56760413Y16824192D01*
X57024814Y16919956D01*
X57165704Y17209571D01*
X57247384Y17521108D01*
X57266718Y17842595D01*
X57222961Y18161675D01*
X57145809Y18385000D01*
X59525562Y18385000D01*
X59455077Y18279512D01*
X59294739Y17892423D01*
X59213000Y17481491D01*
X59213000Y17062509D01*
X59294739Y16651577D01*
X59455077Y16264488D01*
X59630465Y16002000D01*
X59455077Y15739512D01*
X59294739Y15352423D01*
X59213000Y14941491D01*
X59213000Y14522509D01*
X59294739Y14111577D01*
X59455077Y13724488D01*
X59630465Y13462000D01*
X59455077Y13199512D01*
X59294739Y12812423D01*
X59213000Y12401491D01*
X59213000Y11982509D01*
X59294739Y11571577D01*
X59455077Y11184488D01*
X59630465Y10922000D01*
X59455077Y10659512D01*
X59294739Y10272423D01*
X59213000Y9861491D01*
X59213000Y9442509D01*
X59294739Y9031577D01*
X59455077Y8644488D01*
X59687851Y8296116D01*
X59976781Y8007186D01*
X59946601Y7967382D01*
X59806498Y7679107D01*
X59749876Y7492434D01*
X59869223Y7239000D01*
X61213000Y7239000D01*
X61213000Y7259000D01*
X61467000Y7259000D01*
X61467000Y7239000D01*
X62810777Y7239000D01*
X62930124Y7492434D01*
X62873502Y7679107D01*
X62733399Y7967382D01*
X62703219Y8007186D01*
X62921033Y8225000D01*
X63715511Y8225000D01*
X63752851Y8169116D01*
X64049116Y7872851D01*
X64397488Y7640077D01*
X64784577Y7479739D01*
X65195509Y7398000D01*
X65614491Y7398000D01*
X66025423Y7479739D01*
X66412512Y7640077D01*
X66760884Y7872851D01*
X66853000Y7964967D01*
X66853000Y7700346D01*
X65601654Y6449000D01*
X62826898Y6449000D01*
X62873502Y6544893D01*
X62930124Y6731566D01*
X62810777Y6985000D01*
X61467000Y6985000D01*
X61467000Y6965000D01*
X61213000Y6965000D01*
X61213000Y6985000D01*
X59869223Y6985000D01*
X59749876Y6731566D01*
X59777243Y6641343D01*
X59640931Y6682693D01*
X59420000Y6704453D01*
X57420000Y6704453D01*
X57199069Y6682693D01*
X56986629Y6618250D01*
X56790843Y6513600D01*
X56619235Y6372765D01*
X56478400Y6201157D01*
X56373750Y6005371D01*
X56309307Y5792931D01*
X56287547Y5572000D01*
X56287547Y3572000D01*
X56309307Y3351069D01*
X56373750Y3138629D01*
X56478400Y2942843D01*
X56619235Y2771235D01*
X56790843Y2630400D01*
X56986629Y2525750D01*
X57199069Y2461307D01*
X57420000Y2439547D01*
X59420000Y2439547D01*
X59640931Y2461307D01*
X59853371Y2525750D01*
X60049157Y2630400D01*
X60214379Y2765994D01*
X60332488Y2687077D01*
X60719577Y2526739D01*
X61130509Y2445000D01*
X61549491Y2445000D01*
X61960423Y2526739D01*
X62347512Y2687077D01*
X62359370Y2695000D01*
X65877210Y2695000D01*
X66152956Y2722159D01*
X66506772Y2829487D01*
X66683579Y2923992D01*
X66831092Y2968740D01*
X67131112Y3129104D01*
X67394082Y3344918D01*
X67448168Y3410822D01*
X69741179Y5703833D01*
X69807082Y5757918D01*
X70022896Y6020888D01*
X70183260Y6320908D01*
X70282012Y6646449D01*
X70307000Y6900159D01*
X70307000Y6900168D01*
X70315355Y6984999D01*
X70307000Y7069830D01*
X70307000Y25950170D01*
X70315355Y26035001D01*
X70307000Y26119831D01*
X70307000Y41308951D01*
X70538931Y40873668D01*
X71076278Y39553649D01*
X71475095Y38185371D01*
X71731146Y36783367D01*
X71843446Y35340367D01*
X71848001Y34992408D01*
X71848000Y1152000D01*
X10385701Y1152000D01*
X10480808Y1414587D01*
X9525000Y2370395D01*
X8569192Y1414587D01*
X8664299Y1152000D01*
X1152000Y1152000D01*
X1152000Y2487405D01*
X7883282Y2487405D01*
X7927039Y2168325D01*
X8032205Y1863912D01*
X8125186Y1689956D01*
X8389587Y1594192D01*
X9345395Y2550000D01*
X9704605Y2550000D01*
X10660413Y1594192D01*
X10924814Y1689956D01*
X11065704Y1979571D01*
X11081439Y2039587D01*
X13649192Y2039587D01*
X13744956Y1775186D01*
X14034571Y1634296D01*
X14346108Y1552616D01*
X14667595Y1533282D01*
X14986675Y1577039D01*
X15291088Y1682205D01*
X15465044Y1775186D01*
X15560808Y2039587D01*
X14605000Y2995395D01*
X13649192Y2039587D01*
X11081439Y2039587D01*
X11147384Y2291108D01*
X11166718Y2612595D01*
X11122961Y2931675D01*
X11060524Y3112405D01*
X12963282Y3112405D01*
X13007039Y2793325D01*
X13112205Y2488912D01*
X13205186Y2314956D01*
X13469587Y2219192D01*
X14425395Y3175000D01*
X14784605Y3175000D01*
X15740413Y2219192D01*
X16004814Y2314956D01*
X16145704Y2604571D01*
X16227384Y2916108D01*
X16246718Y3237595D01*
X16202961Y3556675D01*
X16197667Y3572000D01*
X17156928Y3572000D01*
X17169188Y3447518D01*
X17205498Y3327820D01*
X17264463Y3217506D01*
X17343815Y3120815D01*
X17440506Y3041463D01*
X17550820Y2982498D01*
X17670518Y2946188D01*
X17795000Y2933928D01*
X18509250Y2937000D01*
X18668000Y3095750D01*
X18668000Y4445000D01*
X18922000Y4445000D01*
X18922000Y3095750D01*
X19080750Y2937000D01*
X19795000Y2933928D01*
X19919482Y2946188D01*
X20039180Y2982498D01*
X20149494Y3041463D01*
X20246185Y3120815D01*
X20325537Y3217506D01*
X20384502Y3327820D01*
X20420812Y3447518D01*
X20433072Y3572000D01*
X20430000Y4286250D01*
X20271250Y4445000D01*
X18922000Y4445000D01*
X18668000Y4445000D01*
X17318750Y4445000D01*
X17160000Y4286250D01*
X17156928Y3572000D01*
X16197667Y3572000D01*
X16097795Y3861088D01*
X16004814Y4035044D01*
X15740413Y4130808D01*
X14784605Y3175000D01*
X14425395Y3175000D01*
X13469587Y4130808D01*
X13205186Y4035044D01*
X13064296Y3745429D01*
X12982616Y3433892D01*
X12963282Y3112405D01*
X11060524Y3112405D01*
X11017795Y3236088D01*
X10924814Y3410044D01*
X10660413Y3505808D01*
X9704605Y2550000D01*
X9345395Y2550000D01*
X8389587Y3505808D01*
X8125186Y3410044D01*
X7984296Y3120429D01*
X7902616Y2808892D01*
X7883282Y2487405D01*
X1152000Y2487405D01*
X1152000Y3685413D01*
X8569192Y3685413D01*
X9525000Y2729605D01*
X10480808Y3685413D01*
X10385044Y3949814D01*
X10095429Y4090704D01*
X9783892Y4172384D01*
X9462405Y4191718D01*
X9143325Y4147961D01*
X8838912Y4042795D01*
X8664956Y3949814D01*
X8569192Y3685413D01*
X1152000Y3685413D01*
X1152000Y9185000D01*
X5201928Y9185000D01*
X5214188Y9060518D01*
X5250498Y8940820D01*
X5309463Y8830506D01*
X5388815Y8733815D01*
X5485506Y8654463D01*
X5595820Y8595498D01*
X5715518Y8559188D01*
X5840000Y8546928D01*
X6304250Y8550000D01*
X6463000Y8708750D01*
X6463000Y10058000D01*
X5363750Y10058000D01*
X5205000Y9899250D01*
X5201928Y9185000D01*
X1152000Y9185000D01*
X1152000Y11185000D01*
X5201928Y11185000D01*
X5205000Y10470750D01*
X5363750Y10312000D01*
X6463000Y10312000D01*
X6463000Y11661250D01*
X6304250Y11820000D01*
X5840000Y11823072D01*
X5715518Y11810812D01*
X5595820Y11774502D01*
X5485506Y11715537D01*
X5388815Y11636185D01*
X5309463Y11539494D01*
X5250498Y11429180D01*
X5214188Y11309482D01*
X5201928Y11185000D01*
X1152000Y11185000D01*
X1152000Y22780776D01*
X7085381Y22780776D01*
X7217317Y22485688D01*
X7558045Y22314841D01*
X7925557Y22213750D01*
X8305729Y22186299D01*
X8683951Y22233543D01*
X9045690Y22353667D01*
X9292683Y22485688D01*
X9424619Y22780776D01*
X8255000Y23950395D01*
X7085381Y22780776D01*
X1152000Y22780776D01*
X1152000Y24079271D01*
X6311299Y24079271D01*
X6358543Y23701049D01*
X6478667Y23339310D01*
X6610688Y23092317D01*
X6905776Y22960381D01*
X8075395Y24130000D01*
X8434605Y24130000D01*
X9604224Y22960381D01*
X9899312Y23092317D01*
X10070159Y23433045D01*
X10171250Y23800557D01*
X10198701Y24180729D01*
X10151457Y24558951D01*
X10031333Y24920690D01*
X9899312Y25167683D01*
X9604224Y25299619D01*
X8434605Y24130000D01*
X8075395Y24130000D01*
X6905776Y25299619D01*
X6610688Y25167683D01*
X6439841Y24826955D01*
X6338750Y24459443D01*
X6311299Y24079271D01*
X1152000Y24079271D01*
X1152000Y25479224D01*
X7085381Y25479224D01*
X8255000Y24309605D01*
X9424619Y25479224D01*
X9292683Y25774312D01*
X8951955Y25945159D01*
X8584443Y26046250D01*
X8204271Y26073701D01*
X7826049Y26026457D01*
X7464310Y25906333D01*
X7217317Y25774312D01*
X7085381Y25479224D01*
X1152000Y25479224D01*
X1152000Y34970345D01*
X1226876Y36423309D01*
X1250027Y36572000D01*
X7446572Y36572000D01*
X7446572Y31768000D01*
X14143429Y31768000D01*
X14143429Y36572000D01*
X7446572Y36572000D01*
X1250027Y36572000D01*
X1446141Y37831548D01*
X1809002Y39209792D01*
X2311609Y40543419D01*
X2948644Y41818326D01*
X3713358Y43021003D01*
X4597644Y44138696D01*
X5592133Y45159568D01*
X6686297Y46072809D01*
X7868546Y46868747D01*
X9126332Y47538931D01*
X10446351Y48076278D01*
X11814629Y48475095D01*
X13216633Y48731146D01*
X14659633Y48843446D01*
X15007516Y48848000D01*
X38774568Y48848000D01*
X38723836Y48786183D01*
G37*
X38723836Y48786183D02*
X34209654Y44272000D01*
X23451302Y44272000D01*
X23390765Y44345765D01*
X23219157Y44486600D01*
X23023371Y44591250D01*
X22810931Y44655693D01*
X22590000Y44677453D01*
X20590000Y44677453D01*
X20369069Y44655693D01*
X20156629Y44591250D01*
X19960843Y44486600D01*
X19947372Y44475545D01*
X19670423Y44590261D01*
X19259491Y44672000D01*
X18840509Y44672000D01*
X18429577Y44590261D01*
X18042488Y44429923D01*
X17694116Y44197149D01*
X17397851Y43900884D01*
X17165077Y43552512D01*
X17004739Y43165423D01*
X16923000Y42754491D01*
X16923000Y42335509D01*
X17004739Y41924577D01*
X17165077Y41537488D01*
X17323001Y41301138D01*
X17323000Y38056302D01*
X17249235Y37995765D01*
X17108400Y37824157D01*
X17003750Y37628371D01*
X16939307Y37415931D01*
X16917547Y37195000D01*
X16917547Y35195000D01*
X16939307Y34974069D01*
X17003750Y34761629D01*
X17108400Y34565843D01*
X17249235Y34394235D01*
X17420843Y34253400D01*
X17616629Y34148750D01*
X17829069Y34084307D01*
X18050000Y34062547D01*
X20050000Y34062547D01*
X20270931Y34084307D01*
X20483371Y34148750D01*
X20679157Y34253400D01*
X20850765Y34394235D01*
X20878001Y34427422D01*
X20878000Y27127703D01*
X20702149Y27390884D01*
X20405884Y27687149D01*
X20057512Y27919923D01*
X19670423Y28080261D01*
X19259491Y28162000D01*
X18840509Y28162000D01*
X18429577Y28080261D01*
X18042488Y27919923D01*
X17806139Y27762000D01*
X15324838Y27762000D01*
X15240000Y27770356D01*
X15155161Y27762000D01*
X15155159Y27762000D01*
X14901449Y27737012D01*
X14575908Y27638260D01*
X14275887Y27477896D01*
X14078818Y27316165D01*
X14012918Y27262082D01*
X13958836Y27196183D01*
X13325106Y26562453D01*
X12035000Y26562453D01*
X11814069Y26540693D01*
X11601629Y26476250D01*
X11405843Y26371600D01*
X11234235Y26230765D01*
X11093400Y26059157D01*
X10988750Y25863371D01*
X10924307Y25650931D01*
X10902547Y25430000D01*
X10902547Y22830000D01*
X10924307Y22609069D01*
X10988750Y22396629D01*
X11093400Y22200843D01*
X11234235Y22029235D01*
X11405843Y21888400D01*
X11601629Y21783750D01*
X11814069Y21719307D01*
X12035000Y21697547D01*
X14635000Y21697547D01*
X14855931Y21719307D01*
X15068371Y21783750D01*
X15264157Y21888400D01*
X15435765Y22029235D01*
X15576600Y22200843D01*
X15681250Y22396629D01*
X15745693Y22609069D01*
X15767453Y22830000D01*
X15767453Y24120106D01*
X15955347Y24308000D01*
X17806139Y24308000D01*
X17864668Y24268892D01*
X17787488Y24236923D01*
X17439116Y24004149D01*
X17142851Y23707884D01*
X16910077Y23359512D01*
X16749739Y22972423D01*
X16668000Y22561491D01*
X16668000Y22142509D01*
X16749739Y21731577D01*
X16910077Y21344488D01*
X17142851Y20996116D01*
X17431781Y20707186D01*
X17401601Y20667382D01*
X17261498Y20379107D01*
X17204876Y20192434D01*
X17324223Y19939000D01*
X18668000Y19939000D01*
X18668000Y19959000D01*
X18922000Y19959000D01*
X18922000Y19939000D01*
X20265777Y19939000D01*
X20385124Y20192434D01*
X20328502Y20379107D01*
X20281898Y20475000D01*
X20897128Y20475000D01*
X20975843Y20410400D01*
X21171629Y20305750D01*
X21384069Y20241307D01*
X21605000Y20219547D01*
X23605000Y20219547D01*
X23825931Y20241307D01*
X24038371Y20305750D01*
X24234157Y20410400D01*
X24405765Y20551235D01*
X24546600Y20722843D01*
X24651250Y20918629D01*
X24715693Y21131069D01*
X24724115Y21216587D01*
X25449192Y21216587D01*
X25544956Y20952186D01*
X25834571Y20811296D01*
X26146108Y20729616D01*
X26467595Y20710282D01*
X26786675Y20754039D01*
X27091088Y20859205D01*
X27265044Y20952186D01*
X27360808Y21216587D01*
X26405000Y22172395D01*
X25449192Y21216587D01*
X24724115Y21216587D01*
X24737453Y21352000D01*
X24737453Y22289405D01*
X24763282Y22289405D01*
X24807039Y21970325D01*
X24912205Y21665912D01*
X25005186Y21491956D01*
X25269587Y21396192D01*
X26225395Y22352000D01*
X26584605Y22352000D01*
X27540413Y21396192D01*
X27804814Y21491956D01*
X27945704Y21781571D01*
X28027384Y22093108D01*
X28046718Y22414595D01*
X28002961Y22733675D01*
X27897795Y23038088D01*
X27804814Y23212044D01*
X27540413Y23307808D01*
X26584605Y22352000D01*
X26225395Y22352000D01*
X25269587Y23307808D01*
X25005186Y23212044D01*
X24864296Y22922429D01*
X24782616Y22610892D01*
X24763282Y22289405D01*
X24737453Y22289405D01*
X24737453Y23352000D01*
X24724116Y23487413D01*
X25449192Y23487413D01*
X26405000Y22531605D01*
X27360808Y23487413D01*
X27265044Y23751814D01*
X26975429Y23892704D01*
X26663892Y23974384D01*
X26342405Y23993718D01*
X26023325Y23949961D01*
X25718912Y23844795D01*
X25544956Y23751814D01*
X25449192Y23487413D01*
X24724116Y23487413D01*
X24715693Y23572931D01*
X24651250Y23785371D01*
X24546600Y23981157D01*
X24405765Y24152765D01*
X24332000Y24213302D01*
X24332000Y26590776D01*
X25500381Y26590776D01*
X25632317Y26295688D01*
X25973045Y26124841D01*
X26340557Y26023750D01*
X26720729Y25996299D01*
X27098951Y26043543D01*
X27460690Y26163667D01*
X27707683Y26295688D01*
X27839619Y26590776D01*
X26670000Y27760395D01*
X25500381Y26590776D01*
X24332000Y26590776D01*
X24332000Y27889271D01*
X24726299Y27889271D01*
X24773543Y27511049D01*
X24893667Y27149310D01*
X25025688Y26902317D01*
X25320776Y26770381D01*
X26490395Y27940000D01*
X26849605Y27940000D01*
X28019224Y26770381D01*
X28314312Y26902317D01*
X28485159Y27243045D01*
X28586250Y27610557D01*
X28613701Y27990729D01*
X28566457Y28368951D01*
X28446333Y28730690D01*
X28314312Y28977683D01*
X28019224Y29109619D01*
X26849605Y27940000D01*
X26490395Y27940000D01*
X25320776Y29109619D01*
X25025688Y28977683D01*
X24854841Y28636955D01*
X24753750Y28269443D01*
X24726299Y27889271D01*
X24332000Y27889271D01*
X24332000Y29289224D01*
X25500381Y29289224D01*
X26670000Y28119605D01*
X27839619Y29289224D01*
X27707683Y29584312D01*
X27366955Y29755159D01*
X26999443Y29856250D01*
X26619271Y29883701D01*
X26241049Y29836457D01*
X25879310Y29716333D01*
X25632317Y29584312D01*
X25500381Y29289224D01*
X24332000Y29289224D01*
X24332000Y40382000D01*
X26575857Y40382000D01*
X26575857Y35578000D01*
X31844143Y35578000D01*
X31844143Y40382000D01*
X26575857Y40382000D01*
X24332000Y40382000D01*
X24332000Y40818000D01*
X34840162Y40818000D01*
X34925000Y40809644D01*
X35009838Y40818000D01*
X35009841Y40818000D01*
X35263551Y40842988D01*
X35589092Y40941740D01*
X35889112Y41102104D01*
X36152082Y41317918D01*
X36206168Y41383822D01*
X36462346Y41640000D01*
X37731928Y41640000D01*
X37735000Y40925750D01*
X37893750Y40767000D01*
X39243000Y40767000D01*
X39243000Y42116250D01*
X39497000Y42116250D01*
X39497000Y40767000D01*
X40846250Y40767000D01*
X41005000Y40925750D01*
X41008072Y41640000D01*
X40995812Y41764482D01*
X40959502Y41884180D01*
X40900537Y41994494D01*
X40821185Y42091185D01*
X40724494Y42170537D01*
X40614180Y42229502D01*
X40494482Y42265812D01*
X40370000Y42278072D01*
X39655750Y42275000D01*
X39497000Y42116250D01*
X39243000Y42116250D01*
X39084250Y42275000D01*
X38370000Y42278072D01*
X38245518Y42265812D01*
X38125820Y42229502D01*
X38015506Y42170537D01*
X37918815Y42091185D01*
X37839463Y41994494D01*
X37780498Y41884180D01*
X37744188Y41764482D01*
X37731928Y41640000D01*
X36462346Y41640000D01*
X40720347Y45898000D01*
X47804083Y45898000D01*
X47632488Y45826923D01*
X47284116Y45594149D01*
X47060284Y45370317D01*
X47046910Y45369000D01*
X47046902Y45369000D01*
X46861474Y45350737D01*
X46837258Y45348352D01*
X46813276Y45341077D01*
X46568269Y45266755D01*
X46447297Y45202094D01*
X46320366Y45134248D01*
X46157525Y45000608D01*
X46157522Y45000605D01*
X46103077Y44955923D01*
X46058395Y44901478D01*
X43490523Y42333605D01*
X43436078Y42288923D01*
X43391396Y42234478D01*
X43391392Y42234474D01*
X43273798Y42091185D01*
X43257753Y42071634D01*
X43125246Y41823731D01*
X43043649Y41554741D01*
X43032017Y41436634D01*
X43016097Y41275000D01*
X43023001Y41204902D01*
X43023001Y40173590D01*
X42754491Y40227000D01*
X42335509Y40227000D01*
X41924577Y40145261D01*
X41537488Y39984923D01*
X41189116Y39752149D01*
X41000545Y39563578D01*
X41008072Y39640000D01*
X41005000Y40354250D01*
X40846250Y40513000D01*
X39497000Y40513000D01*
X39497000Y40493000D01*
X39243000Y40493000D01*
X39243000Y40513000D01*
X37893750Y40513000D01*
X37735000Y40354250D01*
X37731928Y39640000D01*
X37743057Y39527000D01*
X37535087Y39527000D01*
X37464999Y39533903D01*
X37394911Y39527000D01*
X37394902Y39527000D01*
X37185259Y39506352D01*
X36916269Y39424755D01*
X36668366Y39292248D01*
X36451077Y39113923D01*
X36406390Y39059472D01*
X35235523Y37888605D01*
X35181078Y37843923D01*
X35136396Y37789478D01*
X35136392Y37789474D01*
X35032779Y37663221D01*
X35002753Y37626634D01*
X34870246Y37378731D01*
X34788649Y37109741D01*
X34769549Y36915810D01*
X34761097Y36830000D01*
X34768001Y36759903D01*
X34768000Y32341083D01*
X32799371Y30372453D01*
X30450000Y30372453D01*
X30229069Y30350693D01*
X30016629Y30286250D01*
X29820843Y30181600D01*
X29649235Y30040765D01*
X29508400Y29869157D01*
X29403750Y29673371D01*
X29339307Y29460931D01*
X29317547Y29240000D01*
X29317547Y26640000D01*
X29339307Y26419069D01*
X29403750Y26206629D01*
X29508400Y26010843D01*
X29649235Y25839235D01*
X29820843Y25698400D01*
X30016629Y25593750D01*
X30229069Y25529307D01*
X30450000Y25507547D01*
X33050000Y25507547D01*
X33270931Y25529307D01*
X33379635Y25562282D01*
X34462917Y24479000D01*
X34095509Y24479000D01*
X33684577Y24397261D01*
X33297488Y24236923D01*
X32949116Y24004149D01*
X32900000Y23955033D01*
X32850884Y24004149D01*
X32502512Y24236923D01*
X32115423Y24397261D01*
X31704491Y24479000D01*
X31285509Y24479000D01*
X30874577Y24397261D01*
X30487488Y24236923D01*
X30139116Y24004149D01*
X29842851Y23707884D01*
X29610077Y23359512D01*
X29449739Y22972423D01*
X29368000Y22561491D01*
X29368000Y22142509D01*
X29449739Y21731577D01*
X29610077Y21344488D01*
X29785465Y21082000D01*
X29610077Y20819512D01*
X29449739Y20432423D01*
X29368000Y20021491D01*
X29368000Y19602509D01*
X29449739Y19191577D01*
X29610077Y18804488D01*
X29785465Y18542000D01*
X29610077Y18279512D01*
X29449739Y17892423D01*
X29368000Y17481491D01*
X29368000Y17062509D01*
X29449739Y16651577D01*
X29610077Y16264488D01*
X29785465Y16002000D01*
X29610077Y15739512D01*
X29449739Y15352423D01*
X29368000Y14941491D01*
X29368000Y14522509D01*
X29449739Y14111577D01*
X29610077Y13724488D01*
X29785465Y13462000D01*
X29610077Y13199512D01*
X29449739Y12812423D01*
X29368000Y12401491D01*
X29368000Y11982509D01*
X29449739Y11571577D01*
X29610077Y11184488D01*
X29680562Y11079000D01*
X28772087Y11079000D01*
X28701999Y11085903D01*
X28631911Y11079000D01*
X28631902Y11079000D01*
X28422259Y11058352D01*
X28153269Y10976755D01*
X27905366Y10844248D01*
X27688077Y10665923D01*
X27643392Y10611474D01*
X26472523Y9440605D01*
X26418077Y9395922D01*
X26373395Y9341477D01*
X26373392Y9341474D01*
X26311541Y9266108D01*
X26239752Y9178633D01*
X26107245Y8930730D01*
X26025648Y8661740D01*
X26013559Y8539000D01*
X20609438Y8539000D01*
X20679923Y8644488D01*
X20840261Y9031577D01*
X20922000Y9442509D01*
X20922000Y9861491D01*
X20840261Y10272423D01*
X20679923Y10659512D01*
X20504535Y10922000D01*
X20679923Y11184488D01*
X20840261Y11571577D01*
X20922000Y11982509D01*
X20922000Y12401491D01*
X20840261Y12812423D01*
X20679923Y13199512D01*
X20504535Y13462000D01*
X20679923Y13724488D01*
X20840261Y14111577D01*
X20922000Y14522509D01*
X20922000Y14941491D01*
X20840261Y15352423D01*
X20679923Y15739512D01*
X20504535Y16002000D01*
X20679923Y16264488D01*
X20840261Y16651577D01*
X20922000Y17062509D01*
X20922000Y17481491D01*
X20840261Y17892423D01*
X20679923Y18279512D01*
X20447149Y18627884D01*
X20158219Y18916814D01*
X20188399Y18956618D01*
X20328502Y19244893D01*
X20385124Y19431566D01*
X20265777Y19685000D01*
X18922000Y19685000D01*
X18922000Y19665000D01*
X18668000Y19665000D01*
X18668000Y19685000D01*
X17324223Y19685000D01*
X17204876Y19431566D01*
X17261498Y19244893D01*
X17401601Y18956618D01*
X17431781Y18916814D01*
X17142851Y18627884D01*
X17105511Y18572000D01*
X16186033Y18572000D01*
X15960884Y18797149D01*
X15612512Y19029923D01*
X15225423Y19190261D01*
X14814491Y19272000D01*
X14395509Y19272000D01*
X13984577Y19190261D01*
X13597488Y19029923D01*
X13408069Y18903358D01*
X13389755Y18963731D01*
X13257248Y19211634D01*
X13228143Y19247098D01*
X13123608Y19374474D01*
X13123605Y19374477D01*
X13078922Y19428923D01*
X13024477Y19473605D01*
X12488610Y20009472D01*
X12443923Y20063923D01*
X12226634Y20242248D01*
X11978731Y20374755D01*
X11709741Y20456352D01*
X11500098Y20477000D01*
X11500088Y20477000D01*
X11430000Y20483903D01*
X11359912Y20477000D01*
X5391033Y20477000D01*
X5165884Y20702149D01*
X4817512Y20934923D01*
X4430423Y21095261D01*
X4019491Y21177000D01*
X3600509Y21177000D01*
X3189577Y21095261D01*
X2802488Y20934923D01*
X2454116Y20702149D01*
X2157851Y20405884D01*
X1925077Y20057512D01*
X1764739Y19670423D01*
X1683000Y19259491D01*
X1683000Y18840509D01*
X1764739Y18429577D01*
X1925077Y18042488D01*
X2157851Y17694116D01*
X2454116Y17397851D01*
X2802488Y17165077D01*
X3189577Y17004739D01*
X3600509Y16923000D01*
X4019491Y16923000D01*
X4430423Y17004739D01*
X4817512Y17165077D01*
X5165884Y17397851D01*
X5391033Y17623000D01*
X5871139Y17623000D01*
X5857547Y17485000D01*
X5857547Y15485000D01*
X5879307Y15264069D01*
X5943750Y15051629D01*
X6048400Y14855843D01*
X6189235Y14684235D01*
X6360843Y14543400D01*
X6556629Y14438750D01*
X6769069Y14374307D01*
X6990000Y14352547D01*
X7463000Y14352547D01*
X7463001Y12087337D01*
X7339235Y11985765D01*
X7204983Y11822179D01*
X6875750Y11820000D01*
X6717000Y11661250D01*
X6717000Y10312000D01*
X6737000Y10312000D01*
X6737000Y10058000D01*
X6717000Y10058000D01*
X6717000Y8708750D01*
X6875750Y8550000D01*
X7204983Y8547821D01*
X7339235Y8384235D01*
X7463001Y8282663D01*
X7463001Y7731453D01*
X7414307Y7570931D01*
X7392547Y7350000D01*
X7392547Y5350000D01*
X7414307Y5129069D01*
X7478750Y4916629D01*
X7583400Y4720843D01*
X7724235Y4549235D01*
X7895843Y4408400D01*
X8091629Y4303750D01*
X8304069Y4239307D01*
X8525000Y4217547D01*
X10525000Y4217547D01*
X10745931Y4239307D01*
X10958371Y4303750D01*
X10970836Y4310413D01*
X13649192Y4310413D01*
X14605000Y3354605D01*
X15560808Y4310413D01*
X15465044Y4574814D01*
X15175429Y4715704D01*
X14863892Y4797384D01*
X14542405Y4816718D01*
X14223325Y4772961D01*
X13918912Y4667795D01*
X13744956Y4574814D01*
X13649192Y4310413D01*
X10970836Y4310413D01*
X11154157Y4408400D01*
X11325765Y4549235D01*
X11466600Y4720843D01*
X11571250Y4916629D01*
X11573183Y4923000D01*
X15169912Y4923000D01*
X15240000Y4916097D01*
X15310088Y4923000D01*
X15310098Y4923000D01*
X15519741Y4943648D01*
X15788731Y5025245D01*
X16036634Y5157752D01*
X16253923Y5336077D01*
X16298610Y5390528D01*
X16593082Y5685000D01*
X17168057Y5685000D01*
X17156928Y5572000D01*
X17160000Y4857750D01*
X17318750Y4699000D01*
X18668000Y4699000D01*
X18668000Y4719000D01*
X18922000Y4719000D01*
X18922000Y4699000D01*
X20271250Y4699000D01*
X20430000Y4857750D01*
X20433072Y5572000D01*
X20421943Y5685000D01*
X26005000Y5685000D01*
X26005001Y3753097D01*
X25998097Y3683000D01*
X26005001Y3612902D01*
X26019703Y3463634D01*
X26025649Y3403259D01*
X26107246Y3134269D01*
X26239753Y2886366D01*
X26373392Y2723526D01*
X26373396Y2723522D01*
X26418078Y2669077D01*
X26472522Y2624395D01*
X27389395Y1707522D01*
X27434077Y1653077D01*
X27488522Y1608395D01*
X27488525Y1608392D01*
X27580047Y1533282D01*
X27651366Y1474752D01*
X27899269Y1342245D01*
X28168259Y1260648D01*
X28377902Y1240000D01*
X28377912Y1240000D01*
X28448000Y1233097D01*
X28518088Y1240000D01*
X46664903Y1240000D01*
X46735000Y1233096D01*
X46805098Y1240000D01*
X50221912Y1240000D01*
X50292000Y1233097D01*
X50362088Y1240000D01*
X50362098Y1240000D01*
X50571741Y1260648D01*
X50840731Y1342245D01*
X51088634Y1474752D01*
X51305923Y1653077D01*
X51350610Y1707528D01*
X53079669Y3436587D01*
X53664192Y3436587D01*
X53759956Y3172186D01*
X54049571Y3031296D01*
X54361108Y2949616D01*
X54682595Y2930282D01*
X55001675Y2974039D01*
X55306088Y3079205D01*
X55480044Y3172186D01*
X55575808Y3436587D01*
X54620000Y4392395D01*
X53664192Y3436587D01*
X53079669Y3436587D01*
X53319182Y3676100D01*
X53484587Y3616192D01*
X54440395Y4572000D01*
X54799605Y4572000D01*
X55755413Y3616192D01*
X56019814Y3711956D01*
X56160704Y4001571D01*
X56242384Y4313108D01*
X56261718Y4634595D01*
X56217961Y4953675D01*
X56112795Y5258088D01*
X56019814Y5432044D01*
X55755413Y5527808D01*
X54799605Y4572000D01*
X54440395Y4572000D01*
X54426253Y4586142D01*
X54605858Y4765747D01*
X54620000Y4751605D01*
X55575808Y5707413D01*
X55480044Y5971814D01*
X55190429Y6112704D01*
X54878892Y6194384D01*
X54557405Y6213718D01*
X54238325Y6169961D01*
X54132000Y6133229D01*
X54132000Y16644587D01*
X54669192Y16644587D01*
X54764956Y16380186D01*
X55054571Y16239296D01*
X55366108Y16157616D01*
X55687595Y16138282D01*
X56006675Y16182039D01*
X56311088Y16287205D01*
X56485044Y16380186D01*
X56580808Y16644587D01*
X55625000Y17600395D01*
X54669192Y16644587D01*
X54132000Y16644587D01*
X54132000Y17094505D01*
X54132205Y17093912D01*
X54225186Y16919956D01*
X54489587Y16824192D01*
X55445395Y17780000D01*
X55431253Y17794142D01*
X55610858Y17973747D01*
X55625000Y17959605D01*
X55639143Y17973747D01*
X55818748Y17794142D01*
X55804605Y17780000D01*
X56760413Y16824192D01*
X57024814Y16919956D01*
X57165704Y17209571D01*
X57247384Y17521108D01*
X57266718Y17842595D01*
X57222961Y18161675D01*
X57145809Y18385000D01*
X59525562Y18385000D01*
X59455077Y18279512D01*
X59294739Y17892423D01*
X59213000Y17481491D01*
X59213000Y17062509D01*
X59294739Y16651577D01*
X59455077Y16264488D01*
X59630465Y16002000D01*
X59455077Y15739512D01*
X59294739Y15352423D01*
X59213000Y14941491D01*
X59213000Y14522509D01*
X59294739Y14111577D01*
X59455077Y13724488D01*
X59630465Y13462000D01*
X59455077Y13199512D01*
X59294739Y12812423D01*
X59213000Y12401491D01*
X59213000Y11982509D01*
X59294739Y11571577D01*
X59455077Y11184488D01*
X59630465Y10922000D01*
X59455077Y10659512D01*
X59294739Y10272423D01*
X59213000Y9861491D01*
X59213000Y9442509D01*
X59294739Y9031577D01*
X59455077Y8644488D01*
X59687851Y8296116D01*
X59976781Y8007186D01*
X59946601Y7967382D01*
X59806498Y7679107D01*
X59749876Y7492434D01*
X59869223Y7239000D01*
X61213000Y7239000D01*
X61213000Y7259000D01*
X61467000Y7259000D01*
X61467000Y7239000D01*
X62810777Y7239000D01*
X62930124Y7492434D01*
X62873502Y7679107D01*
X62733399Y7967382D01*
X62703219Y8007186D01*
X62921033Y8225000D01*
X63715511Y8225000D01*
X63752851Y8169116D01*
X64049116Y7872851D01*
X64397488Y7640077D01*
X64784577Y7479739D01*
X65195509Y7398000D01*
X65614491Y7398000D01*
X66025423Y7479739D01*
X66412512Y7640077D01*
X66760884Y7872851D01*
X66853000Y7964967D01*
X66853000Y7700346D01*
X65601654Y6449000D01*
X62826898Y6449000D01*
X62873502Y6544893D01*
X62930124Y6731566D01*
X62810777Y6985000D01*
X61467000Y6985000D01*
X61467000Y6965000D01*
X61213000Y6965000D01*
X61213000Y6985000D01*
X59869223Y6985000D01*
X59749876Y6731566D01*
X59777243Y6641343D01*
X59640931Y6682693D01*
X59420000Y6704453D01*
X57420000Y6704453D01*
X57199069Y6682693D01*
X56986629Y6618250D01*
X56790843Y6513600D01*
X56619235Y6372765D01*
X56478400Y6201157D01*
X56373750Y6005371D01*
X56309307Y5792931D01*
X56287547Y5572000D01*
X56287547Y3572000D01*
X56309307Y3351069D01*
X56373750Y3138629D01*
X56478400Y2942843D01*
X56619235Y2771235D01*
X56790843Y2630400D01*
X56986629Y2525750D01*
X57199069Y2461307D01*
X57420000Y2439547D01*
X59420000Y2439547D01*
X59640931Y2461307D01*
X59853371Y2525750D01*
X60049157Y2630400D01*
X60214379Y2765994D01*
X60332488Y2687077D01*
X60719577Y2526739D01*
X61130509Y2445000D01*
X61549491Y2445000D01*
X61960423Y2526739D01*
X62347512Y2687077D01*
X62359370Y2695000D01*
X65877210Y2695000D01*
X66152956Y2722159D01*
X66506772Y2829487D01*
X66683579Y2923992D01*
X66831092Y2968740D01*
X67131112Y3129104D01*
X67394082Y3344918D01*
X67448168Y3410822D01*
X69741179Y5703833D01*
X69807082Y5757918D01*
X70022896Y6020888D01*
X70183260Y6320908D01*
X70282012Y6646449D01*
X70307000Y6900159D01*
X70307000Y6900168D01*
X70315355Y6984999D01*
X70307000Y7069830D01*
X70307000Y25950170D01*
X70315355Y26035001D01*
X70307000Y26119831D01*
X70307000Y41308951D01*
X70538931Y40873668D01*
X71076278Y39553649D01*
X71475095Y38185371D01*
X71731146Y36783367D01*
X71843446Y35340367D01*
X71848001Y34992408D01*
X71848000Y1152000D01*
X10385701Y1152000D01*
X10480808Y1414587D01*
X9525000Y2370395D01*
X8569192Y1414587D01*
X8664299Y1152000D01*
X1152000Y1152000D01*
X1152000Y2487405D01*
X7883282Y2487405D01*
X7927039Y2168325D01*
X8032205Y1863912D01*
X8125186Y1689956D01*
X8389587Y1594192D01*
X9345395Y2550000D01*
X9704605Y2550000D01*
X10660413Y1594192D01*
X10924814Y1689956D01*
X11065704Y1979571D01*
X11081439Y2039587D01*
X13649192Y2039587D01*
X13744956Y1775186D01*
X14034571Y1634296D01*
X14346108Y1552616D01*
X14667595Y1533282D01*
X14986675Y1577039D01*
X15291088Y1682205D01*
X15465044Y1775186D01*
X15560808Y2039587D01*
X14605000Y2995395D01*
X13649192Y2039587D01*
X11081439Y2039587D01*
X11147384Y2291108D01*
X11166718Y2612595D01*
X11122961Y2931675D01*
X11060524Y3112405D01*
X12963282Y3112405D01*
X13007039Y2793325D01*
X13112205Y2488912D01*
X13205186Y2314956D01*
X13469587Y2219192D01*
X14425395Y3175000D01*
X14784605Y3175000D01*
X15740413Y2219192D01*
X16004814Y2314956D01*
X16145704Y2604571D01*
X16227384Y2916108D01*
X16246718Y3237595D01*
X16202961Y3556675D01*
X16197667Y3572000D01*
X17156928Y3572000D01*
X17169188Y3447518D01*
X17205498Y3327820D01*
X17264463Y3217506D01*
X17343815Y3120815D01*
X17440506Y3041463D01*
X17550820Y2982498D01*
X17670518Y2946188D01*
X17795000Y2933928D01*
X18509250Y2937000D01*
X18668000Y3095750D01*
X18668000Y4445000D01*
X18922000Y4445000D01*
X18922000Y3095750D01*
X19080750Y2937000D01*
X19795000Y2933928D01*
X19919482Y2946188D01*
X20039180Y2982498D01*
X20149494Y3041463D01*
X20246185Y3120815D01*
X20325537Y3217506D01*
X20384502Y3327820D01*
X20420812Y3447518D01*
X20433072Y3572000D01*
X20430000Y4286250D01*
X20271250Y4445000D01*
X18922000Y4445000D01*
X18668000Y4445000D01*
X17318750Y4445000D01*
X17160000Y4286250D01*
X17156928Y3572000D01*
X16197667Y3572000D01*
X16097795Y3861088D01*
X16004814Y4035044D01*
X15740413Y4130808D01*
X14784605Y3175000D01*
X14425395Y3175000D01*
X13469587Y4130808D01*
X13205186Y4035044D01*
X13064296Y3745429D01*
X12982616Y3433892D01*
X12963282Y3112405D01*
X11060524Y3112405D01*
X11017795Y3236088D01*
X10924814Y3410044D01*
X10660413Y3505808D01*
X9704605Y2550000D01*
X9345395Y2550000D01*
X8389587Y3505808D01*
X8125186Y3410044D01*
X7984296Y3120429D01*
X7902616Y2808892D01*
X7883282Y2487405D01*
X1152000Y2487405D01*
X1152000Y3685413D01*
X8569192Y3685413D01*
X9525000Y2729605D01*
X10480808Y3685413D01*
X10385044Y3949814D01*
X10095429Y4090704D01*
X9783892Y4172384D01*
X9462405Y4191718D01*
X9143325Y4147961D01*
X8838912Y4042795D01*
X8664956Y3949814D01*
X8569192Y3685413D01*
X1152000Y3685413D01*
X1152000Y9185000D01*
X5201928Y9185000D01*
X5214188Y9060518D01*
X5250498Y8940820D01*
X5309463Y8830506D01*
X5388815Y8733815D01*
X5485506Y8654463D01*
X5595820Y8595498D01*
X5715518Y8559188D01*
X5840000Y8546928D01*
X6304250Y8550000D01*
X6463000Y8708750D01*
X6463000Y10058000D01*
X5363750Y10058000D01*
X5205000Y9899250D01*
X5201928Y9185000D01*
X1152000Y9185000D01*
X1152000Y11185000D01*
X5201928Y11185000D01*
X5205000Y10470750D01*
X5363750Y10312000D01*
X6463000Y10312000D01*
X6463000Y11661250D01*
X6304250Y11820000D01*
X5840000Y11823072D01*
X5715518Y11810812D01*
X5595820Y11774502D01*
X5485506Y11715537D01*
X5388815Y11636185D01*
X5309463Y11539494D01*
X5250498Y11429180D01*
X5214188Y11309482D01*
X5201928Y11185000D01*
X1152000Y11185000D01*
X1152000Y22780776D01*
X7085381Y22780776D01*
X7217317Y22485688D01*
X7558045Y22314841D01*
X7925557Y22213750D01*
X8305729Y22186299D01*
X8683951Y22233543D01*
X9045690Y22353667D01*
X9292683Y22485688D01*
X9424619Y22780776D01*
X8255000Y23950395D01*
X7085381Y22780776D01*
X1152000Y22780776D01*
X1152000Y24079271D01*
X6311299Y24079271D01*
X6358543Y23701049D01*
X6478667Y23339310D01*
X6610688Y23092317D01*
X6905776Y22960381D01*
X8075395Y24130000D01*
X8434605Y24130000D01*
X9604224Y22960381D01*
X9899312Y23092317D01*
X10070159Y23433045D01*
X10171250Y23800557D01*
X10198701Y24180729D01*
X10151457Y24558951D01*
X10031333Y24920690D01*
X9899312Y25167683D01*
X9604224Y25299619D01*
X8434605Y24130000D01*
X8075395Y24130000D01*
X6905776Y25299619D01*
X6610688Y25167683D01*
X6439841Y24826955D01*
X6338750Y24459443D01*
X6311299Y24079271D01*
X1152000Y24079271D01*
X1152000Y25479224D01*
X7085381Y25479224D01*
X8255000Y24309605D01*
X9424619Y25479224D01*
X9292683Y25774312D01*
X8951955Y25945159D01*
X8584443Y26046250D01*
X8204271Y26073701D01*
X7826049Y26026457D01*
X7464310Y25906333D01*
X7217317Y25774312D01*
X7085381Y25479224D01*
X1152000Y25479224D01*
X1152000Y34970345D01*
X1226876Y36423309D01*
X1250027Y36572000D01*
X7446572Y36572000D01*
X7446572Y31768000D01*
X14143429Y31768000D01*
X14143429Y36572000D01*
X7446572Y36572000D01*
X1250027Y36572000D01*
X1446141Y37831548D01*
X1809002Y39209792D01*
X2311609Y40543419D01*
X2948644Y41818326D01*
X3713358Y43021003D01*
X4597644Y44138696D01*
X5592133Y45159568D01*
X6686297Y46072809D01*
X7868546Y46868747D01*
X9126332Y47538931D01*
X10446351Y48076278D01*
X11814629Y48475095D01*
X13216633Y48731146D01*
X14659633Y48843446D01*
X15007516Y48848000D01*
X38774568Y48848000D01*
X38723836Y48786183D01*
G36*
X46755077Y18279512D02*
G01*
X46594739Y17892423D01*
X46513000Y17481491D01*
X46513000Y17062509D01*
X46594739Y16651577D01*
X46755077Y16264488D01*
X46930465Y16002000D01*
X46755077Y15739512D01*
X46594739Y15352423D01*
X46513000Y14941491D01*
X46513000Y14522509D01*
X46594739Y14111577D01*
X46755077Y13724488D01*
X46930465Y13462000D01*
X46755077Y13199512D01*
X46594739Y12812423D01*
X46513000Y12401491D01*
X46513000Y11982509D01*
X46594739Y11571577D01*
X46755077Y11184488D01*
X46930465Y10922000D01*
X46755077Y10659512D01*
X46594739Y10272423D01*
X46513000Y9861491D01*
X46513000Y9442509D01*
X46594739Y9031577D01*
X46755077Y8644488D01*
X46825562Y8539000D01*
X46805097Y8539000D01*
X46735000Y8545904D01*
X46664902Y8539000D01*
X46455259Y8518352D01*
X46186269Y8436755D01*
X45938366Y8304248D01*
X45721077Y8125923D01*
X45542752Y7908634D01*
X45410245Y7660731D01*
X45328648Y7391741D01*
X45301096Y7112000D01*
X45308000Y7041902D01*
X45308001Y4094000D01*
X35845082Y4094000D01*
X39582478Y7831395D01*
X39636923Y7876077D01*
X39681605Y7930522D01*
X39681608Y7930525D01*
X39815247Y8093365D01*
X39832256Y8125186D01*
X39947755Y8341269D01*
X39962412Y8389587D01*
X41589192Y8389587D01*
X41684956Y8125186D01*
X41974571Y7984296D01*
X42286108Y7902616D01*
X42607595Y7883282D01*
X42926675Y7927039D01*
X43231088Y8032205D01*
X43405044Y8125186D01*
X43500808Y8389587D01*
X42545000Y9345395D01*
X41589192Y8389587D01*
X39962412Y8389587D01*
X40029352Y8610259D01*
X40050000Y8819902D01*
X40050000Y8819911D01*
X40056903Y8889999D01*
X40050000Y8960087D01*
X40050000Y9462405D01*
X40903282Y9462405D01*
X40947039Y9143325D01*
X41052205Y8838912D01*
X41145186Y8664956D01*
X41409587Y8569192D01*
X42365395Y9525000D01*
X42724605Y9525000D01*
X43680413Y8569192D01*
X43944814Y8664956D01*
X44085704Y8954571D01*
X44167384Y9266108D01*
X44186718Y9587595D01*
X44142961Y9906675D01*
X44037795Y10211088D01*
X43944814Y10385044D01*
X43680413Y10480808D01*
X42724605Y9525000D01*
X42365395Y9525000D01*
X41409587Y10480808D01*
X41145186Y10385044D01*
X41004296Y10095429D01*
X40922616Y9783892D01*
X40903282Y9462405D01*
X40050000Y9462405D01*
X40050000Y10660413D01*
X41589192Y10660413D01*
X42545000Y9704605D01*
X43500808Y10660413D01*
X43405044Y10924814D01*
X43115429Y11065704D01*
X42803892Y11147384D01*
X42482405Y11166718D01*
X42163325Y11122961D01*
X41858912Y11017795D01*
X41684956Y10924814D01*
X41589192Y10660413D01*
X40050000Y10660413D01*
X40050000Y15563967D01*
X40275149Y15789116D01*
X40345315Y15894127D01*
X40345525Y15893917D01*
X40461193Y16009585D01*
X40556956Y15745186D01*
X40846571Y15604296D01*
X41158108Y15522616D01*
X41479595Y15503282D01*
X41798675Y15547039D01*
X42103088Y15652205D01*
X42277044Y15745186D01*
X42372808Y16009587D01*
X41417000Y16965395D01*
X41402858Y16951252D01*
X41223253Y17130857D01*
X41237395Y17145000D01*
X41223253Y17159142D01*
X41402858Y17338747D01*
X41417000Y17324605D01*
X41431143Y17338747D01*
X41610748Y17159142D01*
X41596605Y17145000D01*
X42552413Y16189192D01*
X42816814Y16284956D01*
X42957704Y16574571D01*
X43039384Y16886108D01*
X43058718Y17207595D01*
X43014961Y17526675D01*
X42909795Y17831088D01*
X42816814Y18005044D01*
X42761339Y18025137D01*
X42772884Y18032851D01*
X43069149Y18329116D01*
X43106489Y18385000D01*
X46825562Y18385000D01*
X46755077Y18279512D01*
G37*
X46755077Y18279512D02*
X46594739Y17892423D01*
X46513000Y17481491D01*
X46513000Y17062509D01*
X46594739Y16651577D01*
X46755077Y16264488D01*
X46930465Y16002000D01*
X46755077Y15739512D01*
X46594739Y15352423D01*
X46513000Y14941491D01*
X46513000Y14522509D01*
X46594739Y14111577D01*
X46755077Y13724488D01*
X46930465Y13462000D01*
X46755077Y13199512D01*
X46594739Y12812423D01*
X46513000Y12401491D01*
X46513000Y11982509D01*
X46594739Y11571577D01*
X46755077Y11184488D01*
X46930465Y10922000D01*
X46755077Y10659512D01*
X46594739Y10272423D01*
X46513000Y9861491D01*
X46513000Y9442509D01*
X46594739Y9031577D01*
X46755077Y8644488D01*
X46825562Y8539000D01*
X46805097Y8539000D01*
X46735000Y8545904D01*
X46664902Y8539000D01*
X46455259Y8518352D01*
X46186269Y8436755D01*
X45938366Y8304248D01*
X45721077Y8125923D01*
X45542752Y7908634D01*
X45410245Y7660731D01*
X45328648Y7391741D01*
X45301096Y7112000D01*
X45308000Y7041902D01*
X45308001Y4094000D01*
X35845082Y4094000D01*
X39582478Y7831395D01*
X39636923Y7876077D01*
X39681605Y7930522D01*
X39681608Y7930525D01*
X39815247Y8093365D01*
X39832256Y8125186D01*
X39947755Y8341269D01*
X39962412Y8389587D01*
X41589192Y8389587D01*
X41684956Y8125186D01*
X41974571Y7984296D01*
X42286108Y7902616D01*
X42607595Y7883282D01*
X42926675Y7927039D01*
X43231088Y8032205D01*
X43405044Y8125186D01*
X43500808Y8389587D01*
X42545000Y9345395D01*
X41589192Y8389587D01*
X39962412Y8389587D01*
X40029352Y8610259D01*
X40050000Y8819902D01*
X40050000Y8819911D01*
X40056903Y8889999D01*
X40050000Y8960087D01*
X40050000Y9462405D01*
X40903282Y9462405D01*
X40947039Y9143325D01*
X41052205Y8838912D01*
X41145186Y8664956D01*
X41409587Y8569192D01*
X42365395Y9525000D01*
X42724605Y9525000D01*
X43680413Y8569192D01*
X43944814Y8664956D01*
X44085704Y8954571D01*
X44167384Y9266108D01*
X44186718Y9587595D01*
X44142961Y9906675D01*
X44037795Y10211088D01*
X43944814Y10385044D01*
X43680413Y10480808D01*
X42724605Y9525000D01*
X42365395Y9525000D01*
X41409587Y10480808D01*
X41145186Y10385044D01*
X41004296Y10095429D01*
X40922616Y9783892D01*
X40903282Y9462405D01*
X40050000Y9462405D01*
X40050000Y10660413D01*
X41589192Y10660413D01*
X42545000Y9704605D01*
X43500808Y10660413D01*
X43405044Y10924814D01*
X43115429Y11065704D01*
X42803892Y11147384D01*
X42482405Y11166718D01*
X42163325Y11122961D01*
X41858912Y11017795D01*
X41684956Y10924814D01*
X41589192Y10660413D01*
X40050000Y10660413D01*
X40050000Y15563967D01*
X40275149Y15789116D01*
X40345315Y15894127D01*
X40345525Y15893917D01*
X40461193Y16009585D01*
X40556956Y15745186D01*
X40846571Y15604296D01*
X41158108Y15522616D01*
X41479595Y15503282D01*
X41798675Y15547039D01*
X42103088Y15652205D01*
X42277044Y15745186D01*
X42372808Y16009587D01*
X41417000Y16965395D01*
X41402858Y16951252D01*
X41223253Y17130857D01*
X41237395Y17145000D01*
X41223253Y17159142D01*
X41402858Y17338747D01*
X41417000Y17324605D01*
X41431143Y17338747D01*
X41610748Y17159142D01*
X41596605Y17145000D01*
X42552413Y16189192D01*
X42816814Y16284956D01*
X42957704Y16574571D01*
X43039384Y16886108D01*
X43058718Y17207595D01*
X43014961Y17526675D01*
X42909795Y17831088D01*
X42816814Y18005044D01*
X42761339Y18025137D01*
X42772884Y18032851D01*
X43069149Y18329116D01*
X43106489Y18385000D01*
X46825562Y18385000D01*
X46755077Y18279512D01*
G36*
X59705000Y44227750D02*
G01*
X59863750Y44069000D01*
X61213000Y44069000D01*
X61213000Y44089000D01*
X61467000Y44089000D01*
X61467000Y44069000D01*
X61487000Y44069000D01*
X61487000Y43815000D01*
X61467000Y43815000D01*
X61467000Y43795000D01*
X61213000Y43795000D01*
X61213000Y43815000D01*
X59863750Y43815000D01*
X59705000Y43656250D01*
X59701928Y42942000D01*
X59714188Y42817518D01*
X59721938Y42791971D01*
X59687851Y42757884D01*
X59455077Y42409512D01*
X59294739Y42022423D01*
X59213000Y41611491D01*
X59213000Y41192509D01*
X59294739Y40781577D01*
X59455077Y40394488D01*
X59630465Y40132000D01*
X59455077Y39869512D01*
X59294739Y39482423D01*
X59213000Y39071491D01*
X59213000Y38652509D01*
X59294739Y38241577D01*
X59455077Y37854488D01*
X59630465Y37592000D01*
X59455077Y37329512D01*
X59294739Y36942423D01*
X59213000Y36531491D01*
X59213000Y36112509D01*
X59294739Y35701577D01*
X59455077Y35314488D01*
X59630465Y35052000D01*
X59455077Y34789512D01*
X59294739Y34402423D01*
X59213000Y33991491D01*
X59213000Y33572509D01*
X59294739Y33161577D01*
X59455077Y32774488D01*
X59630465Y32512000D01*
X59455077Y32249512D01*
X59294739Y31862423D01*
X59213000Y31451491D01*
X59213000Y31032509D01*
X59294739Y30621577D01*
X59455077Y30234488D01*
X59687851Y29886116D01*
X59976781Y29597186D01*
X59946601Y29557382D01*
X59806498Y29269107D01*
X59749876Y29082434D01*
X59869223Y28829000D01*
X61213000Y28829000D01*
X61213000Y28849000D01*
X61467000Y28849000D01*
X61467000Y28829000D01*
X62810777Y28829000D01*
X62930124Y29082434D01*
X62873502Y29269107D01*
X62733399Y29557382D01*
X62703219Y29597186D01*
X62921033Y29815000D01*
X63715511Y29815000D01*
X63752851Y29759116D01*
X64049116Y29462851D01*
X64397488Y29230077D01*
X64784577Y29069739D01*
X65195509Y28988000D01*
X65614491Y28988000D01*
X66025423Y29069739D01*
X66412512Y29230077D01*
X66760884Y29462851D01*
X66853000Y29554967D01*
X66853000Y27889000D01*
X62753997Y27889000D01*
X62873502Y28134893D01*
X62930124Y28321566D01*
X62810777Y28575000D01*
X61467000Y28575000D01*
X61467000Y28555000D01*
X61213000Y28555000D01*
X61213000Y28575000D01*
X59869223Y28575000D01*
X59749876Y28321566D01*
X59806498Y28134893D01*
X59926003Y27889000D01*
X59391302Y27889000D01*
X59330765Y27962765D01*
X59159157Y28103600D01*
X58963371Y28208250D01*
X58750931Y28272693D01*
X58530000Y28294453D01*
X56530000Y28294453D01*
X56309069Y28272693D01*
X56096629Y28208250D01*
X55900843Y28103600D01*
X55729235Y27962765D01*
X55588400Y27791157D01*
X55483750Y27595371D01*
X55419307Y27382931D01*
X55397547Y27162000D01*
X55397547Y25162000D01*
X55419307Y24941069D01*
X55483750Y24728629D01*
X55538878Y24625492D01*
X55243325Y24584961D01*
X54938912Y24479795D01*
X54764956Y24386814D01*
X54669192Y24122413D01*
X55625000Y23166605D01*
X55639143Y23180747D01*
X55818748Y23001142D01*
X55804605Y22987000D01*
X56760413Y22031192D01*
X57024814Y22126956D01*
X57165704Y22416571D01*
X57247384Y22728108D01*
X57266718Y23049595D01*
X57225248Y23352000D01*
X59701928Y23352000D01*
X59705000Y22637750D01*
X59863750Y22479000D01*
X61213000Y22479000D01*
X61213000Y23828250D01*
X61467000Y23828250D01*
X61467000Y22479000D01*
X62816250Y22479000D01*
X62975000Y22637750D01*
X62978072Y23352000D01*
X62965812Y23476482D01*
X62929502Y23596180D01*
X62870537Y23706494D01*
X62791185Y23803185D01*
X62694494Y23882537D01*
X62584180Y23941502D01*
X62464482Y23977812D01*
X62340000Y23990072D01*
X61625750Y23987000D01*
X61467000Y23828250D01*
X61213000Y23828250D01*
X61054250Y23987000D01*
X60340000Y23990072D01*
X60215518Y23977812D01*
X60095820Y23941502D01*
X59985506Y23882537D01*
X59888815Y23803185D01*
X59809463Y23706494D01*
X59750498Y23596180D01*
X59714188Y23476482D01*
X59701928Y23352000D01*
X57225248Y23352000D01*
X57222961Y23368675D01*
X57117795Y23673088D01*
X57024814Y23847044D01*
X56760415Y23942807D01*
X56847155Y24029547D01*
X58530000Y24029547D01*
X58750931Y24051307D01*
X58963371Y24115750D01*
X59159157Y24220400D01*
X59330765Y24361235D01*
X59391302Y24435000D01*
X60096139Y24435000D01*
X60332488Y24277077D01*
X60719577Y24116739D01*
X61130509Y24035000D01*
X61549491Y24035000D01*
X61960423Y24116739D01*
X62347512Y24277077D01*
X62583861Y24435000D01*
X66853001Y24435000D01*
X66853001Y19183430D01*
X66838371Y19191250D01*
X66625931Y19255693D01*
X66405000Y19277453D01*
X64405000Y19277453D01*
X64184069Y19255693D01*
X63971629Y19191250D01*
X63775843Y19086600D01*
X63604235Y18945765D01*
X63463400Y18774157D01*
X63358750Y18578371D01*
X63356817Y18572000D01*
X63069580Y18572000D01*
X63224923Y18804488D01*
X63385261Y19191577D01*
X63467000Y19602509D01*
X63467000Y20021491D01*
X63385261Y20432423D01*
X63224923Y20819512D01*
X62992149Y21167884D01*
X62958062Y21201971D01*
X62965812Y21227518D01*
X62978072Y21352000D01*
X62975000Y22066250D01*
X62816250Y22225000D01*
X61467000Y22225000D01*
X61467000Y22205000D01*
X61213000Y22205000D01*
X61213000Y22225000D01*
X59863750Y22225000D01*
X59705000Y22066250D01*
X59701928Y21352000D01*
X59713057Y21239000D01*
X54132000Y21239000D01*
X54132000Y21851587D01*
X54669192Y21851587D01*
X54764956Y21587186D01*
X55054571Y21446296D01*
X55366108Y21364616D01*
X55687595Y21345282D01*
X56006675Y21389039D01*
X56311088Y21494205D01*
X56485044Y21587186D01*
X56580808Y21851587D01*
X55625000Y22807395D01*
X54669192Y21851587D01*
X54132000Y21851587D01*
X54132000Y22301505D01*
X54132205Y22300912D01*
X54225186Y22126956D01*
X54489587Y22031192D01*
X55445395Y22987000D01*
X54489587Y23942808D01*
X54225186Y23847044D01*
X54132000Y23655490D01*
X54132000Y24059913D01*
X54138903Y24130001D01*
X54132000Y24200089D01*
X54132000Y24200098D01*
X54111352Y24409741D01*
X54066429Y24557834D01*
X54111675Y24564039D01*
X54416088Y24669205D01*
X54590044Y24762186D01*
X54685808Y25026587D01*
X53730000Y25982395D01*
X53715858Y25968252D01*
X53536253Y26147857D01*
X53550395Y26162000D01*
X53909605Y26162000D01*
X54865413Y25206192D01*
X55129814Y25301956D01*
X55270704Y25591571D01*
X55352384Y25903108D01*
X55371718Y26224595D01*
X55327961Y26543675D01*
X55222795Y26848088D01*
X55129814Y27022044D01*
X54865413Y27117808D01*
X53909605Y26162000D01*
X53550395Y26162000D01*
X53536253Y26176142D01*
X53715858Y26355747D01*
X53730000Y26341605D01*
X54685808Y27297413D01*
X54590044Y27561814D01*
X54300429Y27702704D01*
X53988892Y27784384D01*
X53667405Y27803718D01*
X53348325Y27759961D01*
X53242000Y27723229D01*
X53242000Y36504912D01*
X53248903Y36574999D01*
X53242000Y36645087D01*
X53242000Y37888918D01*
X59704468Y44351385D01*
X59705000Y44227750D01*
G37*
X59705000Y44227750D02*
X59863750Y44069000D01*
X61213000Y44069000D01*
X61213000Y44089000D01*
X61467000Y44089000D01*
X61467000Y44069000D01*
X61487000Y44069000D01*
X61487000Y43815000D01*
X61467000Y43815000D01*
X61467000Y43795000D01*
X61213000Y43795000D01*
X61213000Y43815000D01*
X59863750Y43815000D01*
X59705000Y43656250D01*
X59701928Y42942000D01*
X59714188Y42817518D01*
X59721938Y42791971D01*
X59687851Y42757884D01*
X59455077Y42409512D01*
X59294739Y42022423D01*
X59213000Y41611491D01*
X59213000Y41192509D01*
X59294739Y40781577D01*
X59455077Y40394488D01*
X59630465Y40132000D01*
X59455077Y39869512D01*
X59294739Y39482423D01*
X59213000Y39071491D01*
X59213000Y38652509D01*
X59294739Y38241577D01*
X59455077Y37854488D01*
X59630465Y37592000D01*
X59455077Y37329512D01*
X59294739Y36942423D01*
X59213000Y36531491D01*
X59213000Y36112509D01*
X59294739Y35701577D01*
X59455077Y35314488D01*
X59630465Y35052000D01*
X59455077Y34789512D01*
X59294739Y34402423D01*
X59213000Y33991491D01*
X59213000Y33572509D01*
X59294739Y33161577D01*
X59455077Y32774488D01*
X59630465Y32512000D01*
X59455077Y32249512D01*
X59294739Y31862423D01*
X59213000Y31451491D01*
X59213000Y31032509D01*
X59294739Y30621577D01*
X59455077Y30234488D01*
X59687851Y29886116D01*
X59976781Y29597186D01*
X59946601Y29557382D01*
X59806498Y29269107D01*
X59749876Y29082434D01*
X59869223Y28829000D01*
X61213000Y28829000D01*
X61213000Y28849000D01*
X61467000Y28849000D01*
X61467000Y28829000D01*
X62810777Y28829000D01*
X62930124Y29082434D01*
X62873502Y29269107D01*
X62733399Y29557382D01*
X62703219Y29597186D01*
X62921033Y29815000D01*
X63715511Y29815000D01*
X63752851Y29759116D01*
X64049116Y29462851D01*
X64397488Y29230077D01*
X64784577Y29069739D01*
X65195509Y28988000D01*
X65614491Y28988000D01*
X66025423Y29069739D01*
X66412512Y29230077D01*
X66760884Y29462851D01*
X66853000Y29554967D01*
X66853000Y27889000D01*
X62753997Y27889000D01*
X62873502Y28134893D01*
X62930124Y28321566D01*
X62810777Y28575000D01*
X61467000Y28575000D01*
X61467000Y28555000D01*
X61213000Y28555000D01*
X61213000Y28575000D01*
X59869223Y28575000D01*
X59749876Y28321566D01*
X59806498Y28134893D01*
X59926003Y27889000D01*
X59391302Y27889000D01*
X59330765Y27962765D01*
X59159157Y28103600D01*
X58963371Y28208250D01*
X58750931Y28272693D01*
X58530000Y28294453D01*
X56530000Y28294453D01*
X56309069Y28272693D01*
X56096629Y28208250D01*
X55900843Y28103600D01*
X55729235Y27962765D01*
X55588400Y27791157D01*
X55483750Y27595371D01*
X55419307Y27382931D01*
X55397547Y27162000D01*
X55397547Y25162000D01*
X55419307Y24941069D01*
X55483750Y24728629D01*
X55538878Y24625492D01*
X55243325Y24584961D01*
X54938912Y24479795D01*
X54764956Y24386814D01*
X54669192Y24122413D01*
X55625000Y23166605D01*
X55639143Y23180747D01*
X55818748Y23001142D01*
X55804605Y22987000D01*
X56760413Y22031192D01*
X57024814Y22126956D01*
X57165704Y22416571D01*
X57247384Y22728108D01*
X57266718Y23049595D01*
X57225248Y23352000D01*
X59701928Y23352000D01*
X59705000Y22637750D01*
X59863750Y22479000D01*
X61213000Y22479000D01*
X61213000Y23828250D01*
X61467000Y23828250D01*
X61467000Y22479000D01*
X62816250Y22479000D01*
X62975000Y22637750D01*
X62978072Y23352000D01*
X62965812Y23476482D01*
X62929502Y23596180D01*
X62870537Y23706494D01*
X62791185Y23803185D01*
X62694494Y23882537D01*
X62584180Y23941502D01*
X62464482Y23977812D01*
X62340000Y23990072D01*
X61625750Y23987000D01*
X61467000Y23828250D01*
X61213000Y23828250D01*
X61054250Y23987000D01*
X60340000Y23990072D01*
X60215518Y23977812D01*
X60095820Y23941502D01*
X59985506Y23882537D01*
X59888815Y23803185D01*
X59809463Y23706494D01*
X59750498Y23596180D01*
X59714188Y23476482D01*
X59701928Y23352000D01*
X57225248Y23352000D01*
X57222961Y23368675D01*
X57117795Y23673088D01*
X57024814Y23847044D01*
X56760415Y23942807D01*
X56847155Y24029547D01*
X58530000Y24029547D01*
X58750931Y24051307D01*
X58963371Y24115750D01*
X59159157Y24220400D01*
X59330765Y24361235D01*
X59391302Y24435000D01*
X60096139Y24435000D01*
X60332488Y24277077D01*
X60719577Y24116739D01*
X61130509Y24035000D01*
X61549491Y24035000D01*
X61960423Y24116739D01*
X62347512Y24277077D01*
X62583861Y24435000D01*
X66853001Y24435000D01*
X66853001Y19183430D01*
X66838371Y19191250D01*
X66625931Y19255693D01*
X66405000Y19277453D01*
X64405000Y19277453D01*
X64184069Y19255693D01*
X63971629Y19191250D01*
X63775843Y19086600D01*
X63604235Y18945765D01*
X63463400Y18774157D01*
X63358750Y18578371D01*
X63356817Y18572000D01*
X63069580Y18572000D01*
X63224923Y18804488D01*
X63385261Y19191577D01*
X63467000Y19602509D01*
X63467000Y20021491D01*
X63385261Y20432423D01*
X63224923Y20819512D01*
X62992149Y21167884D01*
X62958062Y21201971D01*
X62965812Y21227518D01*
X62978072Y21352000D01*
X62975000Y22066250D01*
X62816250Y22225000D01*
X61467000Y22225000D01*
X61467000Y22205000D01*
X61213000Y22205000D01*
X61213000Y22225000D01*
X59863750Y22225000D01*
X59705000Y22066250D01*
X59701928Y21352000D01*
X59713057Y21239000D01*
X54132000Y21239000D01*
X54132000Y21851587D01*
X54669192Y21851587D01*
X54764956Y21587186D01*
X55054571Y21446296D01*
X55366108Y21364616D01*
X55687595Y21345282D01*
X56006675Y21389039D01*
X56311088Y21494205D01*
X56485044Y21587186D01*
X56580808Y21851587D01*
X55625000Y22807395D01*
X54669192Y21851587D01*
X54132000Y21851587D01*
X54132000Y22301505D01*
X54132205Y22300912D01*
X54225186Y22126956D01*
X54489587Y22031192D01*
X55445395Y22987000D01*
X54489587Y23942808D01*
X54225186Y23847044D01*
X54132000Y23655490D01*
X54132000Y24059913D01*
X54138903Y24130001D01*
X54132000Y24200089D01*
X54132000Y24200098D01*
X54111352Y24409741D01*
X54066429Y24557834D01*
X54111675Y24564039D01*
X54416088Y24669205D01*
X54590044Y24762186D01*
X54685808Y25026587D01*
X53730000Y25982395D01*
X53715858Y25968252D01*
X53536253Y26147857D01*
X53550395Y26162000D01*
X53909605Y26162000D01*
X54865413Y25206192D01*
X55129814Y25301956D01*
X55270704Y25591571D01*
X55352384Y25903108D01*
X55371718Y26224595D01*
X55327961Y26543675D01*
X55222795Y26848088D01*
X55129814Y27022044D01*
X54865413Y27117808D01*
X53909605Y26162000D01*
X53550395Y26162000D01*
X53536253Y26176142D01*
X53715858Y26355747D01*
X53730000Y26341605D01*
X54685808Y27297413D01*
X54590044Y27561814D01*
X54300429Y27702704D01*
X53988892Y27784384D01*
X53667405Y27803718D01*
X53348325Y27759961D01*
X53242000Y27723229D01*
X53242000Y36504912D01*
X53248903Y36574999D01*
X53242000Y36645087D01*
X53242000Y37888918D01*
X59704468Y44351385D01*
X59705000Y44227750D01*
M02*
