M48
; DRILL file {KiCad 5.1.6-c6e7f7d~87~ubuntu20.04.1} date Tue Oct 20 13:41:24 2020
; FORMAT={-:-/ absolute / metric / decimal}
; #@! TF.CreationDate,2020-10-20T13:41:24+02:00
; #@! TF.GenerationSoftware,Kicad,Pcbnew,5.1.6-c6e7f7d~87~ubuntu20.04.1
FMAT,2
METRIC
T1C1.000
T2C1.300
%
G90
G05
T1
X9.525Y6.35
X9.525Y2.55
X55.625Y22.987
X42.545Y38.1
X54.62Y4.572
X58.42Y4.572
X22.605Y22.352
X26.405Y22.352
X38.623Y27.305
X38.623Y24.765
X38.623Y22.225
X38.623Y19.685
X38.623Y17.145
X41.417Y27.305
X41.417Y24.765
X41.417Y22.225
X41.417Y19.685
X41.417Y17.145
X19.05Y42.545
X21.59Y42.545
X48.64Y22.352
X48.64Y19.812
X48.64Y17.272
X48.64Y14.732
X48.64Y12.192
X48.64Y9.652
X48.64Y7.112
X48.64Y4.572
X61.34Y22.352
X61.34Y19.812
X61.34Y17.272
X61.34Y14.732
X61.34Y12.192
X61.34Y9.652
X61.34Y7.112
X61.34Y4.572
X39.37Y40.64
X39.37Y38.1
X39.37Y35.56
X53.73Y26.162
X57.53Y26.162
X65.405Y38.735
X65.405Y36.195
X65.405Y33.655
X65.405Y31.115
X45.735Y26.162
X18.795Y22.352
X18.795Y19.812
X18.795Y17.272
X18.795Y14.732
X18.795Y12.192
X18.795Y9.652
X18.795Y7.112
X18.795Y4.572
X31.495Y22.352
X31.495Y19.812
X31.495Y17.272
X31.495Y14.732
X31.495Y12.192
X31.495Y9.652
X31.495Y7.112
X31.495Y4.572
X14.605Y17.145
X14.605Y14.605
X14.605Y12.065
X14.605Y9.525
X19.05Y36.195
X19.05Y26.035
X14.605Y3.175
X42.545Y9.525
X55.625Y17.78
X48.64Y43.942
X48.64Y41.402
X48.64Y38.862
X48.64Y36.322
X48.64Y33.782
X48.64Y31.242
X48.64Y28.702
X48.64Y26.162
X61.34Y43.942
X61.34Y41.402
X61.34Y38.862
X61.34Y36.322
X61.34Y33.782
X61.34Y31.242
X61.34Y28.702
X61.34Y26.162
X65.405Y17.145
X65.405Y14.605
X65.405Y12.065
X65.405Y9.525
X34.305Y22.352
X3.81Y19.05
T2
X26.67Y27.94
X31.75Y27.94
X8.255Y24.13
X13.335Y24.13
T0
M30
