solid OpenSCAD_Model
  facet normal -1 0 0
    outer loop
      vertex 0 0 0
      vertex 0 0 2
      vertex 0 37.5 0
    endloop
  endfacet
  facet normal -1 0 0
    outer loop
      vertex 0 37.5 0
      vertex 0 0 2
      vertex 0 37.5 2
    endloop
  endfacet
  facet normal 0 -1 0
    outer loop
      vertex 0 0 2
      vertex 0 0 0
      vertex 14.8028 0 0
    endloop
  endfacet
  facet normal 0 -1 0
    outer loop
      vertex 14.8028 0 2
      vertex 0 0 2
      vertex 14.8028 0 0
    endloop
  endfacet
  facet normal 0 0 -1
    outer loop
      vertex 0 0 0
      vertex 0 37.5 0
      vertex 14.8028 0 0
    endloop
  endfacet
  facet normal 0 0 -1
    outer loop
      vertex 22.294 8.88144 0
      vertex 0 37.5 0
      vertex 47.5 37.5 0
    endloop
  endfacet
  facet normal 0 0 -1
    outer loop
      vertex 32.75 0 0
      vertex 47.5 37.5 0
      vertex 47.5 0 0
    endloop
  endfacet
  facet normal 0 0 -1
    outer loop
      vertex 32.5396 1.93473 0
      vertex 47.5 37.5 0
      vertex 32.75 0 0
    endloop
  endfacet
  facet normal 0 0 -1
    outer loop
      vertex 31.9182 3.779 0
      vertex 47.5 37.5 0
      vertex 32.5396 1.93473 0
    endloop
  endfacet
  facet normal 0 0 -1
    outer loop
      vertex 30.9148 5.44657 0
      vertex 47.5 37.5 0
      vertex 31.9182 3.779 0
    endloop
  endfacet
  facet normal 0 0 -1
    outer loop
      vertex 29.5765 6.85946 0
      vertex 47.5 37.5 0
      vertex 30.9148 5.44657 0
    endloop
  endfacet
  facet normal 0 0 -1
    outer loop
      vertex 27.9657 7.95161 0
      vertex 47.5 37.5 0
      vertex 29.5765 6.85946 0
    endloop
  endfacet
  facet normal 0 0 -1
    outer loop
      vertex 26.1578 8.67195 0
      vertex 47.5 37.5 0
      vertex 27.9657 7.95161 0
    endloop
  endfacet
  facet normal 0 0 -1
    outer loop
      vertex 24.2372 8.9868 0
      vertex 47.5 37.5 0
      vertex 26.1578 8.67195 0
    endloop
  endfacet
  facet normal 0 0 -1
    outer loop
      vertex 20.4188 8.36079 0
      vertex 0 37.5 0
      vertex 22.294 8.88144 0
    endloop
  endfacet
  facet normal 0 0 -1
    outer loop
      vertex 18.6993 7.4492 0
      vertex 0 37.5 0
      vertex 20.4188 8.36079 0
    endloop
  endfacet
  facet normal 0 0 -1
    outer loop
      vertex 17.216 6.18929 0
      vertex 0 37.5 0
      vertex 18.6993 7.4492 0
    endloop
  endfacet
  facet normal 0 0 -1
    outer loop
      vertex 16.0383 4.63998 0
      vertex 0 37.5 0
      vertex 17.216 6.18929 0
    endloop
  endfacet
  facet normal 0 0 -1
    outer loop
      vertex 15.2211 2.87371 0
      vertex 0 37.5 0
      vertex 16.0383 4.63998 0
    endloop
  endfacet
  facet normal 0 0 -1
    outer loop
      vertex 14.8028 0.973071 0
      vertex 0 37.5 0
      vertex 15.2211 2.87371 0
    endloop
  endfacet
  facet normal 0 0 -1
    outer loop
      vertex 14.8028 0 0
      vertex 0 37.5 0
      vertex 14.8028 0.973071 0
    endloop
  endfacet
  facet normal 0 0 -1
    outer loop
      vertex 22.294 8.88144 0
      vertex 47.5 37.5 0
      vertex 24.2372 8.9868 0
    endloop
  endfacet
  facet normal 0 1 0
    outer loop
      vertex 0 37.5 0
      vertex 0 37.5 2
      vertex 47.5 37.5 0
    endloop
  endfacet
  facet normal 0 1 0
    outer loop
      vertex 47.5 37.5 0
      vertex 0 37.5 2
      vertex 47.5 37.5 2
    endloop
  endfacet
  facet normal 0 0 1
    outer loop
      vertex 0 37.5 2
      vertex 0 0 2
      vertex 14.8028 0 2
    endloop
  endfacet
  facet normal 0 0 1
    outer loop
      vertex 15.2211 2.87371 2
      vertex 0 37.5 2
      vertex 14.8028 0.973071 2
    endloop
  endfacet
  facet normal 0 0 1
    outer loop
      vertex 14.8028 0.973071 2
      vertex 0 37.5 2
      vertex 14.8028 0 2
    endloop
  endfacet
  facet normal 0 0 1
    outer loop
      vertex 16.0383 4.63998 2
      vertex 0 37.5 2
      vertex 15.2211 2.87371 2
    endloop
  endfacet
  facet normal 0 0 1
    outer loop
      vertex 17.216 6.18929 2
      vertex 0 37.5 2
      vertex 16.0383 4.63998 2
    endloop
  endfacet
  facet normal 0 0 1
    outer loop
      vertex 18.6993 7.4492 2
      vertex 0 37.5 2
      vertex 17.216 6.18929 2
    endloop
  endfacet
  facet normal 0 0 1
    outer loop
      vertex 20.4188 8.36079 2
      vertex 0 37.5 2
      vertex 18.6993 7.4492 2
    endloop
  endfacet
  facet normal 0 0 1
    outer loop
      vertex 22.294 8.88144 2
      vertex 0 37.5 2
      vertex 20.4188 8.36079 2
    endloop
  endfacet
  facet normal 0 0 1
    outer loop
      vertex 24.2372 8.9868 2
      vertex 0 37.5 2
      vertex 22.294 8.88144 2
    endloop
  endfacet
  facet normal 0 0 1
    outer loop
      vertex 26.1578 8.67195 2
      vertex 0 37.5 2
      vertex 24.2372 8.9868 2
    endloop
  endfacet
  facet normal 0 0 1
    outer loop
      vertex 27.9657 7.95161 2
      vertex 0 37.5 2
      vertex 26.1578 8.67195 2
    endloop
  endfacet
  facet normal 0 0 1
    outer loop
      vertex 29.5765 6.85946 2
      vertex 0 37.5 2
      vertex 27.9657 7.95161 2
    endloop
  endfacet
  facet normal 0 0 1
    outer loop
      vertex 47.5 0 2
      vertex 0 37.5 2
      vertex 29.5765 6.85946 2
    endloop
  endfacet
  facet normal 0 0 1
    outer loop
      vertex 47.5 0 2
      vertex 29.5765 6.85946 2
      vertex 30.9148 5.44657 2
    endloop
  endfacet
  facet normal 0 0 1
    outer loop
      vertex 47.5 0 2
      vertex 30.9148 5.44657 2
      vertex 31.9182 3.779 2
    endloop
  endfacet
  facet normal 0 0 1
    outer loop
      vertex 47.5 0 2
      vertex 31.9182 3.779 2
      vertex 32.5396 1.93473 2
    endloop
  endfacet
  facet normal 0 0 1
    outer loop
      vertex 47.5 0 2
      vertex 32.5396 1.93473 2
      vertex 32.75 0 2
    endloop
  endfacet
  facet normal 0 0 1
    outer loop
      vertex 47.5 37.5 2
      vertex 0 37.5 2
      vertex 47.5 0 2
    endloop
  endfacet
  facet normal 1 0 0
    outer loop
      vertex 14.8028 0.973071 0
      vertex 14.8028 0.973071 2
      vertex 14.8028 0 2
    endloop
  endfacet
  facet normal 1 0 0
    outer loop
      vertex 14.8028 0 0
      vertex 14.8028 0.973071 0
      vertex 14.8028 0 2
    endloop
  endfacet
  facet normal 0.976621 -0.21497 0
    outer loop
      vertex 15.2211 2.87371 0
      vertex 15.2211 2.87371 2
      vertex 14.8028 0.973071 2
    endloop
  endfacet
  facet normal 0.976621 -0.21497 0
    outer loop
      vertex 14.8028 0.973071 0
      vertex 15.2211 2.87371 0
      vertex 14.8028 0.973071 2
    endloop
  endfacet
  facet normal 0.907575 -0.419889 0
    outer loop
      vertex 16.0383 4.63998 0
      vertex 16.0383 4.63998 2
      vertex 15.2211 2.87371 2
    endloop
  endfacet
  facet normal 0.907575 -0.419889 0
    outer loop
      vertex 15.2211 2.87371 0
      vertex 16.0383 4.63998 0
      vertex 15.2211 2.87371 2
    endloop
  endfacet
  facet normal 0.796093 -0.605175 0
    outer loop
      vertex 17.216 6.18929 0
      vertex 17.216 6.18929 2
      vertex 16.0383 4.63998 2
    endloop
  endfacet
  facet normal 0.796093 -0.605175 0
    outer loop
      vertex 16.0383 4.63998 0
      vertex 17.216 6.18929 0
      vertex 16.0383 4.63998 2
    endloop
  endfacet
  facet normal 0.647387 -0.762162 0
    outer loop
      vertex 18.6993 7.4492 0
      vertex 18.6993 7.4492 2
      vertex 17.216 6.18929 2
    endloop
  endfacet
  facet normal 0.647387 -0.762162 0
    outer loop
      vertex 17.216 6.18929 0
      vertex 18.6993 7.4492 0
      vertex 17.216 6.18929 2
    endloop
  endfacet
  facet normal 0.468408 -0.883512 0
    outer loop
      vertex 20.4188 8.36079 0
      vertex 20.4188 8.36079 2
      vertex 18.6993 7.4492 2
    endloop
  endfacet
  facet normal 0.468408 -0.883512 0
    outer loop
      vertex 18.6993 7.4492 0
      vertex 20.4188 8.36079 0
      vertex 18.6993 7.4492 2
    endloop
  endfacet
  facet normal 0.267529 -0.96355 0
    outer loop
      vertex 22.294 8.88144 0
      vertex 22.294 8.88144 2
      vertex 20.4188 8.36079 2
    endloop
  endfacet
  facet normal 0.267529 -0.96355 0
    outer loop
      vertex 20.4188 8.36079 0
      vertex 22.294 8.88144 0
      vertex 20.4188 8.36079 2
    endloop
  endfacet
  facet normal 0.0541389 -0.998533 0
    outer loop
      vertex 24.2372 8.9868 0
      vertex 24.2372 8.9868 2
      vertex 22.294 8.88144 2
    endloop
  endfacet
  facet normal 0.0541389 -0.998533 0
    outer loop
      vertex 22.294 8.88144 0
      vertex 24.2372 8.9868 0
      vertex 22.294 8.88144 2
    endloop
  endfacet
  facet normal -0.161782 -0.986827 0
    outer loop
      vertex 26.1578 8.67195 0
      vertex 26.1578 8.67195 2
      vertex 24.2372 8.9868 2
    endloop
  endfacet
  facet normal -0.161782 -0.986827 0
    outer loop
      vertex 24.2372 8.9868 0
      vertex 26.1578 8.67195 0
      vertex 24.2372 8.9868 2
    endloop
  endfacet
  facet normal -0.370138 -0.928977 0
    outer loop
      vertex 27.9657 7.95161 0
      vertex 27.9657 7.95161 2
      vertex 26.1578 8.67195 2
    endloop
  endfacet
  facet normal -0.370138 -0.928977 0
    outer loop
      vertex 26.1578 8.67195 0
      vertex 27.9657 7.95161 0
      vertex 26.1578 8.67195 2
    endloop
  endfacet
  facet normal -0.561187 -0.827689 0
    outer loop
      vertex 29.5765 6.85946 0
      vertex 29.5765 6.85946 2
      vertex 27.9657 7.95161 2
    endloop
  endfacet
  facet normal -0.561187 -0.827689 0
    outer loop
      vertex 27.9657 7.95161 0
      vertex 29.5765 6.85946 0
      vertex 27.9657 7.95161 2
    endloop
  endfacet
  facet normal -0.725995 -0.6877 0
    outer loop
      vertex 30.9148 5.44657 2
      vertex 29.5765 6.85946 2
      vertex 30.9148 5.44657 0
    endloop
  endfacet
  facet normal -0.725995 -0.6877 0
    outer loop
      vertex 30.9148 5.44657 0
      vertex 29.5765 6.85946 2
      vertex 29.5765 6.85946 0
    endloop
  endfacet
  facet normal -0.856857 -0.515554 0
    outer loop
      vertex 31.9182 3.779 2
      vertex 30.9148 5.44657 2
      vertex 31.9182 3.779 0
    endloop
  endfacet
  facet normal -0.856857 -0.515554 0
    outer loop
      vertex 31.9182 3.779 0
      vertex 30.9148 5.44657 2
      vertex 30.9148 5.44657 0
    endloop
  endfacet
  facet normal -0.947653 -0.319301 0
    outer loop
      vertex 32.5396 1.93473 2
      vertex 31.9182 3.779 2
      vertex 32.5396 1.93473 0
    endloop
  endfacet
  facet normal -0.947653 -0.319301 0
    outer loop
      vertex 32.5396 1.93473 0
      vertex 31.9182 3.779 2
      vertex 31.9182 3.779 0
    endloop
  endfacet
  facet normal -0.994138 -0.108119 0
    outer loop
      vertex 32.75 0 2
      vertex 32.5396 1.93473 2
      vertex 32.75 0 0
    endloop
  endfacet
  facet normal -0.994138 -0.108119 0
    outer loop
      vertex 32.75 0 0
      vertex 32.5396 1.93473 2
      vertex 32.5396 1.93473 0
    endloop
  endfacet
  facet normal 0 -1 0
    outer loop
      vertex 32.75 0 2
      vertex 32.75 0 0
      vertex 47.5 0 0
    endloop
  endfacet
  facet normal 0 -1 0
    outer loop
      vertex 47.5 0 2
      vertex 32.75 0 2
      vertex 47.5 0 0
    endloop
  endfacet
  facet normal 1 0 0
    outer loop
      vertex 47.5 0 2
      vertex 47.5 0 0
      vertex 47.5 37.5 0
    endloop
  endfacet
  facet normal 1 0 0
    outer loop
      vertex 47.5 37.5 2
      vertex 47.5 0 2
      vertex 47.5 37.5 0
    endloop
  endfacet
endsolid OpenSCAD_Model
