%TF.GenerationSoftware,KiCad,Pcbnew,5.1.6-c6e7f7d~87~ubuntu20.04.1*%
%TF.CreationDate,2020-10-17T15:00:57+02:00*%
%TF.ProjectId,cnc_shield_mcu,636e635f-7368-4696-956c-645f6d63752e,rev?*%
%TF.SameCoordinates,PX6dac2c0PY7270e00*%
%TF.FileFunction,Copper,L1,Top*%
%TF.FilePolarity,Positive*%
%FSLAX46Y46*%
G04 Gerber Fmt 4.6, Leading zero omitted, Abs format (unit mm)*
G04 Created by KiCad (PCBNEW 5.1.6-c6e7f7d~87~ubuntu20.04.1) date 2020-10-17 15:00:58*
%MOMM*%
%LPD*%
G01*
G04 APERTURE LIST*
%TA.AperFunction,NonConductor*%
%ADD10C,0.500000*%
%TD*%
%TA.AperFunction,ComponentPad*%
%ADD11C,2.000000*%
%TD*%
%TA.AperFunction,ComponentPad*%
%ADD12R,1.524000X1.524000*%
%TD*%
%TA.AperFunction,Conductor*%
%ADD13C,0.600000*%
%TD*%
%TA.AperFunction,Conductor*%
%ADD14C,0.254000*%
%TD*%
G04 APERTURE END LIST*
D10*
X26694285Y48632858D02*
X26694285Y46204286D01*
X26837142Y45918572D01*
X26980000Y45775715D01*
X27265714Y45632858D01*
X27837142Y45632858D01*
X28122857Y45775715D01*
X28265714Y45918572D01*
X28408571Y46204286D01*
X28408571Y48632858D01*
X29694285Y45775715D02*
X30122857Y45632858D01*
X30837142Y45632858D01*
X31122857Y45775715D01*
X31265714Y45918572D01*
X31408571Y46204286D01*
X31408571Y46490000D01*
X31265714Y46775715D01*
X31122857Y46918572D01*
X30837142Y47061429D01*
X30265714Y47204286D01*
X29980000Y47347143D01*
X29837142Y47490000D01*
X29694285Y47775715D01*
X29694285Y48061429D01*
X29837142Y48347143D01*
X29980000Y48490000D01*
X30265714Y48632858D01*
X30980000Y48632858D01*
X31408571Y48490000D01*
X33694285Y47204286D02*
X34122857Y47061429D01*
X34265714Y46918572D01*
X34408571Y46632858D01*
X34408571Y46204286D01*
X34265714Y45918572D01*
X34122857Y45775715D01*
X33837142Y45632858D01*
X32694285Y45632858D01*
X32694285Y48632858D01*
X33694285Y48632858D01*
X33980000Y48490000D01*
X34122857Y48347143D01*
X34265714Y48061429D01*
X34265714Y47775715D01*
X34122857Y47490000D01*
X33980000Y47347143D01*
X33694285Y47204286D01*
X32694285Y47204286D01*
D11*
%TO.P,,1*%
%TO.N,+5V*%
X46355000Y34290000D03*
%TD*%
%TO.P,,1*%
%TO.N,GND*%
X55340000Y10795000D03*
%TD*%
%TO.P,,1*%
%TO.N,GND*%
X55340000Y19050000D03*
%TD*%
D12*
%TO.P,U1,1*%
%TO.N,Net-(U1-Pad1)*%
X17875000Y6350000D03*
D11*
%TO.P,U1,2*%
%TO.N,Net-(U1-Pad2)*%
X17875000Y8890000D03*
%TO.P,U1,3*%
%TO.N,Net-(U1-Pad3)*%
X17875000Y11430000D03*
%TO.P,U1,4*%
%TO.N,Net-(U1-Pad4)*%
X17875000Y13970000D03*
%TO.P,U1,5*%
%TO.N,Net-(U1-Pad5)*%
X17875000Y16510000D03*
%TO.P,U1,6*%
%TO.N,Net-(U1-Pad6)*%
X17875000Y19050000D03*
%TO.P,U1,7*%
%TO.N,Net-(U1-Pad7)*%
X17875000Y21590000D03*
%TO.P,U1,8*%
%TO.N,Net-(U1-Pad8)*%
X17875000Y24130000D03*
%TO.P,U1,9*%
%TO.N,SERVO_Z*%
X17875000Y26670000D03*
%TO.P,U1,10*%
%TO.N,C_DIR*%
X17875000Y29210000D03*
%TO.P,U1,11*%
%TO.N,Net-(U1-Pad11)*%
X17875000Y31750000D03*
%TO.P,U1,12*%
%TO.N,Net-(U1-Pad12)*%
X17875000Y34290000D03*
%TO.P,U1,13*%
%TO.N,C_STEP*%
X17875000Y36830000D03*
%TO.P,U1,14*%
%TO.N,GND*%
X17875000Y39370000D03*
%TO.P,U1,15*%
%TO.N,+5V*%
X17875000Y41910000D03*
%TO.P,U1,16*%
%TO.N,Net-(U1-Pad16)*%
X43275000Y41910000D03*
%TO.P,U1,17*%
%TO.N,GND*%
X43275000Y39370000D03*
%TO.P,U1,18*%
%TO.N,Net-(U1-Pad18)*%
X43275000Y36830000D03*
%TO.P,U1,19*%
%TO.N,Net-(U1-Pad19)*%
X43275000Y34290000D03*
%TO.P,U1,20*%
%TO.N,ENABLE*%
X43275000Y31750000D03*
%TO.P,U1,21*%
%TO.N,A_STEP*%
X43275000Y29210000D03*
%TO.P,U1,22*%
%TO.N,A_DIR*%
X43275000Y26670000D03*
%TO.P,U1,23*%
%TO.N,Net-(U1-Pad23)*%
X43275000Y24130000D03*
%TO.P,U1,24*%
%TO.N,Net-(U1-Pad24)*%
X43275000Y21590000D03*
%TO.P,U1,25*%
%TO.N,Net-(U1-Pad25)*%
X43275000Y19050000D03*
%TO.P,U1,26*%
%TO.N,B_STEP*%
X43275000Y16510000D03*
%TO.P,U1,27*%
%TO.N,Net-(U1-Pad27)*%
X43275000Y13970000D03*
%TO.P,U1,28*%
%TO.N,Net-(U1-Pad28)*%
X43275000Y11430000D03*
%TO.P,U1,29*%
%TO.N,B_DIR*%
X43275000Y8890000D03*
%TO.P,U1,30*%
%TO.N,Net-(U1-Pad30)*%
X43275000Y6350000D03*
%TD*%
%TO.P,J1,10*%
%TO.N,C_DIR*%
X55372000Y36830000D03*
%TO.P,J1,9*%
%TO.N,SERVO_Z*%
X52578000Y36830000D03*
%TO.P,J1,8*%
%TO.N,C_STEP*%
X55372000Y34290000D03*
%TO.P,J1,7*%
%TO.N,+5V*%
X52578000Y34290000D03*
%TO.P,J1,6*%
%TO.N,B_DIR*%
X55372000Y31750000D03*
%TO.P,J1,5*%
%TO.N,ENABLE*%
X52578000Y31750000D03*
%TO.P,J1,4*%
%TO.N,B_STEP*%
X55372000Y29210000D03*
%TO.P,J1,3*%
%TO.N,A_STEP*%
X52578000Y29210000D03*
%TO.P,J1,2*%
%TO.N,GND*%
X55372000Y26670000D03*
%TO.P,J1,1*%
%TO.N,A_DIR*%
X52578000Y26670000D03*
%TD*%
D13*
%TO.N,C_DIR*%
X48482000Y45085000D02*
X40735000Y45085000D01*
X24860000Y29210000D02*
X17875000Y29210000D01*
X40735000Y45085000D02*
X24860000Y29210000D01*
X55372000Y36830000D02*
X55372000Y38608000D01*
X48895000Y45085000D02*
X48482000Y45085000D01*
X55372000Y38608000D02*
X48895000Y45085000D01*
%TO.N,SERVO_Z*%
X24860000Y26670000D02*
X17875000Y26670000D01*
X42005000Y43815000D02*
X24860000Y26670000D01*
X46958000Y43815000D02*
X42005000Y43815000D01*
X52578000Y38195000D02*
X46958000Y43815000D01*
X52578000Y36830000D02*
X52578000Y38195000D01*
%TO.N,C_STEP*%
X58420000Y34290000D02*
X55372000Y34290000D01*
X59055000Y34925000D02*
X58420000Y34290000D01*
X53340000Y46355000D02*
X59055000Y40640000D01*
X38830000Y46355000D02*
X53340000Y46355000D01*
X59055000Y40640000D02*
X59055000Y34925000D01*
X29305000Y36830000D02*
X38830000Y46355000D01*
X17875000Y36830000D02*
X29305000Y36830000D01*
%TO.N,B_DIR*%
X55372000Y31750000D02*
X58420000Y31750000D01*
X58420000Y31750000D02*
X60325000Y29845000D01*
X60325000Y29845000D02*
X60325000Y15875000D01*
X60325000Y15875000D02*
X57150000Y12700000D01*
X52070000Y12700000D02*
X48260000Y8890000D01*
X57150000Y12700000D02*
X52070000Y12700000D01*
X48260000Y8890000D02*
X43275000Y8890000D01*
X48355000Y8890000D02*
X48260000Y8890000D01*
%TO.N,ENABLE*%
X43275000Y31750000D02*
X52578000Y31750000D01*
%TO.N,B_STEP*%
X55372000Y29210000D02*
X57150000Y29210000D01*
X57150000Y29210000D02*
X58420000Y27940000D01*
X58420000Y27940000D02*
X58420000Y17780000D01*
X57150000Y16510000D02*
X43275000Y16510000D01*
X58420000Y17780000D02*
X57150000Y16510000D01*
%TO.N,A_STEP*%
X43275000Y29210000D02*
X52578000Y29210000D01*
%TO.N,GND*%
X17875000Y39370000D02*
X15335000Y39370000D01*
X43275000Y39370000D02*
X40640000Y39370000D01*
X55372000Y19082000D02*
X55340000Y19050000D01*
X55372000Y26670000D02*
X55372000Y19082000D01*
%TO.N,A_DIR*%
X43275000Y26670000D02*
X52578000Y26670000D01*
%TO.N,+5V*%
X46355000Y34290000D02*
X52578000Y34290000D01*
%TD*%
D14*
%TO.N,GND*%
G36*
X24603000Y43148000D02*
G01*
X33604917Y43148000D01*
X28713918Y38257000D01*
X19456033Y38257000D01*
X19230884Y38482149D01*
X19219339Y38489863D01*
X19274814Y38509956D01*
X19415704Y38799571D01*
X19497384Y39111108D01*
X19516718Y39432595D01*
X19472961Y39751675D01*
X19367795Y40056088D01*
X19274814Y40230044D01*
X19219339Y40250137D01*
X19230884Y40257851D01*
X19527149Y40554116D01*
X19759923Y40902488D01*
X19920261Y41289577D01*
X20002000Y41700509D01*
X20002000Y42119491D01*
X19920261Y42530423D01*
X19759923Y42917512D01*
X19527149Y43265884D01*
X19230884Y43562149D01*
X18882512Y43794923D01*
X18495423Y43955261D01*
X18084491Y44037000D01*
X17665509Y44037000D01*
X17254577Y43955261D01*
X16867488Y43794923D01*
X16519116Y43562149D01*
X16222851Y43265884D01*
X15990077Y42917512D01*
X15829739Y42530423D01*
X15748000Y42119491D01*
X15748000Y41700509D01*
X15829739Y41289577D01*
X15990077Y40902488D01*
X16222851Y40554116D01*
X16519116Y40257851D01*
X16530661Y40250137D01*
X16475186Y40230044D01*
X16334296Y39940429D01*
X16252616Y39628892D01*
X16233282Y39307405D01*
X16277039Y38988325D01*
X16382205Y38683912D01*
X16475186Y38509956D01*
X16530661Y38489863D01*
X16519116Y38482149D01*
X16222851Y38185884D01*
X15990077Y37837512D01*
X15829739Y37450423D01*
X15748000Y37039491D01*
X15748000Y36620509D01*
X15829739Y36209577D01*
X15990077Y35822488D01*
X16165465Y35560000D01*
X15990077Y35297512D01*
X15829739Y34910423D01*
X15748000Y34499491D01*
X15748000Y34080509D01*
X15829739Y33669577D01*
X15990077Y33282488D01*
X16165465Y33020000D01*
X15990077Y32757512D01*
X15829739Y32370423D01*
X15748000Y31959491D01*
X15748000Y31540509D01*
X15829739Y31129577D01*
X15990077Y30742488D01*
X16165465Y30480000D01*
X15990077Y30217512D01*
X15829739Y29830423D01*
X15748000Y29419491D01*
X15748000Y29000509D01*
X15829739Y28589577D01*
X15990077Y28202488D01*
X16165465Y27940000D01*
X15990077Y27677512D01*
X15829739Y27290423D01*
X15748000Y26879491D01*
X15748000Y26460509D01*
X15829739Y26049577D01*
X15990077Y25662488D01*
X16165465Y25400000D01*
X15990077Y25137512D01*
X15829739Y24750423D01*
X15748000Y24339491D01*
X15748000Y23920509D01*
X15829739Y23509577D01*
X15990077Y23122488D01*
X16165465Y22860000D01*
X15990077Y22597512D01*
X15829739Y22210423D01*
X15748000Y21799491D01*
X15748000Y21380509D01*
X15829739Y20969577D01*
X15990077Y20582488D01*
X16165465Y20320000D01*
X15990077Y20057512D01*
X15829739Y19670423D01*
X15748000Y19259491D01*
X15748000Y18840509D01*
X15829739Y18429577D01*
X15990077Y18042488D01*
X16165465Y17780000D01*
X15990077Y17517512D01*
X15829739Y17130423D01*
X15748000Y16719491D01*
X15748000Y16300509D01*
X15829739Y15889577D01*
X15990077Y15502488D01*
X16165465Y15240000D01*
X15990077Y14977512D01*
X15829739Y14590423D01*
X15748000Y14179491D01*
X15748000Y13760509D01*
X15829739Y13349577D01*
X15990077Y12962488D01*
X16165465Y12700000D01*
X15990077Y12437512D01*
X15829739Y12050423D01*
X15748000Y11639491D01*
X15748000Y11220509D01*
X15829739Y10809577D01*
X15990077Y10422488D01*
X16165465Y10160000D01*
X15990077Y9897512D01*
X15829739Y9510423D01*
X15748000Y9099491D01*
X15748000Y8680509D01*
X15829739Y8269577D01*
X15990077Y7882488D01*
X16132784Y7668911D01*
X16066750Y7545371D01*
X16002307Y7332931D01*
X15980547Y7112000D01*
X15980547Y5588000D01*
X16002307Y5367069D01*
X16066750Y5154629D01*
X16171400Y4958843D01*
X16312235Y4787235D01*
X16483843Y4646400D01*
X16679629Y4541750D01*
X16892069Y4477307D01*
X17113000Y4455547D01*
X18637000Y4455547D01*
X18857931Y4477307D01*
X19070371Y4541750D01*
X19266157Y4646400D01*
X19437765Y4787235D01*
X19578600Y4958843D01*
X19683250Y5154629D01*
X19747693Y5367069D01*
X19769453Y5588000D01*
X19769453Y7112000D01*
X19747693Y7332931D01*
X19683250Y7545371D01*
X19617216Y7668911D01*
X19759923Y7882488D01*
X19920261Y8269577D01*
X20002000Y8680509D01*
X20002000Y9099491D01*
X19920261Y9510423D01*
X19759923Y9897512D01*
X19584535Y10160000D01*
X19759923Y10422488D01*
X19920261Y10809577D01*
X20002000Y11220509D01*
X20002000Y11639491D01*
X19920261Y12050423D01*
X19759923Y12437512D01*
X19584535Y12700000D01*
X19759923Y12962488D01*
X19920261Y13349577D01*
X20002000Y13760509D01*
X20002000Y14179491D01*
X19920261Y14590423D01*
X19759923Y14977512D01*
X19584535Y15240000D01*
X19759923Y15502488D01*
X19920261Y15889577D01*
X20002000Y16300509D01*
X20002000Y16719491D01*
X19920261Y17130423D01*
X19759923Y17517512D01*
X19584535Y17780000D01*
X19759923Y18042488D01*
X19920261Y18429577D01*
X20002000Y18840509D01*
X20002000Y19259491D01*
X19920261Y19670423D01*
X19759923Y20057512D01*
X19584535Y20320000D01*
X19759923Y20582488D01*
X19920261Y20969577D01*
X20002000Y21380509D01*
X20002000Y21799491D01*
X19920261Y22210423D01*
X19759923Y22597512D01*
X19584535Y22860000D01*
X19759923Y23122488D01*
X19920261Y23509577D01*
X20002000Y23920509D01*
X20002000Y24339491D01*
X19920261Y24750423D01*
X19759923Y25137512D01*
X19689438Y25243000D01*
X24789912Y25243000D01*
X24860000Y25236097D01*
X24930088Y25243000D01*
X24930098Y25243000D01*
X25139741Y25263648D01*
X25408731Y25345245D01*
X25656634Y25477752D01*
X25873923Y25656077D01*
X25918609Y25710527D01*
X41308211Y41100128D01*
X41390077Y40902488D01*
X41622851Y40554116D01*
X41919116Y40257851D01*
X41930661Y40250137D01*
X41875186Y40230044D01*
X41734296Y39940429D01*
X41652616Y39628892D01*
X41633282Y39307405D01*
X41677039Y38988325D01*
X41782205Y38683912D01*
X41875186Y38509956D01*
X41930661Y38489863D01*
X41919116Y38482149D01*
X41622851Y38185884D01*
X41390077Y37837512D01*
X41229739Y37450423D01*
X41148000Y37039491D01*
X41148000Y36620509D01*
X41229739Y36209577D01*
X41390077Y35822488D01*
X41565465Y35560000D01*
X41390077Y35297512D01*
X41229739Y34910423D01*
X41148000Y34499491D01*
X41148000Y34080509D01*
X41229739Y33669577D01*
X41390077Y33282488D01*
X41565465Y33020000D01*
X41390077Y32757512D01*
X41229739Y32370423D01*
X41148000Y31959491D01*
X41148000Y31540509D01*
X41229739Y31129577D01*
X41390077Y30742488D01*
X41565465Y30480000D01*
X41390077Y30217512D01*
X41229739Y29830423D01*
X41148000Y29419491D01*
X41148000Y29000509D01*
X41229739Y28589577D01*
X41390077Y28202488D01*
X41565465Y27940000D01*
X41390077Y27677512D01*
X41229739Y27290423D01*
X41148000Y26879491D01*
X41148000Y26460509D01*
X41229739Y26049577D01*
X41390077Y25662488D01*
X41565465Y25400000D01*
X41390077Y25137512D01*
X41229739Y24750423D01*
X41148000Y24339491D01*
X41148000Y23920509D01*
X41229739Y23509577D01*
X41390077Y23122488D01*
X41565465Y22860000D01*
X41390077Y22597512D01*
X41229739Y22210423D01*
X41148000Y21799491D01*
X41148000Y21380509D01*
X41229739Y20969577D01*
X41390077Y20582488D01*
X41565465Y20320000D01*
X41390077Y20057512D01*
X41229739Y19670423D01*
X41148000Y19259491D01*
X41148000Y18840509D01*
X41229739Y18429577D01*
X41390077Y18042488D01*
X41565465Y17780000D01*
X41390077Y17517512D01*
X41229739Y17130423D01*
X41148000Y16719491D01*
X41148000Y16300509D01*
X41229739Y15889577D01*
X41390077Y15502488D01*
X41565465Y15240000D01*
X41390077Y14977512D01*
X41229739Y14590423D01*
X41148000Y14179491D01*
X41148000Y13760509D01*
X41229739Y13349577D01*
X41390077Y12962488D01*
X41565465Y12700000D01*
X41390077Y12437512D01*
X41229739Y12050423D01*
X41148000Y11639491D01*
X41148000Y11220509D01*
X41229739Y10809577D01*
X41390077Y10422488D01*
X41565465Y10160000D01*
X41390077Y9897512D01*
X41229739Y9510423D01*
X41148000Y9099491D01*
X41148000Y8680509D01*
X41229739Y8269577D01*
X41390077Y7882488D01*
X41565465Y7620000D01*
X41390077Y7357512D01*
X41229739Y6970423D01*
X41148000Y6559491D01*
X41148000Y6140509D01*
X41229739Y5729577D01*
X41390077Y5342488D01*
X41622851Y4994116D01*
X41919116Y4697851D01*
X42267488Y4465077D01*
X42654577Y4304739D01*
X43065509Y4223000D01*
X43484491Y4223000D01*
X43895423Y4304739D01*
X44282512Y4465077D01*
X44630884Y4697851D01*
X44927149Y4994116D01*
X45159923Y5342488D01*
X45320261Y5729577D01*
X45402000Y6140509D01*
X45402000Y6559491D01*
X45320261Y6970423D01*
X45159923Y7357512D01*
X45089438Y7463000D01*
X48189912Y7463000D01*
X48260000Y7456097D01*
X48330088Y7463000D01*
X48425098Y7463000D01*
X48634741Y7483648D01*
X48903731Y7565245D01*
X49151634Y7697752D01*
X49368923Y7876077D01*
X49547248Y8093366D01*
X49622805Y8234723D01*
X51047669Y9659587D01*
X54384192Y9659587D01*
X54479956Y9395186D01*
X54769571Y9254296D01*
X55081108Y9172616D01*
X55402595Y9153282D01*
X55721675Y9197039D01*
X56026088Y9302205D01*
X56200044Y9395186D01*
X56295808Y9659587D01*
X55340000Y10615395D01*
X54384192Y9659587D01*
X51047669Y9659587D01*
X52661083Y11273000D01*
X53775063Y11273000D01*
X53717616Y11053892D01*
X53698282Y10732405D01*
X53742039Y10413325D01*
X53847205Y10108912D01*
X53940186Y9934956D01*
X54204587Y9839192D01*
X55160395Y10795000D01*
X55146253Y10809142D01*
X55325858Y10988747D01*
X55340000Y10974605D01*
X55354143Y10988747D01*
X55533748Y10809142D01*
X55519605Y10795000D01*
X56475413Y9839192D01*
X56739814Y9934956D01*
X56880704Y10224571D01*
X56962384Y10536108D01*
X56981718Y10857595D01*
X56937961Y11176675D01*
X56904683Y11273000D01*
X57079912Y11273000D01*
X57150000Y11266097D01*
X57220088Y11273000D01*
X57220098Y11273000D01*
X57429741Y11293648D01*
X57698731Y11375245D01*
X57946634Y11507752D01*
X58163923Y11686077D01*
X58208609Y11740527D01*
X61284478Y14816395D01*
X61338923Y14861077D01*
X61383605Y14915522D01*
X61383608Y14915525D01*
X61517247Y15078365D01*
X61517248Y15078366D01*
X61649755Y15326269D01*
X61731352Y15595259D01*
X61752000Y15804902D01*
X61752000Y15804911D01*
X61758903Y15874999D01*
X61752000Y15945087D01*
X61752000Y29774910D01*
X61758903Y29845000D01*
X61752000Y29915090D01*
X61752000Y29915098D01*
X61731352Y30124741D01*
X61717783Y30169474D01*
X61703210Y30217512D01*
X61649755Y30393731D01*
X61517248Y30641634D01*
X61501034Y30661390D01*
X61383608Y30804475D01*
X61383601Y30804482D01*
X61338922Y30858923D01*
X61284482Y30903601D01*
X59478609Y32709473D01*
X59433923Y32763923D01*
X59216634Y32942248D01*
X59071170Y33020000D01*
X59216634Y33097752D01*
X59433923Y33276077D01*
X59478610Y33330528D01*
X60014472Y33866390D01*
X60068923Y33911077D01*
X60247248Y34128366D01*
X60379755Y34376269D01*
X60461352Y34645259D01*
X60482000Y34854902D01*
X60482000Y34854910D01*
X60488903Y34925000D01*
X60482000Y34995090D01*
X60482000Y40569902D01*
X60488904Y40640000D01*
X60461352Y40919741D01*
X60391254Y41150826D01*
X60538931Y40873668D01*
X61076278Y39553649D01*
X61475095Y38185371D01*
X61731146Y36783367D01*
X61843446Y35340367D01*
X61848001Y34992408D01*
X61848000Y1152000D01*
X1152000Y1152000D01*
X1152000Y34970345D01*
X1226876Y36423309D01*
X1446141Y37831548D01*
X1809002Y39209792D01*
X2311609Y40543419D01*
X2948644Y41818326D01*
X3713358Y43021003D01*
X4597644Y44138696D01*
X5592133Y45159568D01*
X6686297Y46072809D01*
X7868546Y46868747D01*
X9126332Y47538931D01*
X10446351Y48076278D01*
X11814629Y48475095D01*
X13216633Y48731146D01*
X14659633Y48843446D01*
X15007516Y48848000D01*
X24603000Y48848000D01*
X24603000Y43148000D01*
G37*
X24603000Y43148000D02*
X33604917Y43148000D01*
X28713918Y38257000D01*
X19456033Y38257000D01*
X19230884Y38482149D01*
X19219339Y38489863D01*
X19274814Y38509956D01*
X19415704Y38799571D01*
X19497384Y39111108D01*
X19516718Y39432595D01*
X19472961Y39751675D01*
X19367795Y40056088D01*
X19274814Y40230044D01*
X19219339Y40250137D01*
X19230884Y40257851D01*
X19527149Y40554116D01*
X19759923Y40902488D01*
X19920261Y41289577D01*
X20002000Y41700509D01*
X20002000Y42119491D01*
X19920261Y42530423D01*
X19759923Y42917512D01*
X19527149Y43265884D01*
X19230884Y43562149D01*
X18882512Y43794923D01*
X18495423Y43955261D01*
X18084491Y44037000D01*
X17665509Y44037000D01*
X17254577Y43955261D01*
X16867488Y43794923D01*
X16519116Y43562149D01*
X16222851Y43265884D01*
X15990077Y42917512D01*
X15829739Y42530423D01*
X15748000Y42119491D01*
X15748000Y41700509D01*
X15829739Y41289577D01*
X15990077Y40902488D01*
X16222851Y40554116D01*
X16519116Y40257851D01*
X16530661Y40250137D01*
X16475186Y40230044D01*
X16334296Y39940429D01*
X16252616Y39628892D01*
X16233282Y39307405D01*
X16277039Y38988325D01*
X16382205Y38683912D01*
X16475186Y38509956D01*
X16530661Y38489863D01*
X16519116Y38482149D01*
X16222851Y38185884D01*
X15990077Y37837512D01*
X15829739Y37450423D01*
X15748000Y37039491D01*
X15748000Y36620509D01*
X15829739Y36209577D01*
X15990077Y35822488D01*
X16165465Y35560000D01*
X15990077Y35297512D01*
X15829739Y34910423D01*
X15748000Y34499491D01*
X15748000Y34080509D01*
X15829739Y33669577D01*
X15990077Y33282488D01*
X16165465Y33020000D01*
X15990077Y32757512D01*
X15829739Y32370423D01*
X15748000Y31959491D01*
X15748000Y31540509D01*
X15829739Y31129577D01*
X15990077Y30742488D01*
X16165465Y30480000D01*
X15990077Y30217512D01*
X15829739Y29830423D01*
X15748000Y29419491D01*
X15748000Y29000509D01*
X15829739Y28589577D01*
X15990077Y28202488D01*
X16165465Y27940000D01*
X15990077Y27677512D01*
X15829739Y27290423D01*
X15748000Y26879491D01*
X15748000Y26460509D01*
X15829739Y26049577D01*
X15990077Y25662488D01*
X16165465Y25400000D01*
X15990077Y25137512D01*
X15829739Y24750423D01*
X15748000Y24339491D01*
X15748000Y23920509D01*
X15829739Y23509577D01*
X15990077Y23122488D01*
X16165465Y22860000D01*
X15990077Y22597512D01*
X15829739Y22210423D01*
X15748000Y21799491D01*
X15748000Y21380509D01*
X15829739Y20969577D01*
X15990077Y20582488D01*
X16165465Y20320000D01*
X15990077Y20057512D01*
X15829739Y19670423D01*
X15748000Y19259491D01*
X15748000Y18840509D01*
X15829739Y18429577D01*
X15990077Y18042488D01*
X16165465Y17780000D01*
X15990077Y17517512D01*
X15829739Y17130423D01*
X15748000Y16719491D01*
X15748000Y16300509D01*
X15829739Y15889577D01*
X15990077Y15502488D01*
X16165465Y15240000D01*
X15990077Y14977512D01*
X15829739Y14590423D01*
X15748000Y14179491D01*
X15748000Y13760509D01*
X15829739Y13349577D01*
X15990077Y12962488D01*
X16165465Y12700000D01*
X15990077Y12437512D01*
X15829739Y12050423D01*
X15748000Y11639491D01*
X15748000Y11220509D01*
X15829739Y10809577D01*
X15990077Y10422488D01*
X16165465Y10160000D01*
X15990077Y9897512D01*
X15829739Y9510423D01*
X15748000Y9099491D01*
X15748000Y8680509D01*
X15829739Y8269577D01*
X15990077Y7882488D01*
X16132784Y7668911D01*
X16066750Y7545371D01*
X16002307Y7332931D01*
X15980547Y7112000D01*
X15980547Y5588000D01*
X16002307Y5367069D01*
X16066750Y5154629D01*
X16171400Y4958843D01*
X16312235Y4787235D01*
X16483843Y4646400D01*
X16679629Y4541750D01*
X16892069Y4477307D01*
X17113000Y4455547D01*
X18637000Y4455547D01*
X18857931Y4477307D01*
X19070371Y4541750D01*
X19266157Y4646400D01*
X19437765Y4787235D01*
X19578600Y4958843D01*
X19683250Y5154629D01*
X19747693Y5367069D01*
X19769453Y5588000D01*
X19769453Y7112000D01*
X19747693Y7332931D01*
X19683250Y7545371D01*
X19617216Y7668911D01*
X19759923Y7882488D01*
X19920261Y8269577D01*
X20002000Y8680509D01*
X20002000Y9099491D01*
X19920261Y9510423D01*
X19759923Y9897512D01*
X19584535Y10160000D01*
X19759923Y10422488D01*
X19920261Y10809577D01*
X20002000Y11220509D01*
X20002000Y11639491D01*
X19920261Y12050423D01*
X19759923Y12437512D01*
X19584535Y12700000D01*
X19759923Y12962488D01*
X19920261Y13349577D01*
X20002000Y13760509D01*
X20002000Y14179491D01*
X19920261Y14590423D01*
X19759923Y14977512D01*
X19584535Y15240000D01*
X19759923Y15502488D01*
X19920261Y15889577D01*
X20002000Y16300509D01*
X20002000Y16719491D01*
X19920261Y17130423D01*
X19759923Y17517512D01*
X19584535Y17780000D01*
X19759923Y18042488D01*
X19920261Y18429577D01*
X20002000Y18840509D01*
X20002000Y19259491D01*
X19920261Y19670423D01*
X19759923Y20057512D01*
X19584535Y20320000D01*
X19759923Y20582488D01*
X19920261Y20969577D01*
X20002000Y21380509D01*
X20002000Y21799491D01*
X19920261Y22210423D01*
X19759923Y22597512D01*
X19584535Y22860000D01*
X19759923Y23122488D01*
X19920261Y23509577D01*
X20002000Y23920509D01*
X20002000Y24339491D01*
X19920261Y24750423D01*
X19759923Y25137512D01*
X19689438Y25243000D01*
X24789912Y25243000D01*
X24860000Y25236097D01*
X24930088Y25243000D01*
X24930098Y25243000D01*
X25139741Y25263648D01*
X25408731Y25345245D01*
X25656634Y25477752D01*
X25873923Y25656077D01*
X25918609Y25710527D01*
X41308211Y41100128D01*
X41390077Y40902488D01*
X41622851Y40554116D01*
X41919116Y40257851D01*
X41930661Y40250137D01*
X41875186Y40230044D01*
X41734296Y39940429D01*
X41652616Y39628892D01*
X41633282Y39307405D01*
X41677039Y38988325D01*
X41782205Y38683912D01*
X41875186Y38509956D01*
X41930661Y38489863D01*
X41919116Y38482149D01*
X41622851Y38185884D01*
X41390077Y37837512D01*
X41229739Y37450423D01*
X41148000Y37039491D01*
X41148000Y36620509D01*
X41229739Y36209577D01*
X41390077Y35822488D01*
X41565465Y35560000D01*
X41390077Y35297512D01*
X41229739Y34910423D01*
X41148000Y34499491D01*
X41148000Y34080509D01*
X41229739Y33669577D01*
X41390077Y33282488D01*
X41565465Y33020000D01*
X41390077Y32757512D01*
X41229739Y32370423D01*
X41148000Y31959491D01*
X41148000Y31540509D01*
X41229739Y31129577D01*
X41390077Y30742488D01*
X41565465Y30480000D01*
X41390077Y30217512D01*
X41229739Y29830423D01*
X41148000Y29419491D01*
X41148000Y29000509D01*
X41229739Y28589577D01*
X41390077Y28202488D01*
X41565465Y27940000D01*
X41390077Y27677512D01*
X41229739Y27290423D01*
X41148000Y26879491D01*
X41148000Y26460509D01*
X41229739Y26049577D01*
X41390077Y25662488D01*
X41565465Y25400000D01*
X41390077Y25137512D01*
X41229739Y24750423D01*
X41148000Y24339491D01*
X41148000Y23920509D01*
X41229739Y23509577D01*
X41390077Y23122488D01*
X41565465Y22860000D01*
X41390077Y22597512D01*
X41229739Y22210423D01*
X41148000Y21799491D01*
X41148000Y21380509D01*
X41229739Y20969577D01*
X41390077Y20582488D01*
X41565465Y20320000D01*
X41390077Y20057512D01*
X41229739Y19670423D01*
X41148000Y19259491D01*
X41148000Y18840509D01*
X41229739Y18429577D01*
X41390077Y18042488D01*
X41565465Y17780000D01*
X41390077Y17517512D01*
X41229739Y17130423D01*
X41148000Y16719491D01*
X41148000Y16300509D01*
X41229739Y15889577D01*
X41390077Y15502488D01*
X41565465Y15240000D01*
X41390077Y14977512D01*
X41229739Y14590423D01*
X41148000Y14179491D01*
X41148000Y13760509D01*
X41229739Y13349577D01*
X41390077Y12962488D01*
X41565465Y12700000D01*
X41390077Y12437512D01*
X41229739Y12050423D01*
X41148000Y11639491D01*
X41148000Y11220509D01*
X41229739Y10809577D01*
X41390077Y10422488D01*
X41565465Y10160000D01*
X41390077Y9897512D01*
X41229739Y9510423D01*
X41148000Y9099491D01*
X41148000Y8680509D01*
X41229739Y8269577D01*
X41390077Y7882488D01*
X41565465Y7620000D01*
X41390077Y7357512D01*
X41229739Y6970423D01*
X41148000Y6559491D01*
X41148000Y6140509D01*
X41229739Y5729577D01*
X41390077Y5342488D01*
X41622851Y4994116D01*
X41919116Y4697851D01*
X42267488Y4465077D01*
X42654577Y4304739D01*
X43065509Y4223000D01*
X43484491Y4223000D01*
X43895423Y4304739D01*
X44282512Y4465077D01*
X44630884Y4697851D01*
X44927149Y4994116D01*
X45159923Y5342488D01*
X45320261Y5729577D01*
X45402000Y6140509D01*
X45402000Y6559491D01*
X45320261Y6970423D01*
X45159923Y7357512D01*
X45089438Y7463000D01*
X48189912Y7463000D01*
X48260000Y7456097D01*
X48330088Y7463000D01*
X48425098Y7463000D01*
X48634741Y7483648D01*
X48903731Y7565245D01*
X49151634Y7697752D01*
X49368923Y7876077D01*
X49547248Y8093366D01*
X49622805Y8234723D01*
X51047669Y9659587D01*
X54384192Y9659587D01*
X54479956Y9395186D01*
X54769571Y9254296D01*
X55081108Y9172616D01*
X55402595Y9153282D01*
X55721675Y9197039D01*
X56026088Y9302205D01*
X56200044Y9395186D01*
X56295808Y9659587D01*
X55340000Y10615395D01*
X54384192Y9659587D01*
X51047669Y9659587D01*
X52661083Y11273000D01*
X53775063Y11273000D01*
X53717616Y11053892D01*
X53698282Y10732405D01*
X53742039Y10413325D01*
X53847205Y10108912D01*
X53940186Y9934956D01*
X54204587Y9839192D01*
X55160395Y10795000D01*
X55146253Y10809142D01*
X55325858Y10988747D01*
X55340000Y10974605D01*
X55354143Y10988747D01*
X55533748Y10809142D01*
X55519605Y10795000D01*
X56475413Y9839192D01*
X56739814Y9934956D01*
X56880704Y10224571D01*
X56962384Y10536108D01*
X56981718Y10857595D01*
X56937961Y11176675D01*
X56904683Y11273000D01*
X57079912Y11273000D01*
X57150000Y11266097D01*
X57220088Y11273000D01*
X57220098Y11273000D01*
X57429741Y11293648D01*
X57698731Y11375245D01*
X57946634Y11507752D01*
X58163923Y11686077D01*
X58208609Y11740527D01*
X61284478Y14816395D01*
X61338923Y14861077D01*
X61383605Y14915522D01*
X61383608Y14915525D01*
X61517247Y15078365D01*
X61517248Y15078366D01*
X61649755Y15326269D01*
X61731352Y15595259D01*
X61752000Y15804902D01*
X61752000Y15804911D01*
X61758903Y15874999D01*
X61752000Y15945087D01*
X61752000Y29774910D01*
X61758903Y29845000D01*
X61752000Y29915090D01*
X61752000Y29915098D01*
X61731352Y30124741D01*
X61717783Y30169474D01*
X61703210Y30217512D01*
X61649755Y30393731D01*
X61517248Y30641634D01*
X61501034Y30661390D01*
X61383608Y30804475D01*
X61383601Y30804482D01*
X61338922Y30858923D01*
X61284482Y30903601D01*
X59478609Y32709473D01*
X59433923Y32763923D01*
X59216634Y32942248D01*
X59071170Y33020000D01*
X59216634Y33097752D01*
X59433923Y33276077D01*
X59478610Y33330528D01*
X60014472Y33866390D01*
X60068923Y33911077D01*
X60247248Y34128366D01*
X60379755Y34376269D01*
X60461352Y34645259D01*
X60482000Y34854902D01*
X60482000Y34854910D01*
X60488903Y34925000D01*
X60482000Y34995090D01*
X60482000Y40569902D01*
X60488904Y40640000D01*
X60461352Y40919741D01*
X60391254Y41150826D01*
X60538931Y40873668D01*
X61076278Y39553649D01*
X61475095Y38185371D01*
X61731146Y36783367D01*
X61843446Y35340367D01*
X61848001Y34992408D01*
X61848000Y1152000D01*
X1152000Y1152000D01*
X1152000Y34970345D01*
X1226876Y36423309D01*
X1446141Y37831548D01*
X1809002Y39209792D01*
X2311609Y40543419D01*
X2948644Y41818326D01*
X3713358Y43021003D01*
X4597644Y44138696D01*
X5592133Y45159568D01*
X6686297Y46072809D01*
X7868546Y46868747D01*
X9126332Y47538931D01*
X10446351Y48076278D01*
X11814629Y48475095D01*
X13216633Y48731146D01*
X14659633Y48843446D01*
X15007516Y48848000D01*
X24603000Y48848000D01*
X24603000Y43148000D01*
G36*
X55565748Y26684142D02*
G01*
X55551605Y26670000D01*
X56507413Y25714192D01*
X56771814Y25809956D01*
X56912704Y26099571D01*
X56993000Y26405830D01*
X56993001Y18371083D01*
X56558918Y17937000D01*
X56549558Y17937000D01*
X56591083Y17978525D01*
X56475415Y18094193D01*
X56739814Y18189956D01*
X56880704Y18479571D01*
X56962384Y18791108D01*
X56981718Y19112595D01*
X56937961Y19431675D01*
X56832795Y19736088D01*
X56739814Y19910044D01*
X56475413Y20005808D01*
X55519605Y19050000D01*
X55533748Y19035857D01*
X55354143Y18856252D01*
X55340000Y18870395D01*
X55325858Y18856252D01*
X55146253Y19035857D01*
X55160395Y19050000D01*
X54204587Y20005808D01*
X53940186Y19910044D01*
X53799296Y19620429D01*
X53717616Y19308892D01*
X53698282Y18987405D01*
X53742039Y18668325D01*
X53847205Y18363912D01*
X53940186Y18189956D01*
X54204585Y18094193D01*
X54088917Y17978525D01*
X54130442Y17937000D01*
X45089438Y17937000D01*
X45159923Y18042488D01*
X45320261Y18429577D01*
X45402000Y18840509D01*
X45402000Y19259491D01*
X45320261Y19670423D01*
X45159923Y20057512D01*
X45074463Y20185413D01*
X54384192Y20185413D01*
X55340000Y19229605D01*
X56295808Y20185413D01*
X56200044Y20449814D01*
X55910429Y20590704D01*
X55598892Y20672384D01*
X55277405Y20691718D01*
X54958325Y20647961D01*
X54653912Y20542795D01*
X54479956Y20449814D01*
X54384192Y20185413D01*
X45074463Y20185413D01*
X44984535Y20320000D01*
X45159923Y20582488D01*
X45320261Y20969577D01*
X45402000Y21380509D01*
X45402000Y21799491D01*
X45320261Y22210423D01*
X45159923Y22597512D01*
X44984535Y22860000D01*
X45159923Y23122488D01*
X45320261Y23509577D01*
X45402000Y23920509D01*
X45402000Y24339491D01*
X45320261Y24750423D01*
X45159923Y25137512D01*
X45089438Y25243000D01*
X50996967Y25243000D01*
X51222116Y25017851D01*
X51570488Y24785077D01*
X51957577Y24624739D01*
X52368509Y24543000D01*
X52787491Y24543000D01*
X53198423Y24624739D01*
X53585512Y24785077D01*
X53933884Y25017851D01*
X54230149Y25314116D01*
X54300315Y25419127D01*
X54300525Y25418917D01*
X54416193Y25534585D01*
X54511956Y25270186D01*
X54801571Y25129296D01*
X55113108Y25047616D01*
X55434595Y25028282D01*
X55753675Y25072039D01*
X56058088Y25177205D01*
X56232044Y25270186D01*
X56327808Y25534587D01*
X55372000Y26490395D01*
X55357858Y26476252D01*
X55178253Y26655857D01*
X55192395Y26670000D01*
X55178253Y26684142D01*
X55357858Y26863747D01*
X55372000Y26849605D01*
X55386143Y26863747D01*
X55565748Y26684142D01*
G37*
X55565748Y26684142D02*
X55551605Y26670000D01*
X56507413Y25714192D01*
X56771814Y25809956D01*
X56912704Y26099571D01*
X56993000Y26405830D01*
X56993001Y18371083D01*
X56558918Y17937000D01*
X56549558Y17937000D01*
X56591083Y17978525D01*
X56475415Y18094193D01*
X56739814Y18189956D01*
X56880704Y18479571D01*
X56962384Y18791108D01*
X56981718Y19112595D01*
X56937961Y19431675D01*
X56832795Y19736088D01*
X56739814Y19910044D01*
X56475413Y20005808D01*
X55519605Y19050000D01*
X55533748Y19035857D01*
X55354143Y18856252D01*
X55340000Y18870395D01*
X55325858Y18856252D01*
X55146253Y19035857D01*
X55160395Y19050000D01*
X54204587Y20005808D01*
X53940186Y19910044D01*
X53799296Y19620429D01*
X53717616Y19308892D01*
X53698282Y18987405D01*
X53742039Y18668325D01*
X53847205Y18363912D01*
X53940186Y18189956D01*
X54204585Y18094193D01*
X54088917Y17978525D01*
X54130442Y17937000D01*
X45089438Y17937000D01*
X45159923Y18042488D01*
X45320261Y18429577D01*
X45402000Y18840509D01*
X45402000Y19259491D01*
X45320261Y19670423D01*
X45159923Y20057512D01*
X45074463Y20185413D01*
X54384192Y20185413D01*
X55340000Y19229605D01*
X56295808Y20185413D01*
X56200044Y20449814D01*
X55910429Y20590704D01*
X55598892Y20672384D01*
X55277405Y20691718D01*
X54958325Y20647961D01*
X54653912Y20542795D01*
X54479956Y20449814D01*
X54384192Y20185413D01*
X45074463Y20185413D01*
X44984535Y20320000D01*
X45159923Y20582488D01*
X45320261Y20969577D01*
X45402000Y21380509D01*
X45402000Y21799491D01*
X45320261Y22210423D01*
X45159923Y22597512D01*
X44984535Y22860000D01*
X45159923Y23122488D01*
X45320261Y23509577D01*
X45402000Y23920509D01*
X45402000Y24339491D01*
X45320261Y24750423D01*
X45159923Y25137512D01*
X45089438Y25243000D01*
X50996967Y25243000D01*
X51222116Y25017851D01*
X51570488Y24785077D01*
X51957577Y24624739D01*
X52368509Y24543000D01*
X52787491Y24543000D01*
X53198423Y24624739D01*
X53585512Y24785077D01*
X53933884Y25017851D01*
X54230149Y25314116D01*
X54300315Y25419127D01*
X54300525Y25418917D01*
X54416193Y25534585D01*
X54511956Y25270186D01*
X54801571Y25129296D01*
X55113108Y25047616D01*
X55434595Y25028282D01*
X55753675Y25072039D01*
X56058088Y25177205D01*
X56232044Y25270186D01*
X56327808Y25534587D01*
X55372000Y26490395D01*
X55357858Y26476252D01*
X55178253Y26655857D01*
X55192395Y26670000D01*
X55178253Y26684142D01*
X55357858Y26863747D01*
X55372000Y26849605D01*
X55386143Y26863747D01*
X55565748Y26684142D01*
G36*
X18068748Y39384142D02*
G01*
X18054605Y39370000D01*
X18068748Y39355857D01*
X17889143Y39176252D01*
X17875000Y39190395D01*
X17860858Y39176252D01*
X17681253Y39355857D01*
X17695395Y39370000D01*
X17681253Y39384142D01*
X17860858Y39563747D01*
X17875000Y39549605D01*
X17889143Y39563747D01*
X18068748Y39384142D01*
G37*
X18068748Y39384142D02*
X18054605Y39370000D01*
X18068748Y39355857D01*
X17889143Y39176252D01*
X17875000Y39190395D01*
X17860858Y39176252D01*
X17681253Y39355857D01*
X17695395Y39370000D01*
X17681253Y39384142D01*
X17860858Y39563747D01*
X17875000Y39549605D01*
X17889143Y39563747D01*
X18068748Y39384142D01*
G36*
X43468748Y39384142D02*
G01*
X43454605Y39370000D01*
X43468748Y39355857D01*
X43289143Y39176252D01*
X43275000Y39190395D01*
X43260858Y39176252D01*
X43081253Y39355857D01*
X43095395Y39370000D01*
X43081253Y39384142D01*
X43260858Y39563747D01*
X43275000Y39549605D01*
X43289143Y39563747D01*
X43468748Y39384142D01*
G37*
X43468748Y39384142D02*
X43454605Y39370000D01*
X43468748Y39355857D01*
X43289143Y39176252D01*
X43275000Y39190395D01*
X43260858Y39176252D01*
X43081253Y39355857D01*
X43095395Y39370000D01*
X43081253Y39384142D01*
X43260858Y39563747D01*
X43275000Y39549605D01*
X43289143Y39563747D01*
X43468748Y39384142D01*
%TD*%
M02*
