M48
; DRILL file {KiCad 5.1.6-c6e7f7d~87~ubuntu20.04.1} date Sat Oct 17 15:01:03 2020
; FORMAT={-:-/ absolute / metric / decimal}
; #@! TF.CreationDate,2020-10-17T15:01:03+02:00
; #@! TF.GenerationSoftware,Kicad,Pcbnew,5.1.6-c6e7f7d~87~ubuntu20.04.1
FMAT,2
METRIC
T1C0.762
T2C1.000
%
G90
G05
T1
X17.875Y6.35
T2
X46.355Y34.29
X55.34Y10.795
X52.578Y36.83
X52.578Y34.29
X52.578Y31.75
X52.578Y29.21
X52.578Y26.67
X55.372Y36.83
X55.372Y34.29
X55.372Y31.75
X55.372Y29.21
X55.372Y26.67
X17.875Y41.91
X17.875Y39.37
X17.875Y36.83
X17.875Y34.29
X17.875Y31.75
X17.875Y29.21
X17.875Y26.67
X17.875Y24.13
X17.875Y21.59
X17.875Y19.05
X17.875Y16.51
X17.875Y13.97
X17.875Y11.43
X17.875Y8.89
X43.275Y41.91
X43.275Y39.37
X43.275Y36.83
X43.275Y34.29
X43.275Y31.75
X43.275Y29.21
X43.275Y26.67
X43.275Y24.13
X43.275Y21.59
X43.275Y19.05
X43.275Y16.51
X43.275Y13.97
X43.275Y11.43
X43.275Y8.89
X43.275Y6.35
X55.34Y19.05
T0
M30
