M48
; DRILL file {KiCad 5.1.6-c6e7f7d~87~ubuntu20.04.1} date Sat Oct 10 14:16:43 2020
; FORMAT={-:-/ absolute / metric / decimal}
; #@! TF.CreationDate,2020-10-10T14:16:43+02:00
; #@! TF.GenerationSoftware,Kicad,Pcbnew,5.1.6-c6e7f7d~87~ubuntu20.04.1
FMAT,2
METRIC
T1C1.000
%
G90
G05
T1
X21.145Y20.574
X21.145Y10.414
X19.241Y5.271
X21.78Y5.271
X24.32Y5.271
X26.86Y5.271
X29.4Y5.271
X31.941Y5.271
X34.48Y5.271
X37.02Y5.271
X39.56Y5.271
X42.1Y5.271
X36.817Y25.847
X39.357Y25.847
X41.897Y25.847
X44.437Y25.847
X6.477Y42.164
X15.478Y45.974
X18.018Y45.974
X20.558Y45.974
X23.098Y45.974
X49.466Y25.908
X6.477Y45.91
X9.017Y45.91
X11.557Y45.91
X6.223Y26.924
X6.223Y23.124
X31.737Y22.037
X31.737Y9.337
X34.277Y22.037
X34.277Y9.337
X36.817Y22.037
X36.817Y9.337
X39.357Y22.037
X39.357Y9.337
X41.897Y22.037
X41.897Y9.337
X44.437Y22.037
X44.437Y9.337
X46.977Y22.037
X46.977Y9.337
X49.517Y22.037
X49.517Y9.337
X36.703Y45.974
X39.243Y45.974
X41.783Y45.974
X44.323Y45.974
X28.067Y38.1
X28.067Y34.3
X27.432Y26.479
X31.623Y42.164
X31.623Y29.464
X34.163Y42.164
X34.163Y29.464
X36.703Y42.164
X36.703Y29.464
X39.243Y42.164
X39.243Y29.464
X41.783Y42.164
X41.783Y29.464
X44.323Y42.164
X44.323Y29.464
X46.863Y42.164
X46.863Y29.464
X49.403Y42.164
X49.403Y29.464
X14.16Y3.556
X8.445Y11.43
X13.525Y11.43
X10.398Y42.164
X10.398Y29.464
X12.938Y42.164
X12.938Y29.464
X15.478Y42.164
X15.478Y29.464
X18.018Y42.164
X18.018Y29.464
X20.558Y42.164
X20.558Y29.464
X23.098Y42.164
X23.098Y29.464
X25.638Y42.164
X25.638Y29.464
X28.178Y42.164
X28.178Y29.464
X49.403Y38.1
X49.403Y34.3
X48.133Y3.238
X45.021Y3.238
X49.517Y18.034
X49.517Y14.234
X11.112Y21.209
X13.652Y21.209
X16.192Y21.209
T0
M30
