G04 #@! TF.GenerationSoftware,KiCad,Pcbnew,5.1.6-c6e7f7d~87~ubuntu20.04.1*
G04 #@! TF.CreationDate,2020-10-10T15:03:59+02:00*
G04 #@! TF.ProjectId,cnc-shield,636e632d-7368-4696-956c-642e6b696361,rev?*
G04 #@! TF.SameCoordinates,PX2f5b4a8PY699d1c0*
G04 #@! TF.FileFunction,Copper,L1,Top*
G04 #@! TF.FilePolarity,Positive*
%FSLAX46Y46*%
G04 Gerber Fmt 4.6, Leading zero omitted, Abs format (unit mm)*
G04 Created by KiCad (PCBNEW 5.1.6-c6e7f7d~87~ubuntu20.04.1) date 2020-10-10 15:03:59*
%MOMM*%
%LPD*%
G01*
G04 APERTURE LIST*
G04 #@! TA.AperFunction,ComponentPad*
%ADD10C,2.000000*%
G04 #@! TD*
G04 #@! TA.AperFunction,ComponentPad*
%ADD11O,2.000000X2.000000*%
G04 #@! TD*
G04 #@! TA.AperFunction,ComponentPad*
%ADD12R,2.000000X2.000000*%
G04 #@! TD*
G04 #@! TA.AperFunction,Conductor*
%ADD13C,0.600000*%
G04 #@! TD*
G04 #@! TA.AperFunction,Conductor*
%ADD14C,0.254000*%
G04 #@! TD*
G04 APERTURE END LIST*
D10*
X45021500Y3238500D03*
X27432000Y26479500D03*
X14160500Y3556000D03*
X6477000Y42164000D03*
X48133000Y3238500D03*
X49466500Y25908000D03*
D11*
X19240500Y5270500D03*
X21780500Y5270500D03*
X24320500Y5270500D03*
X26860500Y5270500D03*
X29400500Y5270500D03*
X31940500Y5270500D03*
X34480500Y5270500D03*
X37020500Y5270500D03*
X39560500Y5270500D03*
D12*
X42100500Y5270500D03*
D11*
X16192500Y21209000D03*
X13652500Y21209000D03*
D12*
X11112500Y21209000D03*
D11*
X23098000Y45974000D03*
X20558000Y45974000D03*
X18018000Y45974000D03*
D12*
X15478000Y45974000D03*
D11*
X44323000Y45974000D03*
X41783000Y45974000D03*
X39243000Y45974000D03*
D12*
X36703000Y45974000D03*
D10*
X8445500Y11430000D03*
D12*
X13525500Y11430000D03*
D11*
X44437000Y25847000D03*
X41897000Y25847000D03*
X39357000Y25847000D03*
D12*
X36817000Y25847000D03*
D11*
X6477000Y45910500D03*
X9017000Y45910500D03*
D12*
X11557000Y45910500D03*
D11*
X21145500Y10414000D03*
D12*
X21145500Y20574000D03*
D10*
X28067000Y34300000D03*
D12*
X28067000Y38100000D03*
D10*
X6223000Y23124000D03*
D12*
X6223000Y26924000D03*
D10*
X49403000Y34300000D03*
D12*
X49403000Y38100000D03*
D10*
X49517000Y14234000D03*
D12*
X49517000Y18034000D03*
D11*
X10398000Y29464000D03*
X28178000Y42164000D03*
X12938000Y29464000D03*
X25638000Y42164000D03*
X15478000Y29464000D03*
X23098000Y42164000D03*
X18018000Y29464000D03*
X20558000Y42164000D03*
X20558000Y29464000D03*
X18018000Y42164000D03*
X23098000Y29464000D03*
X15478000Y42164000D03*
X25638000Y29464000D03*
X12938000Y42164000D03*
X28178000Y29464000D03*
D12*
X10398000Y42164000D03*
D11*
X31623000Y29464000D03*
X49403000Y42164000D03*
X34163000Y29464000D03*
X46863000Y42164000D03*
X36703000Y29464000D03*
X44323000Y42164000D03*
X39243000Y29464000D03*
X41783000Y42164000D03*
X41783000Y29464000D03*
X39243000Y42164000D03*
X44323000Y29464000D03*
X36703000Y42164000D03*
X46863000Y29464000D03*
X34163000Y42164000D03*
X49403000Y29464000D03*
D12*
X31623000Y42164000D03*
D11*
X31737000Y9337000D03*
X49517000Y22037000D03*
X34277000Y9337000D03*
X46977000Y22037000D03*
X36817000Y9337000D03*
X44437000Y22037000D03*
X39357000Y9337000D03*
X41897000Y22037000D03*
X41897000Y9337000D03*
X39357000Y22037000D03*
X44437000Y9337000D03*
X36817000Y22037000D03*
X46977000Y9337000D03*
X34277000Y22037000D03*
X49517000Y9337000D03*
D12*
X31737000Y22037000D03*
D13*
X6223000Y23124000D02*
X7503000Y23124000D01*
X7503000Y23124000D02*
X8128000Y23749000D01*
X8128000Y23749000D02*
X12573000Y23749000D01*
X13652500Y22669500D02*
X13652500Y21209000D01*
X12573000Y23749000D02*
X13652500Y22669500D01*
X36817000Y9337000D02*
X39357000Y9337000D01*
X49466500Y29400500D02*
X49403000Y29464000D01*
X49466500Y25908000D02*
X49466500Y29400500D01*
X27432000Y26479500D02*
X28257500Y27305000D01*
X28257500Y29384500D02*
X28178000Y29464000D01*
X28257500Y27305000D02*
X28257500Y29384500D01*
X23812500Y3238500D02*
X45021500Y3238500D01*
X21780500Y5270500D02*
X23812500Y3238500D01*
X45021500Y3238500D02*
X48133000Y3238500D01*
X48133000Y3238500D02*
X49403000Y4508500D01*
X49403000Y9223000D02*
X49517000Y9337000D01*
X49403000Y4508500D02*
X49403000Y9223000D01*
X12938000Y42164000D02*
X12938000Y39767000D01*
X41897000Y7988000D02*
X41897000Y9337000D01*
X40767000Y6858000D02*
X41897000Y7988000D01*
X41897000Y9337000D02*
X44437000Y9337000D01*
X44437000Y9337000D02*
X46977000Y9337000D01*
X41783000Y29464000D02*
X44323000Y29464000D01*
X44323000Y29464000D02*
X46863000Y29464000D01*
X20558000Y29464000D02*
X23098000Y29464000D01*
X23098000Y29464000D02*
X25638000Y29464000D01*
X41783000Y29464000D02*
X41783000Y28194000D01*
X41783000Y28194000D02*
X41275000Y27686000D01*
X34277000Y26267002D02*
X34277000Y22037000D01*
X35695998Y27686000D02*
X34277000Y26267002D01*
X41275000Y27686000D02*
X35695998Y27686000D01*
X34277000Y22037000D02*
X34277000Y19444000D01*
X41897000Y11824000D02*
X41897000Y9337000D01*
X34277000Y19444000D02*
X41897000Y11824000D01*
X12827000Y35814000D02*
X12938000Y35925000D01*
X12938000Y35925000D02*
X12938000Y39767000D01*
X25638000Y32147000D02*
X25527000Y32258000D01*
X25638000Y29464000D02*
X25638000Y32147000D01*
X12938000Y32369000D02*
X12827000Y32258000D01*
X12938000Y35925000D02*
X12938000Y32369000D01*
X12827000Y32258000D02*
X25527000Y32258000D01*
X41783000Y30734000D02*
X41783000Y29464000D01*
X40259000Y32258000D02*
X41783000Y30734000D01*
X34163000Y32512000D02*
X34417000Y32258000D01*
X34163000Y42164000D02*
X34163000Y32512000D01*
X34417000Y32258000D02*
X40259000Y32258000D01*
X25527000Y32258000D02*
X34417000Y32258000D01*
X39560500Y5270500D02*
X39560500Y5842000D01*
X40767000Y6858000D02*
X40259000Y6858000D01*
X39560500Y6159500D02*
X39560500Y5270500D01*
X40259000Y6858000D02*
X39560500Y6159500D01*
X9017000Y45910500D02*
X9017000Y44132500D01*
X9017000Y44132500D02*
X12954000Y44132500D01*
X12954000Y42180000D02*
X12938000Y42164000D01*
X12954000Y44132500D02*
X12954000Y42180000D01*
X9779000Y32258000D02*
X12827000Y32258000D01*
X6223000Y28702000D02*
X9779000Y32258000D01*
X6223000Y26924000D02*
X6223000Y28702000D01*
X15113000Y23749000D02*
X16192500Y22669500D01*
X13704384Y23749000D02*
X15113000Y23749000D01*
X16192500Y22669500D02*
X16192500Y21209000D01*
X10529384Y26924000D02*
X13704384Y23749000D01*
X6223000Y26924000D02*
X10529384Y26924000D01*
X39357000Y25847000D02*
X39357000Y22037000D01*
X36817000Y25847000D02*
X36817000Y22037000D01*
X36703000Y29464000D02*
X39243000Y29464000D01*
X44323000Y45974000D02*
X44323000Y42164000D01*
X41783000Y45974000D02*
X41783000Y42164000D01*
X39243000Y45974000D02*
X39243000Y42164000D01*
X36703000Y45974000D02*
X36703000Y42164000D01*
X15478000Y29464000D02*
X18018000Y29464000D01*
X23098000Y45974000D02*
X23098000Y42164000D01*
X20558000Y45974000D02*
X20558000Y42164000D01*
X18018000Y45974000D02*
X18018000Y42164000D01*
X15478000Y45974000D02*
X15478000Y42164000D01*
X34480500Y6593500D02*
X31737000Y9337000D01*
X34480500Y5270500D02*
X34480500Y6593500D01*
X49403000Y38100000D02*
X49403000Y42164000D01*
X28067000Y42053000D02*
X28178000Y42164000D01*
X28067000Y38100000D02*
X28067000Y42053000D01*
X49517000Y18034000D02*
X49517000Y22037000D01*
X51689000Y46482000D02*
X49657000Y48514000D01*
X49403000Y42164000D02*
X51435000Y42164000D01*
X34528000Y48514000D02*
X49657000Y48514000D01*
X28178000Y42164000D02*
X34528000Y48514000D01*
X11112500Y17653000D02*
X11112500Y21209000D01*
X21145500Y20574000D02*
X21145500Y19494500D01*
X17526000Y15875000D02*
X11112500Y15875000D01*
X21145500Y19494500D02*
X17526000Y15875000D01*
X11112500Y15875000D02*
X11112500Y17653000D01*
X49517000Y22037000D02*
X51628000Y22037000D01*
X51689000Y46482000D02*
X51752500Y46482000D01*
X51752500Y46482000D02*
X52832000Y45402500D01*
X52766000Y22037000D02*
X52832000Y21971000D01*
X51628000Y22037000D02*
X52766000Y22037000D01*
X51435000Y42164000D02*
X52578000Y42164000D01*
X52578000Y42164000D02*
X52832000Y42418000D01*
X52832000Y42418000D02*
X52832000Y21971000D01*
X52832000Y45402500D02*
X52832000Y42418000D01*
X52832000Y21971000D02*
X52832000Y3810000D01*
X50998499Y1976499D02*
X50998499Y1912999D01*
X52832000Y3810000D02*
X50998499Y1976499D01*
X50998499Y1912999D02*
X50228500Y1143000D01*
X50228500Y1143000D02*
X13589000Y1143000D01*
X11112500Y3619500D02*
X11112500Y15875000D01*
X13589000Y1143000D02*
X11112500Y3619500D01*
X37020500Y6593500D02*
X34277000Y9337000D01*
X37020500Y5270500D02*
X37020500Y6593500D01*
X44437000Y25847000D02*
X44437000Y22037000D01*
X41897000Y25847000D02*
X41897000Y22037000D01*
X31623000Y29464000D02*
X31623000Y27241500D01*
X31623000Y27241500D02*
X28702000Y24320500D01*
X28702000Y5969000D02*
X29400500Y5270500D01*
X28702000Y24320500D02*
X28702000Y5969000D01*
X34163000Y28448000D02*
X34163000Y29464000D01*
X31940500Y5270500D02*
X31940500Y6096000D01*
X31940500Y6096000D02*
X29908500Y8128000D01*
X29908500Y8128000D02*
X29908500Y23431500D01*
X34163000Y27686000D02*
X34163000Y28448000D01*
X29908500Y23431500D02*
X34163000Y27686000D01*
X10625927Y28151927D02*
X10398000Y29464000D01*
X14097000Y25400000D02*
X10625927Y28151927D01*
X23241000Y25400000D02*
X14097000Y25400000D01*
X25844500Y22796500D02*
X23241000Y25400000D01*
X25844500Y8001000D02*
X25844500Y22796500D01*
X24320500Y6477000D02*
X25844500Y8001000D01*
X24320500Y5270500D02*
X24320500Y6477000D01*
X12938000Y27829000D02*
X12938000Y29464000D01*
X13589000Y27178000D02*
X12938000Y27829000D01*
X24257000Y27178000D02*
X13589000Y27178000D01*
X27368500Y24066500D02*
X24257000Y27178000D01*
X27368500Y6985000D02*
X27368500Y24066500D01*
X26860500Y6477000D02*
X27368500Y6985000D01*
X26860500Y5270500D02*
X26860500Y6477000D01*
X20129500Y11430000D02*
X21145500Y10414000D01*
X13525500Y11430000D02*
X20129500Y11430000D01*
X6477000Y45910500D02*
X6477000Y42164000D01*
X17526000Y3556000D02*
X19240500Y5270500D01*
X14160500Y3556000D02*
X17526000Y3556000D01*
D14*
G36*
X28286918Y44291000D02*
G01*
X27968509Y44291000D01*
X27557577Y44209261D01*
X27170488Y44048923D01*
X26822116Y43816149D01*
X26533186Y43527219D01*
X26493382Y43557399D01*
X26205107Y43697502D01*
X26018434Y43754124D01*
X25765000Y43634777D01*
X25765000Y42291000D01*
X25785000Y42291000D01*
X25785000Y42037000D01*
X25765000Y42037000D01*
X25765000Y40693223D01*
X26018434Y40573876D01*
X26205107Y40630498D01*
X26493382Y40770601D01*
X26533186Y40800781D01*
X26640001Y40693966D01*
X26640001Y40148183D01*
X26633629Y40146250D01*
X26437843Y40041600D01*
X26266235Y39900765D01*
X26125400Y39729157D01*
X26020750Y39533371D01*
X25956307Y39320931D01*
X25934547Y39100000D01*
X25934547Y37100000D01*
X25956307Y36879069D01*
X26020750Y36666629D01*
X26125400Y36470843D01*
X26266235Y36299235D01*
X26437843Y36158400D01*
X26633629Y36053750D01*
X26846069Y35989307D01*
X27067000Y35967547D01*
X29067000Y35967547D01*
X29287931Y35989307D01*
X29500371Y36053750D01*
X29696157Y36158400D01*
X29867765Y36299235D01*
X30008600Y36470843D01*
X30113250Y36666629D01*
X30177693Y36879069D01*
X30199453Y37100000D01*
X30199453Y39100000D01*
X30177693Y39320931D01*
X30113250Y39533371D01*
X30008600Y39729157D01*
X29867765Y39900765D01*
X29696157Y40041600D01*
X29500371Y40146250D01*
X29494000Y40148183D01*
X29494000Y40485201D01*
X29533884Y40511851D01*
X29830149Y40808116D01*
X29995592Y41055720D01*
X29997188Y41039518D01*
X30033498Y40919820D01*
X30092463Y40809506D01*
X30171815Y40712815D01*
X30268506Y40633463D01*
X30378820Y40574498D01*
X30498518Y40538188D01*
X30623000Y40525928D01*
X31337250Y40529000D01*
X31496000Y40687750D01*
X31496000Y42037000D01*
X31476000Y42037000D01*
X31476000Y42291000D01*
X31496000Y42291000D01*
X31496000Y42311000D01*
X31750000Y42311000D01*
X31750000Y42291000D01*
X31770000Y42291000D01*
X31770000Y42037000D01*
X31750000Y42037000D01*
X31750000Y40687750D01*
X31908750Y40529000D01*
X32623000Y40525928D01*
X32736000Y40537057D01*
X32736001Y33685000D01*
X29586021Y33685000D01*
X29607704Y33729571D01*
X29689384Y34041108D01*
X29708718Y34362595D01*
X29664961Y34681675D01*
X29559795Y34986088D01*
X29466814Y35160044D01*
X29202413Y35255808D01*
X28246605Y34300000D01*
X28260748Y34285857D01*
X28081143Y34106252D01*
X28067000Y34120395D01*
X28052858Y34106252D01*
X27873253Y34285857D01*
X27887395Y34300000D01*
X26931587Y35255808D01*
X26667186Y35160044D01*
X26526296Y34870429D01*
X26444616Y34558892D01*
X26425282Y34237405D01*
X26469039Y33918325D01*
X26549646Y33685000D01*
X25597088Y33685000D01*
X25527000Y33691903D01*
X25456912Y33685000D01*
X14365000Y33685000D01*
X14365000Y35435413D01*
X27111192Y35435413D01*
X28067000Y34479605D01*
X29022808Y35435413D01*
X28927044Y35699814D01*
X28637429Y35840704D01*
X28325892Y35922384D01*
X28004405Y35941718D01*
X27685325Y35897961D01*
X27380912Y35792795D01*
X27206956Y35699814D01*
X27111192Y35435413D01*
X14365000Y35435413D01*
X14365000Y35854910D01*
X14371903Y35925000D01*
X14365000Y35995090D01*
X14365000Y40349562D01*
X14470488Y40279077D01*
X14857577Y40118739D01*
X15268509Y40037000D01*
X15687491Y40037000D01*
X16098423Y40118739D01*
X16485512Y40279077D01*
X16748000Y40454465D01*
X17010488Y40279077D01*
X17397577Y40118739D01*
X17808509Y40037000D01*
X18227491Y40037000D01*
X18638423Y40118739D01*
X19025512Y40279077D01*
X19288000Y40454465D01*
X19550488Y40279077D01*
X19937577Y40118739D01*
X20348509Y40037000D01*
X20767491Y40037000D01*
X21178423Y40118739D01*
X21565512Y40279077D01*
X21828000Y40454465D01*
X22090488Y40279077D01*
X22477577Y40118739D01*
X22888509Y40037000D01*
X23307491Y40037000D01*
X23718423Y40118739D01*
X24105512Y40279077D01*
X24453884Y40511851D01*
X24742814Y40800781D01*
X24782618Y40770601D01*
X25070893Y40630498D01*
X25257566Y40573876D01*
X25511000Y40693223D01*
X25511000Y42037000D01*
X25491000Y42037000D01*
X25491000Y42291000D01*
X25511000Y42291000D01*
X25511000Y43634777D01*
X25257566Y43754124D01*
X25070893Y43697502D01*
X24782618Y43557399D01*
X24742814Y43527219D01*
X24525000Y43745033D01*
X24525000Y44392967D01*
X24750149Y44618116D01*
X24982923Y44966488D01*
X25143261Y45353577D01*
X25225000Y45764509D01*
X25225000Y46183491D01*
X25143261Y46594423D01*
X24982923Y46981512D01*
X24750149Y47329884D01*
X24453884Y47626149D01*
X24105512Y47858923D01*
X23718423Y48019261D01*
X23307491Y48101000D01*
X22888509Y48101000D01*
X22477577Y48019261D01*
X22090488Y47858923D01*
X21828000Y47683535D01*
X21565512Y47858923D01*
X21178423Y48019261D01*
X20767491Y48101000D01*
X20348509Y48101000D01*
X19937577Y48019261D01*
X19550488Y47858923D01*
X19288000Y47683535D01*
X19025512Y47858923D01*
X18638423Y48019261D01*
X18227491Y48101000D01*
X17808509Y48101000D01*
X17397577Y48019261D01*
X17120628Y47904545D01*
X17107157Y47915600D01*
X16911371Y48020250D01*
X16698931Y48084693D01*
X16478000Y48106453D01*
X14478000Y48106453D01*
X14257069Y48084693D01*
X14044629Y48020250D01*
X13848843Y47915600D01*
X13677235Y47774765D01*
X13536400Y47603157D01*
X13431750Y47407371D01*
X13367307Y47194931D01*
X13345547Y46974000D01*
X13345547Y45504936D01*
X13233741Y45538852D01*
X13192352Y45542928D01*
X13192000Y45624750D01*
X13033250Y45783500D01*
X11684000Y45783500D01*
X11684000Y45763500D01*
X11430000Y45763500D01*
X11430000Y45783500D01*
X11410000Y45783500D01*
X11410000Y46037500D01*
X11430000Y46037500D01*
X11430000Y47386750D01*
X11684000Y47386750D01*
X11684000Y46037500D01*
X13033250Y46037500D01*
X13192000Y46196250D01*
X13195072Y46910500D01*
X13182812Y47034982D01*
X13146502Y47154680D01*
X13087537Y47264994D01*
X13008185Y47361685D01*
X12911494Y47441037D01*
X12801180Y47500002D01*
X12681482Y47536312D01*
X12557000Y47548572D01*
X11842750Y47545500D01*
X11684000Y47386750D01*
X11430000Y47386750D01*
X11271250Y47545500D01*
X10557000Y47548572D01*
X10432518Y47536312D01*
X10406971Y47528562D01*
X10372884Y47562649D01*
X10024512Y47795423D01*
X9637423Y47955761D01*
X9226491Y48037500D01*
X8807509Y48037500D01*
X8396577Y47955761D01*
X8009488Y47795423D01*
X7747000Y47620035D01*
X7484512Y47795423D01*
X7097423Y47955761D01*
X6686491Y48037500D01*
X6267509Y48037500D01*
X5856577Y47955761D01*
X5469488Y47795423D01*
X5121116Y47562649D01*
X4824851Y47266384D01*
X4592077Y46918012D01*
X4431739Y46530923D01*
X4350000Y46119991D01*
X4350000Y45701009D01*
X4431739Y45290077D01*
X4592077Y44902988D01*
X4824851Y44554616D01*
X5050000Y44329467D01*
X5050001Y43745034D01*
X4824851Y43519884D01*
X4592077Y43171512D01*
X4431739Y42784423D01*
X4350000Y42373491D01*
X4350000Y41954509D01*
X4431739Y41543577D01*
X4592077Y41156488D01*
X4824851Y40808116D01*
X5121116Y40511851D01*
X5469488Y40279077D01*
X5856577Y40118739D01*
X6267509Y40037000D01*
X6686491Y40037000D01*
X7097423Y40118739D01*
X7484512Y40279077D01*
X7832884Y40511851D01*
X8129149Y40808116D01*
X8361923Y41156488D01*
X8365034Y41164000D01*
X8759928Y41164000D01*
X8772188Y41039518D01*
X8808498Y40919820D01*
X8867463Y40809506D01*
X8946815Y40712815D01*
X9043506Y40633463D01*
X9153820Y40574498D01*
X9273518Y40538188D01*
X9398000Y40525928D01*
X10112250Y40529000D01*
X10271000Y40687750D01*
X10271000Y42037000D01*
X8921750Y42037000D01*
X8763000Y41878250D01*
X8759928Y41164000D01*
X8365034Y41164000D01*
X8522261Y41543577D01*
X8604000Y41954509D01*
X8604000Y42373491D01*
X8522261Y42784423D01*
X8518971Y42792365D01*
X8737259Y42726148D01*
X8761822Y42723729D01*
X8763000Y42449750D01*
X8921750Y42291000D01*
X10271000Y42291000D01*
X10271000Y42311000D01*
X10525000Y42311000D01*
X10525000Y42291000D01*
X10545000Y42291000D01*
X10545000Y42037000D01*
X10525000Y42037000D01*
X10525000Y40687750D01*
X10683750Y40529000D01*
X11398000Y40525928D01*
X11511001Y40537057D01*
X11511001Y39837098D01*
X11511000Y36379109D01*
X11502246Y36362731D01*
X11420649Y36093741D01*
X11393097Y35814000D01*
X11420649Y35534259D01*
X11502246Y35265269D01*
X11511000Y35248891D01*
X11511001Y33685000D01*
X9849087Y33685000D01*
X9778999Y33691903D01*
X9708911Y33685000D01*
X9708902Y33685000D01*
X9499259Y33664352D01*
X9230269Y33582755D01*
X8982366Y33450248D01*
X8765077Y33271923D01*
X8720392Y33217474D01*
X5263523Y29760605D01*
X5209078Y29715923D01*
X5164396Y29661478D01*
X5164392Y29661474D01*
X5059857Y29534097D01*
X5030753Y29498634D01*
X4898246Y29250731D01*
X4816649Y28981741D01*
X4816315Y28978345D01*
X4789629Y28970250D01*
X4593843Y28865600D01*
X4422235Y28724765D01*
X4281400Y28553157D01*
X4176750Y28357371D01*
X4112307Y28144931D01*
X4090547Y27924000D01*
X4090547Y25924000D01*
X4112307Y25703069D01*
X4176750Y25490629D01*
X4281400Y25294843D01*
X4422235Y25123235D01*
X4593843Y24982400D01*
X4789629Y24877750D01*
X5002069Y24813307D01*
X5223000Y24791547D01*
X7223000Y24791547D01*
X7443931Y24813307D01*
X7656371Y24877750D01*
X7852157Y24982400D01*
X8023765Y25123235D01*
X8164600Y25294843D01*
X8269250Y25490629D01*
X8271183Y25497000D01*
X9938302Y25497000D01*
X12093848Y23341453D01*
X10112500Y23341453D01*
X9891569Y23319693D01*
X9679129Y23255250D01*
X9483343Y23150600D01*
X9311735Y23009765D01*
X9170900Y22838157D01*
X9066250Y22642371D01*
X9001807Y22429931D01*
X8980047Y22209000D01*
X8980047Y20209000D01*
X9001807Y19988069D01*
X9066250Y19775629D01*
X9170900Y19579843D01*
X9311735Y19408235D01*
X9483343Y19267400D01*
X9679129Y19162750D01*
X9685500Y19160817D01*
X9685500Y15945098D01*
X9678596Y15875000D01*
X9685501Y15804892D01*
X9685501Y12347927D01*
X9580913Y12385808D01*
X8625105Y11430000D01*
X9580913Y10474192D01*
X9685501Y10512073D01*
X9685500Y3689588D01*
X9678597Y3619500D01*
X9685500Y3549412D01*
X9685500Y3549403D01*
X9706148Y3339760D01*
X9787745Y3070770D01*
X9920252Y2822867D01*
X9920253Y2822866D01*
X10053892Y2660026D01*
X10053895Y2660023D01*
X10098577Y2605578D01*
X10153023Y2560895D01*
X11561917Y1152000D01*
X1153477Y1152000D01*
X1165196Y10294587D01*
X7489692Y10294587D01*
X7585456Y10030186D01*
X7875071Y9889296D01*
X8186608Y9807616D01*
X8508095Y9788282D01*
X8827175Y9832039D01*
X9131588Y9937205D01*
X9305544Y10030186D01*
X9401308Y10294587D01*
X8445500Y11250395D01*
X7489692Y10294587D01*
X1165196Y10294587D01*
X1166572Y11367405D01*
X6803782Y11367405D01*
X6847539Y11048325D01*
X6952705Y10743912D01*
X7045686Y10569956D01*
X7310087Y10474192D01*
X8265895Y11430000D01*
X7310087Y12385808D01*
X7045686Y12290044D01*
X6904796Y12000429D01*
X6823116Y11688892D01*
X6803782Y11367405D01*
X1166572Y11367405D01*
X1168107Y12565413D01*
X7489692Y12565413D01*
X8445500Y11609605D01*
X9401308Y12565413D01*
X9305544Y12829814D01*
X9015929Y12970704D01*
X8704392Y13052384D01*
X8382905Y13071718D01*
X8063825Y13027961D01*
X7759412Y12922795D01*
X7585456Y12829814D01*
X7489692Y12565413D01*
X1168107Y12565413D01*
X1180189Y21988587D01*
X5267192Y21988587D01*
X5362956Y21724186D01*
X5652571Y21583296D01*
X5964108Y21501616D01*
X6285595Y21482282D01*
X6604675Y21526039D01*
X6909088Y21631205D01*
X7083044Y21724186D01*
X7178808Y21988587D01*
X6223000Y22944395D01*
X5267192Y21988587D01*
X1180189Y21988587D01*
X1181565Y23061405D01*
X4581282Y23061405D01*
X4625039Y22742325D01*
X4730205Y22437912D01*
X4823186Y22263956D01*
X5087587Y22168192D01*
X6043395Y23124000D01*
X6402605Y23124000D01*
X7358413Y22168192D01*
X7622814Y22263956D01*
X7763704Y22553571D01*
X7845384Y22865108D01*
X7864718Y23186595D01*
X7820961Y23505675D01*
X7715795Y23810088D01*
X7622814Y23984044D01*
X7358413Y24079808D01*
X6402605Y23124000D01*
X6043395Y23124000D01*
X5087587Y24079808D01*
X4823186Y23984044D01*
X4682296Y23694429D01*
X4600616Y23382892D01*
X4581282Y23061405D01*
X1181565Y23061405D01*
X1183100Y24259413D01*
X5267192Y24259413D01*
X6223000Y23303605D01*
X7178808Y24259413D01*
X7083044Y24523814D01*
X6793429Y24664704D01*
X6481892Y24746384D01*
X6160405Y24765718D01*
X5841325Y24721961D01*
X5536912Y24616795D01*
X5362956Y24523814D01*
X5267192Y24259413D01*
X1183100Y24259413D01*
X1214023Y48378000D01*
X32373917Y48378000D01*
X28286918Y44291000D01*
G37*
X28286918Y44291000D02*
X27968509Y44291000D01*
X27557577Y44209261D01*
X27170488Y44048923D01*
X26822116Y43816149D01*
X26533186Y43527219D01*
X26493382Y43557399D01*
X26205107Y43697502D01*
X26018434Y43754124D01*
X25765000Y43634777D01*
X25765000Y42291000D01*
X25785000Y42291000D01*
X25785000Y42037000D01*
X25765000Y42037000D01*
X25765000Y40693223D01*
X26018434Y40573876D01*
X26205107Y40630498D01*
X26493382Y40770601D01*
X26533186Y40800781D01*
X26640001Y40693966D01*
X26640001Y40148183D01*
X26633629Y40146250D01*
X26437843Y40041600D01*
X26266235Y39900765D01*
X26125400Y39729157D01*
X26020750Y39533371D01*
X25956307Y39320931D01*
X25934547Y39100000D01*
X25934547Y37100000D01*
X25956307Y36879069D01*
X26020750Y36666629D01*
X26125400Y36470843D01*
X26266235Y36299235D01*
X26437843Y36158400D01*
X26633629Y36053750D01*
X26846069Y35989307D01*
X27067000Y35967547D01*
X29067000Y35967547D01*
X29287931Y35989307D01*
X29500371Y36053750D01*
X29696157Y36158400D01*
X29867765Y36299235D01*
X30008600Y36470843D01*
X30113250Y36666629D01*
X30177693Y36879069D01*
X30199453Y37100000D01*
X30199453Y39100000D01*
X30177693Y39320931D01*
X30113250Y39533371D01*
X30008600Y39729157D01*
X29867765Y39900765D01*
X29696157Y40041600D01*
X29500371Y40146250D01*
X29494000Y40148183D01*
X29494000Y40485201D01*
X29533884Y40511851D01*
X29830149Y40808116D01*
X29995592Y41055720D01*
X29997188Y41039518D01*
X30033498Y40919820D01*
X30092463Y40809506D01*
X30171815Y40712815D01*
X30268506Y40633463D01*
X30378820Y40574498D01*
X30498518Y40538188D01*
X30623000Y40525928D01*
X31337250Y40529000D01*
X31496000Y40687750D01*
X31496000Y42037000D01*
X31476000Y42037000D01*
X31476000Y42291000D01*
X31496000Y42291000D01*
X31496000Y42311000D01*
X31750000Y42311000D01*
X31750000Y42291000D01*
X31770000Y42291000D01*
X31770000Y42037000D01*
X31750000Y42037000D01*
X31750000Y40687750D01*
X31908750Y40529000D01*
X32623000Y40525928D01*
X32736000Y40537057D01*
X32736001Y33685000D01*
X29586021Y33685000D01*
X29607704Y33729571D01*
X29689384Y34041108D01*
X29708718Y34362595D01*
X29664961Y34681675D01*
X29559795Y34986088D01*
X29466814Y35160044D01*
X29202413Y35255808D01*
X28246605Y34300000D01*
X28260748Y34285857D01*
X28081143Y34106252D01*
X28067000Y34120395D01*
X28052858Y34106252D01*
X27873253Y34285857D01*
X27887395Y34300000D01*
X26931587Y35255808D01*
X26667186Y35160044D01*
X26526296Y34870429D01*
X26444616Y34558892D01*
X26425282Y34237405D01*
X26469039Y33918325D01*
X26549646Y33685000D01*
X25597088Y33685000D01*
X25527000Y33691903D01*
X25456912Y33685000D01*
X14365000Y33685000D01*
X14365000Y35435413D01*
X27111192Y35435413D01*
X28067000Y34479605D01*
X29022808Y35435413D01*
X28927044Y35699814D01*
X28637429Y35840704D01*
X28325892Y35922384D01*
X28004405Y35941718D01*
X27685325Y35897961D01*
X27380912Y35792795D01*
X27206956Y35699814D01*
X27111192Y35435413D01*
X14365000Y35435413D01*
X14365000Y35854910D01*
X14371903Y35925000D01*
X14365000Y35995090D01*
X14365000Y40349562D01*
X14470488Y40279077D01*
X14857577Y40118739D01*
X15268509Y40037000D01*
X15687491Y40037000D01*
X16098423Y40118739D01*
X16485512Y40279077D01*
X16748000Y40454465D01*
X17010488Y40279077D01*
X17397577Y40118739D01*
X17808509Y40037000D01*
X18227491Y40037000D01*
X18638423Y40118739D01*
X19025512Y40279077D01*
X19288000Y40454465D01*
X19550488Y40279077D01*
X19937577Y40118739D01*
X20348509Y40037000D01*
X20767491Y40037000D01*
X21178423Y40118739D01*
X21565512Y40279077D01*
X21828000Y40454465D01*
X22090488Y40279077D01*
X22477577Y40118739D01*
X22888509Y40037000D01*
X23307491Y40037000D01*
X23718423Y40118739D01*
X24105512Y40279077D01*
X24453884Y40511851D01*
X24742814Y40800781D01*
X24782618Y40770601D01*
X25070893Y40630498D01*
X25257566Y40573876D01*
X25511000Y40693223D01*
X25511000Y42037000D01*
X25491000Y42037000D01*
X25491000Y42291000D01*
X25511000Y42291000D01*
X25511000Y43634777D01*
X25257566Y43754124D01*
X25070893Y43697502D01*
X24782618Y43557399D01*
X24742814Y43527219D01*
X24525000Y43745033D01*
X24525000Y44392967D01*
X24750149Y44618116D01*
X24982923Y44966488D01*
X25143261Y45353577D01*
X25225000Y45764509D01*
X25225000Y46183491D01*
X25143261Y46594423D01*
X24982923Y46981512D01*
X24750149Y47329884D01*
X24453884Y47626149D01*
X24105512Y47858923D01*
X23718423Y48019261D01*
X23307491Y48101000D01*
X22888509Y48101000D01*
X22477577Y48019261D01*
X22090488Y47858923D01*
X21828000Y47683535D01*
X21565512Y47858923D01*
X21178423Y48019261D01*
X20767491Y48101000D01*
X20348509Y48101000D01*
X19937577Y48019261D01*
X19550488Y47858923D01*
X19288000Y47683535D01*
X19025512Y47858923D01*
X18638423Y48019261D01*
X18227491Y48101000D01*
X17808509Y48101000D01*
X17397577Y48019261D01*
X17120628Y47904545D01*
X17107157Y47915600D01*
X16911371Y48020250D01*
X16698931Y48084693D01*
X16478000Y48106453D01*
X14478000Y48106453D01*
X14257069Y48084693D01*
X14044629Y48020250D01*
X13848843Y47915600D01*
X13677235Y47774765D01*
X13536400Y47603157D01*
X13431750Y47407371D01*
X13367307Y47194931D01*
X13345547Y46974000D01*
X13345547Y45504936D01*
X13233741Y45538852D01*
X13192352Y45542928D01*
X13192000Y45624750D01*
X13033250Y45783500D01*
X11684000Y45783500D01*
X11684000Y45763500D01*
X11430000Y45763500D01*
X11430000Y45783500D01*
X11410000Y45783500D01*
X11410000Y46037500D01*
X11430000Y46037500D01*
X11430000Y47386750D01*
X11684000Y47386750D01*
X11684000Y46037500D01*
X13033250Y46037500D01*
X13192000Y46196250D01*
X13195072Y46910500D01*
X13182812Y47034982D01*
X13146502Y47154680D01*
X13087537Y47264994D01*
X13008185Y47361685D01*
X12911494Y47441037D01*
X12801180Y47500002D01*
X12681482Y47536312D01*
X12557000Y47548572D01*
X11842750Y47545500D01*
X11684000Y47386750D01*
X11430000Y47386750D01*
X11271250Y47545500D01*
X10557000Y47548572D01*
X10432518Y47536312D01*
X10406971Y47528562D01*
X10372884Y47562649D01*
X10024512Y47795423D01*
X9637423Y47955761D01*
X9226491Y48037500D01*
X8807509Y48037500D01*
X8396577Y47955761D01*
X8009488Y47795423D01*
X7747000Y47620035D01*
X7484512Y47795423D01*
X7097423Y47955761D01*
X6686491Y48037500D01*
X6267509Y48037500D01*
X5856577Y47955761D01*
X5469488Y47795423D01*
X5121116Y47562649D01*
X4824851Y47266384D01*
X4592077Y46918012D01*
X4431739Y46530923D01*
X4350000Y46119991D01*
X4350000Y45701009D01*
X4431739Y45290077D01*
X4592077Y44902988D01*
X4824851Y44554616D01*
X5050000Y44329467D01*
X5050001Y43745034D01*
X4824851Y43519884D01*
X4592077Y43171512D01*
X4431739Y42784423D01*
X4350000Y42373491D01*
X4350000Y41954509D01*
X4431739Y41543577D01*
X4592077Y41156488D01*
X4824851Y40808116D01*
X5121116Y40511851D01*
X5469488Y40279077D01*
X5856577Y40118739D01*
X6267509Y40037000D01*
X6686491Y40037000D01*
X7097423Y40118739D01*
X7484512Y40279077D01*
X7832884Y40511851D01*
X8129149Y40808116D01*
X8361923Y41156488D01*
X8365034Y41164000D01*
X8759928Y41164000D01*
X8772188Y41039518D01*
X8808498Y40919820D01*
X8867463Y40809506D01*
X8946815Y40712815D01*
X9043506Y40633463D01*
X9153820Y40574498D01*
X9273518Y40538188D01*
X9398000Y40525928D01*
X10112250Y40529000D01*
X10271000Y40687750D01*
X10271000Y42037000D01*
X8921750Y42037000D01*
X8763000Y41878250D01*
X8759928Y41164000D01*
X8365034Y41164000D01*
X8522261Y41543577D01*
X8604000Y41954509D01*
X8604000Y42373491D01*
X8522261Y42784423D01*
X8518971Y42792365D01*
X8737259Y42726148D01*
X8761822Y42723729D01*
X8763000Y42449750D01*
X8921750Y42291000D01*
X10271000Y42291000D01*
X10271000Y42311000D01*
X10525000Y42311000D01*
X10525000Y42291000D01*
X10545000Y42291000D01*
X10545000Y42037000D01*
X10525000Y42037000D01*
X10525000Y40687750D01*
X10683750Y40529000D01*
X11398000Y40525928D01*
X11511001Y40537057D01*
X11511001Y39837098D01*
X11511000Y36379109D01*
X11502246Y36362731D01*
X11420649Y36093741D01*
X11393097Y35814000D01*
X11420649Y35534259D01*
X11502246Y35265269D01*
X11511000Y35248891D01*
X11511001Y33685000D01*
X9849087Y33685000D01*
X9778999Y33691903D01*
X9708911Y33685000D01*
X9708902Y33685000D01*
X9499259Y33664352D01*
X9230269Y33582755D01*
X8982366Y33450248D01*
X8765077Y33271923D01*
X8720392Y33217474D01*
X5263523Y29760605D01*
X5209078Y29715923D01*
X5164396Y29661478D01*
X5164392Y29661474D01*
X5059857Y29534097D01*
X5030753Y29498634D01*
X4898246Y29250731D01*
X4816649Y28981741D01*
X4816315Y28978345D01*
X4789629Y28970250D01*
X4593843Y28865600D01*
X4422235Y28724765D01*
X4281400Y28553157D01*
X4176750Y28357371D01*
X4112307Y28144931D01*
X4090547Y27924000D01*
X4090547Y25924000D01*
X4112307Y25703069D01*
X4176750Y25490629D01*
X4281400Y25294843D01*
X4422235Y25123235D01*
X4593843Y24982400D01*
X4789629Y24877750D01*
X5002069Y24813307D01*
X5223000Y24791547D01*
X7223000Y24791547D01*
X7443931Y24813307D01*
X7656371Y24877750D01*
X7852157Y24982400D01*
X8023765Y25123235D01*
X8164600Y25294843D01*
X8269250Y25490629D01*
X8271183Y25497000D01*
X9938302Y25497000D01*
X12093848Y23341453D01*
X10112500Y23341453D01*
X9891569Y23319693D01*
X9679129Y23255250D01*
X9483343Y23150600D01*
X9311735Y23009765D01*
X9170900Y22838157D01*
X9066250Y22642371D01*
X9001807Y22429931D01*
X8980047Y22209000D01*
X8980047Y20209000D01*
X9001807Y19988069D01*
X9066250Y19775629D01*
X9170900Y19579843D01*
X9311735Y19408235D01*
X9483343Y19267400D01*
X9679129Y19162750D01*
X9685500Y19160817D01*
X9685500Y15945098D01*
X9678596Y15875000D01*
X9685501Y15804892D01*
X9685501Y12347927D01*
X9580913Y12385808D01*
X8625105Y11430000D01*
X9580913Y10474192D01*
X9685501Y10512073D01*
X9685500Y3689588D01*
X9678597Y3619500D01*
X9685500Y3549412D01*
X9685500Y3549403D01*
X9706148Y3339760D01*
X9787745Y3070770D01*
X9920252Y2822867D01*
X9920253Y2822866D01*
X10053892Y2660026D01*
X10053895Y2660023D01*
X10098577Y2605578D01*
X10153023Y2560895D01*
X11561917Y1152000D01*
X1153477Y1152000D01*
X1165196Y10294587D01*
X7489692Y10294587D01*
X7585456Y10030186D01*
X7875071Y9889296D01*
X8186608Y9807616D01*
X8508095Y9788282D01*
X8827175Y9832039D01*
X9131588Y9937205D01*
X9305544Y10030186D01*
X9401308Y10294587D01*
X8445500Y11250395D01*
X7489692Y10294587D01*
X1165196Y10294587D01*
X1166572Y11367405D01*
X6803782Y11367405D01*
X6847539Y11048325D01*
X6952705Y10743912D01*
X7045686Y10569956D01*
X7310087Y10474192D01*
X8265895Y11430000D01*
X7310087Y12385808D01*
X7045686Y12290044D01*
X6904796Y12000429D01*
X6823116Y11688892D01*
X6803782Y11367405D01*
X1166572Y11367405D01*
X1168107Y12565413D01*
X7489692Y12565413D01*
X8445500Y11609605D01*
X9401308Y12565413D01*
X9305544Y12829814D01*
X9015929Y12970704D01*
X8704392Y13052384D01*
X8382905Y13071718D01*
X8063825Y13027961D01*
X7759412Y12922795D01*
X7585456Y12829814D01*
X7489692Y12565413D01*
X1168107Y12565413D01*
X1180189Y21988587D01*
X5267192Y21988587D01*
X5362956Y21724186D01*
X5652571Y21583296D01*
X5964108Y21501616D01*
X6285595Y21482282D01*
X6604675Y21526039D01*
X6909088Y21631205D01*
X7083044Y21724186D01*
X7178808Y21988587D01*
X6223000Y22944395D01*
X5267192Y21988587D01*
X1180189Y21988587D01*
X1181565Y23061405D01*
X4581282Y23061405D01*
X4625039Y22742325D01*
X4730205Y22437912D01*
X4823186Y22263956D01*
X5087587Y22168192D01*
X6043395Y23124000D01*
X6402605Y23124000D01*
X7358413Y22168192D01*
X7622814Y22263956D01*
X7763704Y22553571D01*
X7845384Y22865108D01*
X7864718Y23186595D01*
X7820961Y23505675D01*
X7715795Y23810088D01*
X7622814Y23984044D01*
X7358413Y24079808D01*
X6402605Y23124000D01*
X6043395Y23124000D01*
X5087587Y24079808D01*
X4823186Y23984044D01*
X4682296Y23694429D01*
X4600616Y23382892D01*
X4581282Y23061405D01*
X1181565Y23061405D01*
X1183100Y24259413D01*
X5267192Y24259413D01*
X6223000Y23303605D01*
X7178808Y24259413D01*
X7083044Y24523814D01*
X6793429Y24664704D01*
X6481892Y24746384D01*
X6160405Y24765718D01*
X5841325Y24721961D01*
X5536912Y24616795D01*
X5362956Y24523814D01*
X5267192Y24259413D01*
X1183100Y24259413D01*
X1214023Y48378000D01*
X32373917Y48378000D01*
X28286918Y44291000D01*
G36*
X45969488Y7452077D02*
G01*
X46356577Y7291739D01*
X46767509Y7210000D01*
X47186491Y7210000D01*
X47597423Y7291739D01*
X47976001Y7448551D01*
X47976000Y5365500D01*
X47923509Y5365500D01*
X47512577Y5283761D01*
X47125488Y5123423D01*
X46777116Y4890649D01*
X46577250Y4690783D01*
X46377384Y4890649D01*
X46029012Y5123423D01*
X45641923Y5283761D01*
X45230991Y5365500D01*
X44812009Y5365500D01*
X44401077Y5283761D01*
X44013988Y5123423D01*
X43735703Y4937480D01*
X43735500Y4984750D01*
X43576750Y5143500D01*
X42227500Y5143500D01*
X42227500Y5123500D01*
X41973500Y5123500D01*
X41973500Y5143500D01*
X41953500Y5143500D01*
X41953500Y5397500D01*
X41973500Y5397500D01*
X41973500Y5417500D01*
X42227500Y5417500D01*
X42227500Y5397500D01*
X43576750Y5397500D01*
X43735500Y5556250D01*
X43738572Y6270500D01*
X43726312Y6394982D01*
X43690002Y6514680D01*
X43631037Y6624994D01*
X43551685Y6721685D01*
X43454994Y6801037D01*
X43344680Y6860002D01*
X43224982Y6896312D01*
X43100500Y6908572D01*
X42834510Y6907428D01*
X42856477Y6929395D01*
X42910922Y6974077D01*
X42960304Y7034248D01*
X43069050Y7166755D01*
X43089248Y7191366D01*
X43221755Y7439269D01*
X43259995Y7565328D01*
X43429488Y7452077D01*
X43816577Y7291739D01*
X44227509Y7210000D01*
X44646491Y7210000D01*
X45057423Y7291739D01*
X45444512Y7452077D01*
X45707000Y7627465D01*
X45969488Y7452077D01*
G37*
X45969488Y7452077D02*
X46356577Y7291739D01*
X46767509Y7210000D01*
X47186491Y7210000D01*
X47597423Y7291739D01*
X47976001Y7448551D01*
X47976000Y5365500D01*
X47923509Y5365500D01*
X47512577Y5283761D01*
X47125488Y5123423D01*
X46777116Y4890649D01*
X46577250Y4690783D01*
X46377384Y4890649D01*
X46029012Y5123423D01*
X45641923Y5283761D01*
X45230991Y5365500D01*
X44812009Y5365500D01*
X44401077Y5283761D01*
X44013988Y5123423D01*
X43735703Y4937480D01*
X43735500Y4984750D01*
X43576750Y5143500D01*
X42227500Y5143500D01*
X42227500Y5123500D01*
X41973500Y5123500D01*
X41973500Y5143500D01*
X41953500Y5143500D01*
X41953500Y5397500D01*
X41973500Y5397500D01*
X41973500Y5417500D01*
X42227500Y5417500D01*
X42227500Y5397500D01*
X43576750Y5397500D01*
X43735500Y5556250D01*
X43738572Y6270500D01*
X43726312Y6394982D01*
X43690002Y6514680D01*
X43631037Y6624994D01*
X43551685Y6721685D01*
X43454994Y6801037D01*
X43344680Y6860002D01*
X43224982Y6896312D01*
X43100500Y6908572D01*
X42834510Y6907428D01*
X42856477Y6929395D01*
X42910922Y6974077D01*
X42960304Y7034248D01*
X43069050Y7166755D01*
X43089248Y7191366D01*
X43221755Y7439269D01*
X43259995Y7565328D01*
X43429488Y7452077D01*
X43816577Y7291739D01*
X44227509Y7210000D01*
X44646491Y7210000D01*
X45057423Y7291739D01*
X45444512Y7452077D01*
X45707000Y7627465D01*
X45969488Y7452077D01*
G36*
X24417501Y22205416D02*
G01*
X24417500Y8592082D01*
X23361023Y7535605D01*
X23306578Y7490923D01*
X23261896Y7436478D01*
X23261892Y7436474D01*
X23162826Y7315761D01*
X23128253Y7273634D01*
X22995745Y7025731D01*
X22993447Y7018156D01*
X22788012Y7155423D01*
X22400923Y7315761D01*
X21989991Y7397500D01*
X21571009Y7397500D01*
X21160077Y7315761D01*
X20772988Y7155423D01*
X20510500Y6980035D01*
X20248012Y7155423D01*
X19860923Y7315761D01*
X19449991Y7397500D01*
X19031009Y7397500D01*
X18620077Y7315761D01*
X18232988Y7155423D01*
X17884616Y6922649D01*
X17588351Y6626384D01*
X17355577Y6278012D01*
X17195239Y5890923D01*
X17113500Y5479991D01*
X17113500Y5161582D01*
X16934918Y4983000D01*
X15741533Y4983000D01*
X15516384Y5208149D01*
X15168012Y5440923D01*
X14780923Y5601261D01*
X14369991Y5683000D01*
X13951009Y5683000D01*
X13540077Y5601261D01*
X13152988Y5440923D01*
X12804616Y5208149D01*
X12539500Y4943033D01*
X12539500Y9297547D01*
X14525500Y9297547D01*
X14746431Y9319307D01*
X14958871Y9383750D01*
X15154657Y9488400D01*
X15326265Y9629235D01*
X15467100Y9800843D01*
X15571750Y9996629D01*
X15573683Y10003000D01*
X19058582Y10003000D01*
X19100239Y9793577D01*
X19260577Y9406488D01*
X19493351Y9058116D01*
X19789616Y8761851D01*
X20137988Y8529077D01*
X20525077Y8368739D01*
X20936009Y8287000D01*
X21354991Y8287000D01*
X21765923Y8368739D01*
X22153012Y8529077D01*
X22501384Y8761851D01*
X22797649Y9058116D01*
X23030423Y9406488D01*
X23190761Y9793577D01*
X23272500Y10204509D01*
X23272500Y10623491D01*
X23190761Y11034423D01*
X23030423Y11421512D01*
X22797649Y11769884D01*
X22501384Y12066149D01*
X22153012Y12298923D01*
X21765923Y12459261D01*
X21354991Y12541000D01*
X21025135Y12541000D01*
X20926134Y12622248D01*
X20678231Y12754755D01*
X20409241Y12836352D01*
X20199598Y12857000D01*
X20199588Y12857000D01*
X20129500Y12863903D01*
X20059412Y12857000D01*
X15573683Y12857000D01*
X15571750Y12863371D01*
X15467100Y13059157D01*
X15326265Y13230765D01*
X15154657Y13371600D01*
X14958871Y13476250D01*
X14746431Y13540693D01*
X14525500Y13562453D01*
X12539500Y13562453D01*
X12539500Y14448000D01*
X17455912Y14448000D01*
X17526000Y14441097D01*
X17596088Y14448000D01*
X17596098Y14448000D01*
X17805741Y14468648D01*
X18074731Y14550245D01*
X18322634Y14682752D01*
X18539923Y14861077D01*
X18584609Y14915527D01*
X22104978Y18435895D01*
X22111865Y18441547D01*
X22145500Y18441547D01*
X22366431Y18463307D01*
X22578871Y18527750D01*
X22774657Y18632400D01*
X22946265Y18773235D01*
X23087100Y18944843D01*
X23191750Y19140629D01*
X23256193Y19353069D01*
X23277953Y19574000D01*
X23277953Y21574000D01*
X23256193Y21794931D01*
X23191750Y22007371D01*
X23087100Y22203157D01*
X22946265Y22374765D01*
X22774657Y22515600D01*
X22578871Y22620250D01*
X22366431Y22684693D01*
X22145500Y22706453D01*
X20145500Y22706453D01*
X19924569Y22684693D01*
X19712129Y22620250D01*
X19516343Y22515600D01*
X19344735Y22374765D01*
X19203900Y22203157D01*
X19099250Y22007371D01*
X19034807Y21794931D01*
X19013047Y21574000D01*
X19013047Y19574000D01*
X19030430Y19397512D01*
X16934918Y17302000D01*
X12539500Y17302000D01*
X12539500Y19160817D01*
X12545871Y19162750D01*
X12741657Y19267400D01*
X12913265Y19408235D01*
X13054100Y19579843D01*
X13105716Y19676409D01*
X13272065Y19618871D01*
X13525500Y19737685D01*
X13525500Y21082000D01*
X13505500Y21082000D01*
X13505500Y21336000D01*
X13525500Y21336000D01*
X13525500Y21356000D01*
X13779500Y21356000D01*
X13779500Y21336000D01*
X13799500Y21336000D01*
X13799500Y21082000D01*
X13779500Y21082000D01*
X13779500Y19737685D01*
X14032935Y19618871D01*
X14335844Y19723644D01*
X14546549Y19846918D01*
X14836616Y19556851D01*
X15184988Y19324077D01*
X15572077Y19163739D01*
X15983009Y19082000D01*
X16401991Y19082000D01*
X16812923Y19163739D01*
X17200012Y19324077D01*
X17548384Y19556851D01*
X17844649Y19853116D01*
X18077423Y20201488D01*
X18237761Y20588577D01*
X18319500Y20999509D01*
X18319500Y21418491D01*
X18237761Y21829423D01*
X18077423Y22216512D01*
X17844649Y22564884D01*
X17613990Y22795543D01*
X17598852Y22949241D01*
X17517255Y23218231D01*
X17384748Y23466134D01*
X17355643Y23501598D01*
X17251108Y23628975D01*
X17251101Y23628982D01*
X17206422Y23683423D01*
X17151982Y23728101D01*
X16907083Y23973000D01*
X22649918Y23973000D01*
X24417501Y22205416D01*
G37*
X24417501Y22205416D02*
X24417500Y8592082D01*
X23361023Y7535605D01*
X23306578Y7490923D01*
X23261896Y7436478D01*
X23261892Y7436474D01*
X23162826Y7315761D01*
X23128253Y7273634D01*
X22995745Y7025731D01*
X22993447Y7018156D01*
X22788012Y7155423D01*
X22400923Y7315761D01*
X21989991Y7397500D01*
X21571009Y7397500D01*
X21160077Y7315761D01*
X20772988Y7155423D01*
X20510500Y6980035D01*
X20248012Y7155423D01*
X19860923Y7315761D01*
X19449991Y7397500D01*
X19031009Y7397500D01*
X18620077Y7315761D01*
X18232988Y7155423D01*
X17884616Y6922649D01*
X17588351Y6626384D01*
X17355577Y6278012D01*
X17195239Y5890923D01*
X17113500Y5479991D01*
X17113500Y5161582D01*
X16934918Y4983000D01*
X15741533Y4983000D01*
X15516384Y5208149D01*
X15168012Y5440923D01*
X14780923Y5601261D01*
X14369991Y5683000D01*
X13951009Y5683000D01*
X13540077Y5601261D01*
X13152988Y5440923D01*
X12804616Y5208149D01*
X12539500Y4943033D01*
X12539500Y9297547D01*
X14525500Y9297547D01*
X14746431Y9319307D01*
X14958871Y9383750D01*
X15154657Y9488400D01*
X15326265Y9629235D01*
X15467100Y9800843D01*
X15571750Y9996629D01*
X15573683Y10003000D01*
X19058582Y10003000D01*
X19100239Y9793577D01*
X19260577Y9406488D01*
X19493351Y9058116D01*
X19789616Y8761851D01*
X20137988Y8529077D01*
X20525077Y8368739D01*
X20936009Y8287000D01*
X21354991Y8287000D01*
X21765923Y8368739D01*
X22153012Y8529077D01*
X22501384Y8761851D01*
X22797649Y9058116D01*
X23030423Y9406488D01*
X23190761Y9793577D01*
X23272500Y10204509D01*
X23272500Y10623491D01*
X23190761Y11034423D01*
X23030423Y11421512D01*
X22797649Y11769884D01*
X22501384Y12066149D01*
X22153012Y12298923D01*
X21765923Y12459261D01*
X21354991Y12541000D01*
X21025135Y12541000D01*
X20926134Y12622248D01*
X20678231Y12754755D01*
X20409241Y12836352D01*
X20199598Y12857000D01*
X20199588Y12857000D01*
X20129500Y12863903D01*
X20059412Y12857000D01*
X15573683Y12857000D01*
X15571750Y12863371D01*
X15467100Y13059157D01*
X15326265Y13230765D01*
X15154657Y13371600D01*
X14958871Y13476250D01*
X14746431Y13540693D01*
X14525500Y13562453D01*
X12539500Y13562453D01*
X12539500Y14448000D01*
X17455912Y14448000D01*
X17526000Y14441097D01*
X17596088Y14448000D01*
X17596098Y14448000D01*
X17805741Y14468648D01*
X18074731Y14550245D01*
X18322634Y14682752D01*
X18539923Y14861077D01*
X18584609Y14915527D01*
X22104978Y18435895D01*
X22111865Y18441547D01*
X22145500Y18441547D01*
X22366431Y18463307D01*
X22578871Y18527750D01*
X22774657Y18632400D01*
X22946265Y18773235D01*
X23087100Y18944843D01*
X23191750Y19140629D01*
X23256193Y19353069D01*
X23277953Y19574000D01*
X23277953Y21574000D01*
X23256193Y21794931D01*
X23191750Y22007371D01*
X23087100Y22203157D01*
X22946265Y22374765D01*
X22774657Y22515600D01*
X22578871Y22620250D01*
X22366431Y22684693D01*
X22145500Y22706453D01*
X20145500Y22706453D01*
X19924569Y22684693D01*
X19712129Y22620250D01*
X19516343Y22515600D01*
X19344735Y22374765D01*
X19203900Y22203157D01*
X19099250Y22007371D01*
X19034807Y21794931D01*
X19013047Y21574000D01*
X19013047Y19574000D01*
X19030430Y19397512D01*
X16934918Y17302000D01*
X12539500Y17302000D01*
X12539500Y19160817D01*
X12545871Y19162750D01*
X12741657Y19267400D01*
X12913265Y19408235D01*
X13054100Y19579843D01*
X13105716Y19676409D01*
X13272065Y19618871D01*
X13525500Y19737685D01*
X13525500Y21082000D01*
X13505500Y21082000D01*
X13505500Y21336000D01*
X13525500Y21336000D01*
X13525500Y21356000D01*
X13779500Y21356000D01*
X13779500Y21336000D01*
X13799500Y21336000D01*
X13799500Y21082000D01*
X13779500Y21082000D01*
X13779500Y19737685D01*
X14032935Y19618871D01*
X14335844Y19723644D01*
X14546549Y19846918D01*
X14836616Y19556851D01*
X15184988Y19324077D01*
X15572077Y19163739D01*
X15983009Y19082000D01*
X16401991Y19082000D01*
X16812923Y19163739D01*
X17200012Y19324077D01*
X17548384Y19556851D01*
X17844649Y19853116D01*
X18077423Y20201488D01*
X18237761Y20588577D01*
X18319500Y20999509D01*
X18319500Y21418491D01*
X18237761Y21829423D01*
X18077423Y22216512D01*
X17844649Y22564884D01*
X17613990Y22795543D01*
X17598852Y22949241D01*
X17517255Y23218231D01*
X17384748Y23466134D01*
X17355643Y23501598D01*
X17251108Y23628975D01*
X17251101Y23628982D01*
X17206422Y23683423D01*
X17151982Y23728101D01*
X16907083Y23973000D01*
X22649918Y23973000D01*
X24417501Y22205416D01*
G36*
X45855488Y27579077D02*
G01*
X46242577Y27418739D01*
X46653509Y27337000D01*
X47072491Y27337000D01*
X47483423Y27418739D01*
X47870512Y27579077D01*
X48039501Y27691991D01*
X48039500Y27489033D01*
X47814351Y27263884D01*
X47581577Y26915512D01*
X47421239Y26528423D01*
X47339500Y26117491D01*
X47339500Y25698509D01*
X47421239Y25287577D01*
X47581577Y24900488D01*
X47814351Y24552116D01*
X48110616Y24255851D01*
X48458988Y24023077D01*
X48606341Y23962041D01*
X48509488Y23921923D01*
X48161116Y23689149D01*
X47872186Y23400219D01*
X47832382Y23430399D01*
X47544107Y23570502D01*
X47357434Y23627124D01*
X47104000Y23507777D01*
X47104000Y22164000D01*
X47124000Y22164000D01*
X47124000Y21910000D01*
X47104000Y21910000D01*
X47104000Y20566223D01*
X47357434Y20446876D01*
X47544107Y20503498D01*
X47832382Y20643601D01*
X47872186Y20673781D01*
X48090001Y20455966D01*
X48090001Y20082183D01*
X48083629Y20080250D01*
X47887843Y19975600D01*
X47716235Y19834765D01*
X47575400Y19663157D01*
X47470750Y19467371D01*
X47406307Y19254931D01*
X47384547Y19034000D01*
X47384547Y17034000D01*
X47406307Y16813069D01*
X47470750Y16600629D01*
X47575400Y16404843D01*
X47716235Y16233235D01*
X47887843Y16092400D01*
X48083629Y15987750D01*
X48296069Y15923307D01*
X48517000Y15901547D01*
X50517000Y15901547D01*
X50737931Y15923307D01*
X50950371Y15987750D01*
X51146157Y16092400D01*
X51317765Y16233235D01*
X51405000Y16339532D01*
X51405001Y10337082D01*
X51401923Y10344512D01*
X51169149Y10692884D01*
X50872884Y10989149D01*
X50524512Y11221923D01*
X50137423Y11382261D01*
X49726491Y11464000D01*
X49307509Y11464000D01*
X48896577Y11382261D01*
X48509488Y11221923D01*
X48247000Y11046535D01*
X47984512Y11221923D01*
X47597423Y11382261D01*
X47186491Y11464000D01*
X46767509Y11464000D01*
X46356577Y11382261D01*
X45969488Y11221923D01*
X45707000Y11046535D01*
X45444512Y11221923D01*
X45057423Y11382261D01*
X44646491Y11464000D01*
X44227509Y11464000D01*
X43816577Y11382261D01*
X43429488Y11221923D01*
X43324000Y11151438D01*
X43324000Y11753913D01*
X43330903Y11824001D01*
X43324000Y11894089D01*
X43324000Y11894098D01*
X43303352Y12103741D01*
X43221755Y12372731D01*
X43089248Y12620634D01*
X42910922Y12837923D01*
X42856477Y12882605D01*
X42640495Y13098587D01*
X48561192Y13098587D01*
X48656956Y12834186D01*
X48946571Y12693296D01*
X49258108Y12611616D01*
X49579595Y12592282D01*
X49898675Y12636039D01*
X50203088Y12741205D01*
X50377044Y12834186D01*
X50472808Y13098587D01*
X49517000Y14054395D01*
X48561192Y13098587D01*
X42640495Y13098587D01*
X41567677Y14171405D01*
X47875282Y14171405D01*
X47919039Y13852325D01*
X48024205Y13547912D01*
X48117186Y13373956D01*
X48381587Y13278192D01*
X49337395Y14234000D01*
X49696605Y14234000D01*
X50652413Y13278192D01*
X50916814Y13373956D01*
X51057704Y13663571D01*
X51139384Y13975108D01*
X51158718Y14296595D01*
X51114961Y14615675D01*
X51009795Y14920088D01*
X50916814Y15094044D01*
X50652413Y15189808D01*
X49696605Y14234000D01*
X49337395Y14234000D01*
X48381587Y15189808D01*
X48117186Y15094044D01*
X47976296Y14804429D01*
X47894616Y14492892D01*
X47875282Y14171405D01*
X41567677Y14171405D01*
X40369669Y15369413D01*
X48561192Y15369413D01*
X49517000Y14413605D01*
X50472808Y15369413D01*
X50377044Y15633814D01*
X50087429Y15774704D01*
X49775892Y15856384D01*
X49454405Y15875718D01*
X49135325Y15831961D01*
X48830912Y15726795D01*
X48656956Y15633814D01*
X48561192Y15369413D01*
X40369669Y15369413D01*
X35704000Y20035082D01*
X35704000Y20222562D01*
X35809488Y20152077D01*
X36196577Y19991739D01*
X36607509Y19910000D01*
X37026491Y19910000D01*
X37437423Y19991739D01*
X37824512Y20152077D01*
X38087000Y20327465D01*
X38349488Y20152077D01*
X38736577Y19991739D01*
X39147509Y19910000D01*
X39566491Y19910000D01*
X39977423Y19991739D01*
X40364512Y20152077D01*
X40627000Y20327465D01*
X40889488Y20152077D01*
X41276577Y19991739D01*
X41687509Y19910000D01*
X42106491Y19910000D01*
X42517423Y19991739D01*
X42904512Y20152077D01*
X43167000Y20327465D01*
X43429488Y20152077D01*
X43816577Y19991739D01*
X44227509Y19910000D01*
X44646491Y19910000D01*
X45057423Y19991739D01*
X45444512Y20152077D01*
X45792884Y20384851D01*
X46081814Y20673781D01*
X46121618Y20643601D01*
X46409893Y20503498D01*
X46596566Y20446876D01*
X46850000Y20566223D01*
X46850000Y21910000D01*
X46830000Y21910000D01*
X46830000Y22164000D01*
X46850000Y22164000D01*
X46850000Y23507777D01*
X46596566Y23627124D01*
X46409893Y23570502D01*
X46121618Y23430399D01*
X46081814Y23400219D01*
X45864000Y23618033D01*
X45864000Y24265967D01*
X46089149Y24491116D01*
X46321923Y24839488D01*
X46482261Y25226577D01*
X46564000Y25637509D01*
X46564000Y26056491D01*
X46482261Y26467423D01*
X46321923Y26854512D01*
X46089149Y27202884D01*
X45792884Y27499149D01*
X45501887Y27693586D01*
X45593000Y27754465D01*
X45855488Y27579077D01*
G37*
X45855488Y27579077D02*
X46242577Y27418739D01*
X46653509Y27337000D01*
X47072491Y27337000D01*
X47483423Y27418739D01*
X47870512Y27579077D01*
X48039501Y27691991D01*
X48039500Y27489033D01*
X47814351Y27263884D01*
X47581577Y26915512D01*
X47421239Y26528423D01*
X47339500Y26117491D01*
X47339500Y25698509D01*
X47421239Y25287577D01*
X47581577Y24900488D01*
X47814351Y24552116D01*
X48110616Y24255851D01*
X48458988Y24023077D01*
X48606341Y23962041D01*
X48509488Y23921923D01*
X48161116Y23689149D01*
X47872186Y23400219D01*
X47832382Y23430399D01*
X47544107Y23570502D01*
X47357434Y23627124D01*
X47104000Y23507777D01*
X47104000Y22164000D01*
X47124000Y22164000D01*
X47124000Y21910000D01*
X47104000Y21910000D01*
X47104000Y20566223D01*
X47357434Y20446876D01*
X47544107Y20503498D01*
X47832382Y20643601D01*
X47872186Y20673781D01*
X48090001Y20455966D01*
X48090001Y20082183D01*
X48083629Y20080250D01*
X47887843Y19975600D01*
X47716235Y19834765D01*
X47575400Y19663157D01*
X47470750Y19467371D01*
X47406307Y19254931D01*
X47384547Y19034000D01*
X47384547Y17034000D01*
X47406307Y16813069D01*
X47470750Y16600629D01*
X47575400Y16404843D01*
X47716235Y16233235D01*
X47887843Y16092400D01*
X48083629Y15987750D01*
X48296069Y15923307D01*
X48517000Y15901547D01*
X50517000Y15901547D01*
X50737931Y15923307D01*
X50950371Y15987750D01*
X51146157Y16092400D01*
X51317765Y16233235D01*
X51405000Y16339532D01*
X51405001Y10337082D01*
X51401923Y10344512D01*
X51169149Y10692884D01*
X50872884Y10989149D01*
X50524512Y11221923D01*
X50137423Y11382261D01*
X49726491Y11464000D01*
X49307509Y11464000D01*
X48896577Y11382261D01*
X48509488Y11221923D01*
X48247000Y11046535D01*
X47984512Y11221923D01*
X47597423Y11382261D01*
X47186491Y11464000D01*
X46767509Y11464000D01*
X46356577Y11382261D01*
X45969488Y11221923D01*
X45707000Y11046535D01*
X45444512Y11221923D01*
X45057423Y11382261D01*
X44646491Y11464000D01*
X44227509Y11464000D01*
X43816577Y11382261D01*
X43429488Y11221923D01*
X43324000Y11151438D01*
X43324000Y11753913D01*
X43330903Y11824001D01*
X43324000Y11894089D01*
X43324000Y11894098D01*
X43303352Y12103741D01*
X43221755Y12372731D01*
X43089248Y12620634D01*
X42910922Y12837923D01*
X42856477Y12882605D01*
X42640495Y13098587D01*
X48561192Y13098587D01*
X48656956Y12834186D01*
X48946571Y12693296D01*
X49258108Y12611616D01*
X49579595Y12592282D01*
X49898675Y12636039D01*
X50203088Y12741205D01*
X50377044Y12834186D01*
X50472808Y13098587D01*
X49517000Y14054395D01*
X48561192Y13098587D01*
X42640495Y13098587D01*
X41567677Y14171405D01*
X47875282Y14171405D01*
X47919039Y13852325D01*
X48024205Y13547912D01*
X48117186Y13373956D01*
X48381587Y13278192D01*
X49337395Y14234000D01*
X49696605Y14234000D01*
X50652413Y13278192D01*
X50916814Y13373956D01*
X51057704Y13663571D01*
X51139384Y13975108D01*
X51158718Y14296595D01*
X51114961Y14615675D01*
X51009795Y14920088D01*
X50916814Y15094044D01*
X50652413Y15189808D01*
X49696605Y14234000D01*
X49337395Y14234000D01*
X48381587Y15189808D01*
X48117186Y15094044D01*
X47976296Y14804429D01*
X47894616Y14492892D01*
X47875282Y14171405D01*
X41567677Y14171405D01*
X40369669Y15369413D01*
X48561192Y15369413D01*
X49517000Y14413605D01*
X50472808Y15369413D01*
X50377044Y15633814D01*
X50087429Y15774704D01*
X49775892Y15856384D01*
X49454405Y15875718D01*
X49135325Y15831961D01*
X48830912Y15726795D01*
X48656956Y15633814D01*
X48561192Y15369413D01*
X40369669Y15369413D01*
X35704000Y20035082D01*
X35704000Y20222562D01*
X35809488Y20152077D01*
X36196577Y19991739D01*
X36607509Y19910000D01*
X37026491Y19910000D01*
X37437423Y19991739D01*
X37824512Y20152077D01*
X38087000Y20327465D01*
X38349488Y20152077D01*
X38736577Y19991739D01*
X39147509Y19910000D01*
X39566491Y19910000D01*
X39977423Y19991739D01*
X40364512Y20152077D01*
X40627000Y20327465D01*
X40889488Y20152077D01*
X41276577Y19991739D01*
X41687509Y19910000D01*
X42106491Y19910000D01*
X42517423Y19991739D01*
X42904512Y20152077D01*
X43167000Y20327465D01*
X43429488Y20152077D01*
X43816577Y19991739D01*
X44227509Y19910000D01*
X44646491Y19910000D01*
X45057423Y19991739D01*
X45444512Y20152077D01*
X45792884Y20384851D01*
X46081814Y20673781D01*
X46121618Y20643601D01*
X46409893Y20503498D01*
X46596566Y20446876D01*
X46850000Y20566223D01*
X46850000Y21910000D01*
X46830000Y21910000D01*
X46830000Y22164000D01*
X46850000Y22164000D01*
X46850000Y23507777D01*
X46596566Y23627124D01*
X46409893Y23570502D01*
X46121618Y23430399D01*
X46081814Y23400219D01*
X45864000Y23618033D01*
X45864000Y24265967D01*
X46089149Y24491116D01*
X46321923Y24839488D01*
X46482261Y25226577D01*
X46564000Y25637509D01*
X46564000Y26056491D01*
X46482261Y26467423D01*
X46321923Y26854512D01*
X46089149Y27202884D01*
X45792884Y27499149D01*
X45501887Y27693586D01*
X45593000Y27754465D01*
X45855488Y27579077D01*
G36*
X31864000Y22164000D02*
G01*
X31884000Y22164000D01*
X31884000Y21910000D01*
X31864000Y21910000D01*
X31864000Y20560750D01*
X32022750Y20402000D01*
X32737000Y20398928D01*
X32850001Y20410057D01*
X32850001Y19514097D01*
X32843097Y19444000D01*
X32870649Y19164259D01*
X32952246Y18895269D01*
X33084753Y18647366D01*
X33218392Y18484526D01*
X33218396Y18484522D01*
X33263078Y18430077D01*
X33317523Y18385395D01*
X40470000Y11232918D01*
X40470000Y11151438D01*
X40364512Y11221923D01*
X39977423Y11382261D01*
X39566491Y11464000D01*
X39147509Y11464000D01*
X38736577Y11382261D01*
X38349488Y11221923D01*
X38087000Y11046535D01*
X37824512Y11221923D01*
X37437423Y11382261D01*
X37026491Y11464000D01*
X36607509Y11464000D01*
X36196577Y11382261D01*
X35809488Y11221923D01*
X35547000Y11046535D01*
X35284512Y11221923D01*
X34897423Y11382261D01*
X34486491Y11464000D01*
X34067509Y11464000D01*
X33656577Y11382261D01*
X33269488Y11221923D01*
X33007000Y11046535D01*
X32744512Y11221923D01*
X32357423Y11382261D01*
X31946491Y11464000D01*
X31527509Y11464000D01*
X31335500Y11425807D01*
X31335500Y20401502D01*
X31451250Y20402000D01*
X31610000Y20560750D01*
X31610000Y21910000D01*
X31590000Y21910000D01*
X31590000Y22164000D01*
X31610000Y22164000D01*
X31610000Y22184000D01*
X31864000Y22184000D01*
X31864000Y22164000D01*
G37*
X31864000Y22164000D02*
X31884000Y22164000D01*
X31884000Y21910000D01*
X31864000Y21910000D01*
X31864000Y20560750D01*
X32022750Y20402000D01*
X32737000Y20398928D01*
X32850001Y20410057D01*
X32850001Y19514097D01*
X32843097Y19444000D01*
X32870649Y19164259D01*
X32952246Y18895269D01*
X33084753Y18647366D01*
X33218392Y18484526D01*
X33218396Y18484522D01*
X33263078Y18430077D01*
X33317523Y18385395D01*
X40470000Y11232918D01*
X40470000Y11151438D01*
X40364512Y11221923D01*
X39977423Y11382261D01*
X39566491Y11464000D01*
X39147509Y11464000D01*
X38736577Y11382261D01*
X38349488Y11221923D01*
X38087000Y11046535D01*
X37824512Y11221923D01*
X37437423Y11382261D01*
X37026491Y11464000D01*
X36607509Y11464000D01*
X36196577Y11382261D01*
X35809488Y11221923D01*
X35547000Y11046535D01*
X35284512Y11221923D01*
X34897423Y11382261D01*
X34486491Y11464000D01*
X34067509Y11464000D01*
X33656577Y11382261D01*
X33269488Y11221923D01*
X33007000Y11046535D01*
X32744512Y11221923D01*
X32357423Y11382261D01*
X31946491Y11464000D01*
X31527509Y11464000D01*
X31335500Y11425807D01*
X31335500Y20401502D01*
X31451250Y20402000D01*
X31610000Y20560750D01*
X31610000Y21910000D01*
X31590000Y21910000D01*
X31590000Y22164000D01*
X31610000Y22164000D01*
X31610000Y22184000D01*
X31864000Y22184000D01*
X31864000Y22164000D01*
G36*
X50630395Y45522522D02*
G01*
X50675077Y45468077D01*
X50729522Y45423395D01*
X50729525Y45423392D01*
X50814595Y45353577D01*
X50892366Y45289752D01*
X50966052Y45250366D01*
X51405000Y44811417D01*
X51405001Y43591000D01*
X50984033Y43591000D01*
X50758884Y43816149D01*
X50410512Y44048923D01*
X50023423Y44209261D01*
X49612491Y44291000D01*
X49193509Y44291000D01*
X48782577Y44209261D01*
X48395488Y44048923D01*
X48047116Y43816149D01*
X47758186Y43527219D01*
X47718382Y43557399D01*
X47430107Y43697502D01*
X47243434Y43754124D01*
X46990000Y43634777D01*
X46990000Y42291000D01*
X47010000Y42291000D01*
X47010000Y42037000D01*
X46990000Y42037000D01*
X46990000Y40693223D01*
X47243434Y40573876D01*
X47430107Y40630498D01*
X47718382Y40770601D01*
X47758186Y40800781D01*
X47976001Y40582966D01*
X47976001Y40148183D01*
X47969629Y40146250D01*
X47773843Y40041600D01*
X47602235Y39900765D01*
X47461400Y39729157D01*
X47356750Y39533371D01*
X47292307Y39320931D01*
X47270547Y39100000D01*
X47270547Y37100000D01*
X47292307Y36879069D01*
X47356750Y36666629D01*
X47461400Y36470843D01*
X47602235Y36299235D01*
X47773843Y36158400D01*
X47969629Y36053750D01*
X48182069Y35989307D01*
X48403000Y35967547D01*
X50403000Y35967547D01*
X50623931Y35989307D01*
X50836371Y36053750D01*
X51032157Y36158400D01*
X51203765Y36299235D01*
X51344600Y36470843D01*
X51405000Y36583844D01*
X51405001Y30188863D01*
X51287923Y30471512D01*
X51055149Y30819884D01*
X50758884Y31116149D01*
X50410512Y31348923D01*
X50023423Y31509261D01*
X49612491Y31591000D01*
X49193509Y31591000D01*
X48782577Y31509261D01*
X48395488Y31348923D01*
X48133000Y31173535D01*
X47870512Y31348923D01*
X47483423Y31509261D01*
X47072491Y31591000D01*
X46653509Y31591000D01*
X46242577Y31509261D01*
X45855488Y31348923D01*
X45593000Y31173535D01*
X45330512Y31348923D01*
X44943423Y31509261D01*
X44532491Y31591000D01*
X44113509Y31591000D01*
X43702577Y31509261D01*
X43315488Y31348923D01*
X43126069Y31222358D01*
X43107755Y31282731D01*
X42975248Y31530634D01*
X42796922Y31747923D01*
X42742477Y31792605D01*
X41370495Y33164587D01*
X48447192Y33164587D01*
X48542956Y32900186D01*
X48832571Y32759296D01*
X49144108Y32677616D01*
X49465595Y32658282D01*
X49784675Y32702039D01*
X50089088Y32807205D01*
X50263044Y32900186D01*
X50358808Y33164587D01*
X49403000Y34120395D01*
X48447192Y33164587D01*
X41370495Y33164587D01*
X41317608Y33217474D01*
X41272923Y33271923D01*
X41055634Y33450248D01*
X40807731Y33582755D01*
X40538741Y33664352D01*
X40329098Y33685000D01*
X40329088Y33685000D01*
X40259000Y33691903D01*
X40188912Y33685000D01*
X35590000Y33685000D01*
X35590000Y34237405D01*
X47761282Y34237405D01*
X47805039Y33918325D01*
X47910205Y33613912D01*
X48003186Y33439956D01*
X48267587Y33344192D01*
X49223395Y34300000D01*
X49582605Y34300000D01*
X50538413Y33344192D01*
X50802814Y33439956D01*
X50943704Y33729571D01*
X51025384Y34041108D01*
X51044718Y34362595D01*
X51000961Y34681675D01*
X50895795Y34986088D01*
X50802814Y35160044D01*
X50538413Y35255808D01*
X49582605Y34300000D01*
X49223395Y34300000D01*
X48267587Y35255808D01*
X48003186Y35160044D01*
X47862296Y34870429D01*
X47780616Y34558892D01*
X47761282Y34237405D01*
X35590000Y34237405D01*
X35590000Y35435413D01*
X48447192Y35435413D01*
X49403000Y34479605D01*
X50358808Y35435413D01*
X50263044Y35699814D01*
X49973429Y35840704D01*
X49661892Y35922384D01*
X49340405Y35941718D01*
X49021325Y35897961D01*
X48716912Y35792795D01*
X48542956Y35699814D01*
X48447192Y35435413D01*
X35590000Y35435413D01*
X35590000Y40349562D01*
X35695488Y40279077D01*
X36082577Y40118739D01*
X36493509Y40037000D01*
X36912491Y40037000D01*
X37323423Y40118739D01*
X37710512Y40279077D01*
X37973000Y40454465D01*
X38235488Y40279077D01*
X38622577Y40118739D01*
X39033509Y40037000D01*
X39452491Y40037000D01*
X39863423Y40118739D01*
X40250512Y40279077D01*
X40513000Y40454465D01*
X40775488Y40279077D01*
X41162577Y40118739D01*
X41573509Y40037000D01*
X41992491Y40037000D01*
X42403423Y40118739D01*
X42790512Y40279077D01*
X43053000Y40454465D01*
X43315488Y40279077D01*
X43702577Y40118739D01*
X44113509Y40037000D01*
X44532491Y40037000D01*
X44943423Y40118739D01*
X45330512Y40279077D01*
X45678884Y40511851D01*
X45967814Y40800781D01*
X46007618Y40770601D01*
X46295893Y40630498D01*
X46482566Y40573876D01*
X46736000Y40693223D01*
X46736000Y42037000D01*
X46716000Y42037000D01*
X46716000Y42291000D01*
X46736000Y42291000D01*
X46736000Y43634777D01*
X46482566Y43754124D01*
X46295893Y43697502D01*
X46007618Y43557399D01*
X45967814Y43527219D01*
X45750000Y43745033D01*
X45750000Y44392967D01*
X45975149Y44618116D01*
X46207923Y44966488D01*
X46368261Y45353577D01*
X46450000Y45764509D01*
X46450000Y46183491D01*
X46368261Y46594423D01*
X46207923Y46981512D01*
X46137438Y47087000D01*
X49065918Y47087000D01*
X50630395Y45522522D01*
G37*
X50630395Y45522522D02*
X50675077Y45468077D01*
X50729522Y45423395D01*
X50729525Y45423392D01*
X50814595Y45353577D01*
X50892366Y45289752D01*
X50966052Y45250366D01*
X51405000Y44811417D01*
X51405001Y43591000D01*
X50984033Y43591000D01*
X50758884Y43816149D01*
X50410512Y44048923D01*
X50023423Y44209261D01*
X49612491Y44291000D01*
X49193509Y44291000D01*
X48782577Y44209261D01*
X48395488Y44048923D01*
X48047116Y43816149D01*
X47758186Y43527219D01*
X47718382Y43557399D01*
X47430107Y43697502D01*
X47243434Y43754124D01*
X46990000Y43634777D01*
X46990000Y42291000D01*
X47010000Y42291000D01*
X47010000Y42037000D01*
X46990000Y42037000D01*
X46990000Y40693223D01*
X47243434Y40573876D01*
X47430107Y40630498D01*
X47718382Y40770601D01*
X47758186Y40800781D01*
X47976001Y40582966D01*
X47976001Y40148183D01*
X47969629Y40146250D01*
X47773843Y40041600D01*
X47602235Y39900765D01*
X47461400Y39729157D01*
X47356750Y39533371D01*
X47292307Y39320931D01*
X47270547Y39100000D01*
X47270547Y37100000D01*
X47292307Y36879069D01*
X47356750Y36666629D01*
X47461400Y36470843D01*
X47602235Y36299235D01*
X47773843Y36158400D01*
X47969629Y36053750D01*
X48182069Y35989307D01*
X48403000Y35967547D01*
X50403000Y35967547D01*
X50623931Y35989307D01*
X50836371Y36053750D01*
X51032157Y36158400D01*
X51203765Y36299235D01*
X51344600Y36470843D01*
X51405000Y36583844D01*
X51405001Y30188863D01*
X51287923Y30471512D01*
X51055149Y30819884D01*
X50758884Y31116149D01*
X50410512Y31348923D01*
X50023423Y31509261D01*
X49612491Y31591000D01*
X49193509Y31591000D01*
X48782577Y31509261D01*
X48395488Y31348923D01*
X48133000Y31173535D01*
X47870512Y31348923D01*
X47483423Y31509261D01*
X47072491Y31591000D01*
X46653509Y31591000D01*
X46242577Y31509261D01*
X45855488Y31348923D01*
X45593000Y31173535D01*
X45330512Y31348923D01*
X44943423Y31509261D01*
X44532491Y31591000D01*
X44113509Y31591000D01*
X43702577Y31509261D01*
X43315488Y31348923D01*
X43126069Y31222358D01*
X43107755Y31282731D01*
X42975248Y31530634D01*
X42796922Y31747923D01*
X42742477Y31792605D01*
X41370495Y33164587D01*
X48447192Y33164587D01*
X48542956Y32900186D01*
X48832571Y32759296D01*
X49144108Y32677616D01*
X49465595Y32658282D01*
X49784675Y32702039D01*
X50089088Y32807205D01*
X50263044Y32900186D01*
X50358808Y33164587D01*
X49403000Y34120395D01*
X48447192Y33164587D01*
X41370495Y33164587D01*
X41317608Y33217474D01*
X41272923Y33271923D01*
X41055634Y33450248D01*
X40807731Y33582755D01*
X40538741Y33664352D01*
X40329098Y33685000D01*
X40329088Y33685000D01*
X40259000Y33691903D01*
X40188912Y33685000D01*
X35590000Y33685000D01*
X35590000Y34237405D01*
X47761282Y34237405D01*
X47805039Y33918325D01*
X47910205Y33613912D01*
X48003186Y33439956D01*
X48267587Y33344192D01*
X49223395Y34300000D01*
X49582605Y34300000D01*
X50538413Y33344192D01*
X50802814Y33439956D01*
X50943704Y33729571D01*
X51025384Y34041108D01*
X51044718Y34362595D01*
X51000961Y34681675D01*
X50895795Y34986088D01*
X50802814Y35160044D01*
X50538413Y35255808D01*
X49582605Y34300000D01*
X49223395Y34300000D01*
X48267587Y35255808D01*
X48003186Y35160044D01*
X47862296Y34870429D01*
X47780616Y34558892D01*
X47761282Y34237405D01*
X35590000Y34237405D01*
X35590000Y35435413D01*
X48447192Y35435413D01*
X49403000Y34479605D01*
X50358808Y35435413D01*
X50263044Y35699814D01*
X49973429Y35840704D01*
X49661892Y35922384D01*
X49340405Y35941718D01*
X49021325Y35897961D01*
X48716912Y35792795D01*
X48542956Y35699814D01*
X48447192Y35435413D01*
X35590000Y35435413D01*
X35590000Y40349562D01*
X35695488Y40279077D01*
X36082577Y40118739D01*
X36493509Y40037000D01*
X36912491Y40037000D01*
X37323423Y40118739D01*
X37710512Y40279077D01*
X37973000Y40454465D01*
X38235488Y40279077D01*
X38622577Y40118739D01*
X39033509Y40037000D01*
X39452491Y40037000D01*
X39863423Y40118739D01*
X40250512Y40279077D01*
X40513000Y40454465D01*
X40775488Y40279077D01*
X41162577Y40118739D01*
X41573509Y40037000D01*
X41992491Y40037000D01*
X42403423Y40118739D01*
X42790512Y40279077D01*
X43053000Y40454465D01*
X43315488Y40279077D01*
X43702577Y40118739D01*
X44113509Y40037000D01*
X44532491Y40037000D01*
X44943423Y40118739D01*
X45330512Y40279077D01*
X45678884Y40511851D01*
X45967814Y40800781D01*
X46007618Y40770601D01*
X46295893Y40630498D01*
X46482566Y40573876D01*
X46736000Y40693223D01*
X46736000Y42037000D01*
X46716000Y42037000D01*
X46716000Y42291000D01*
X46736000Y42291000D01*
X46736000Y43634777D01*
X46482566Y43754124D01*
X46295893Y43697502D01*
X46007618Y43557399D01*
X45967814Y43527219D01*
X45750000Y43745033D01*
X45750000Y44392967D01*
X45975149Y44618116D01*
X46207923Y44966488D01*
X46368261Y45353577D01*
X46450000Y45764509D01*
X46450000Y46183491D01*
X46368261Y46594423D01*
X46207923Y46981512D01*
X46137438Y47087000D01*
X49065918Y47087000D01*
X50630395Y45522522D01*
M02*
